<?xml version="1.0" encoding="UTF-8" standalone="no"?>
<svg
   viewBox="0 0 550.13 550.13001"
   version="1.1"
   id="svg8"
   sodipodi:docname="SIS-36_30x30.svg"
   width="550.13"
   height="550.13"
   inkscape:version="1.4.2 (f4327f4, 2025-05-13)"
   xmlns:inkscape="http://www.inkscape.org/namespaces/inkscape"
   xmlns:sodipodi="http://sodipodi.sourceforge.net/DTD/sodipodi-0.dtd"
   xmlns="http://www.w3.org/2000/svg"
   xmlns:svg="http://www.w3.org/2000/svg">
  <sodipodi:namedview
     id="namedview8"
     pagecolor="#50505000"
     bordercolor="#ffffffff"
     borderopacity="1"
     inkscape:showpageshadow="0"
     inkscape:pageopacity="0"
     inkscape:pagecheckerboard="1"
     inkscape:deskcolor="#505050ff"
     inkscape:zoom="0.45241838"
     inkscape:cx="276.29293"
     inkscape:cy="533.79794"
     inkscape:window-width="1366"
     inkscape:window-height="697"
     inkscape:window-x="-8"
     inkscape:window-y="-8"
     inkscape:window-maximized="1"
     inkscape:current-layer="svg8" />
  <defs
     id="defs1">
    <style
       id="style1">
      .cls-1 {
        fill: #32479d;
      }

      .cls-2 {
        fill-rule: evenodd;
      }

      .cls-2, .cls-3 {
        fill: #fff;
      }

      .cls-3, .cls-4 {
        stroke: #000;
      }

      .cls-3, .cls-4, .cls-5 {
        stroke-linecap: round;
        stroke-linejoin: round;
      }

      .cls-4, .cls-5 {
        fill: none;
      }

      .cls-5 {
        stroke: #fff;
      }

      .cls-6 {
        font-family: ArialMT, Arial;
        font-size: 155.12px;
      }
    </style>
  </defs>
  <g
     id="sis_Fondo_del_tablero"
     data-name="sis_Fondo del tablero"
     transform="translate(-142.50999,-14)">
    <g
       id="HATCH">
      <rect
         class="cls-1"
         x="157.64999"
         y="29.139999"
         width="519.84003"
         height="519.84003"
         rx="21.969999"
         ry="21.969999"
         id="rect3" />
    </g>
  </g>
  <g
     id="sis_Pictograma_y_filete"
     data-name="sis_Pictograma y filete"
     transform="translate(-142.50999,-14)">
    <g
       id="HATCH-2"
       data-name="HATCH">
      <path
         class="cls-2"
         d="m 179.62,548.99 h 475.91 c 12.13,0 21.97,-9.83 21.97,-21.97 V 51.11 c 0,-12.13 -9.83,-21.97 -21.97,-21.97 H 179.62 c -12.13,0 -21.97,9.83 -21.97,21.97 v 475.91 c 0,12.13 9.83,21.97 21.97,21.97 m 0,14.64 h 475.91 c 20.22,0 36.61,-16.39 36.61,-36.61 V 51.11 C 692.14,30.89 675.75,14.5 655.53,14.5 H 179.62 c -20.22,0 -36.61,16.39 -36.61,36.61 v 475.91 c 0,20.22 16.39,36.61 36.61,36.61 z"
         id="path3" />
    </g>
    <g
       id="LWPOLYLINE">
      <rect
         class="cls-4"
         x="143.00999"
         y="14.5"
         width="549.13"
         height="549.13"
         rx="36.610001"
         ry="36.610001"
         id="rect4" />
    </g>
    <g
       id="LWPOLYLINE-2"
       data-name="LWPOLYLINE">
      <rect
         class="cls-5"
         x="157.64999"
         y="29.139999"
         width="519.84003"
         height="519.84003"
         rx="21.969999"
         ry="21.969999"
         id="rect5" />
    </g>
    <g
       id="HATCH-3"
       data-name="HATCH">
      <path
         class="cls-2"
         d="M 626.48,492 H 208.67 c -3.3,0 -5.97,2.67 -5.97,5.97 0,3.3 2.67,5.97 5.97,5.97 h 417.81 c 3.3,0 5.97,-2.67 5.97,-5.97 0,-3.3 -2.67,-5.97 -5.97,-5.97 m 0.43,-96.72 -94.73,-149.96 c -6.29,-9.95 -17.05,-16.18 -28.81,-16.69 h -171.6 c -11.76,0.5 -22.52,6.74 -28.81,16.69 l -94.73,149.96 c -10.56,16.72 -5.57,38.84 11.15,49.4 8.83,5.58 19.66,7.02 29.65,3.96 l 61.11,-17.82 v 43.28 h 214.88 v -43.28 l 61.11,17.82 c 18.91,5.81 38.94,-4.81 44.75,-23.71 3.07,-9.99 1.62,-20.81 -3.96,-29.65 m -209.35,60.91 -98.21,-28.06 35.54,-10.36 c 14.46,-3.92 23.01,-18.83 19.08,-33.29 -3.92,-14.46 -18.83,-23.01 -33.29,-19.08 l -30.55,9.36 v -97.62 l 107.44,35.81 107.44,-35.81 v 97.62 l -30.55,-9.36 c -14.46,-3.92 -29.37,4.62 -33.29,19.08 -3.92,14.46 4.62,29.37 19.08,33.29 l 35.54,10.36 -98.21,28.06 m 68.62,-313.36 c 0,-37.91 -30.73,-68.64 -68.64,-68.64 -37.91,0 -68.64,30.73 -68.64,68.64 0,37.91 30.73,68.64 68.64,68.64 37.91,0 68.64,-30.73 68.64,-68.64 z"
         id="path5" />
    </g>
    <g
       id="CIRCLE">
      <circle
         class="cls-5"
         cx="417.57001"
         cy="142.83"
         r="68.639999"
         id="circle5" />
    </g>
    <g
       id="LWPOLYLINE-3"
       data-name="LWPOLYLINE">
      <path
         class="cls-5"
         d="m 417.57,456.19 -98.21,-28.06 35.54,-10.36 c 14.46,-3.92 23.01,-18.83 19.08,-33.29 -3.93,-14.46 -18.83,-23.01 -33.29,-19.08 l -30.55,9.36 v -97.62 l 107.44,35.81 107.44,-35.81 v 97.62 l -30.55,-9.36 c -14.46,-3.92 -29.37,4.62 -33.29,19.08 -3.92,14.46 4.62,29.37 19.08,33.29 l 35.54,10.36 -98.21,28.06 z"
         id="path6" />
    </g>
    <g
       id="LWPOLYLINE-4"
       data-name="LWPOLYLINE">
      <path
         class="cls-5"
         d="M 626.48,492 H 208.67 c -3.3,0 -5.97,2.67 -5.97,5.97 0,3.3 2.67,5.97 5.97,5.97 h 417.81 c 3.3,0 5.97,-2.67 5.97,-5.97 0,-3.3 -2.67,-5.97 -5.97,-5.97 z"
         id="path7" />
    </g>
    <g
       id="LWPOLYLINE-5"
       data-name="LWPOLYLINE">
      <path
         class="cls-5"
         d="M 626.91,395.28 532.18,245.32 c -6.29,-9.95 -17.05,-16.18 -28.81,-16.69 h -171.6 c -11.76,0.5 -22.52,6.74 -28.81,16.69 l -94.73,149.96 c -10.56,16.72 -5.57,38.84 11.15,49.4 8.83,5.58 19.66,7.02 29.65,3.96 l 61.11,-17.82 v 43.28 h 214.88 v -43.28 l 61.11,17.82 c 18.91,5.81 38.94,-4.81 44.75,-23.71 3.07,-9.99 1.62,-20.81 -3.96,-29.65 z"
         id="path8" />
    </g>
  </g>
</svg>
