<?xml version="1.0" encoding="UTF-8" standalone="no"?>
<svg
   viewBox="0 0 550.13 550.13"
   version="1.1"
   id="svg17"
   sodipodi:docname="SIS-32_30x30.svg"
   width="550.13"
   height="550.13"
   xmlns:inkscape="http://www.inkscape.org/namespaces/inkscape"
   xmlns:sodipodi="http://sodipodi.sourceforge.net/DTD/sodipodi-0.dtd"
   xmlns="http://www.w3.org/2000/svg"
   xmlns:svg="http://www.w3.org/2000/svg">
  <sodipodi:namedview
     id="namedview17"
     pagecolor="#50505000"
     bordercolor="#ffffffff"
     borderopacity="1"
     inkscape:showpageshadow="0"
     inkscape:pageopacity="0"
     inkscape:pagecheckerboard="1"
     inkscape:deskcolor="#505050ff"
     showgrid="false"
     inkscape:zoom="0.72112748"
     inkscape:cx="274.57004"
     inkscape:cy="533.19283"
     inkscape:window-width="1920"
     inkscape:window-height="1009"
     inkscape:window-maximized="1"
     inkscape:current-layer="svg17" />
  <defs
     id="defs1">
    <style
       id="style1">
      .cls-1 {
        fill: #32479d;
      }

      .cls-2 {
        fill-rule: evenodd;
      }

      .cls-2, .cls-3 {
        fill: #fff;
      }

      .cls-3, .cls-4 {
        stroke: #000;
      }

      .cls-3, .cls-4, .cls-5 {
        stroke-linecap: round;
        stroke-linejoin: round;
      }

      .cls-4, .cls-5 {
        fill: none;
      }

      .cls-5 {
        stroke: #fff;
      }
    </style>
  </defs>
  <g
     id="sis_Fondo_del_tablero"
     data-name="sis_Fondo del tablero"
     transform="translate(-142.51,-14)">
    <g
       id="HATCH">
      <rect
         class="cls-1"
         x="157.65"
         y="29.14"
         width="519.84"
         height="519.84"
         rx="21.97"
         ry="21.97"
         id="rect14" />
    </g>
  </g>
  <g
     id="sis_Pictograma_y_filete"
     data-name="sis_Pictograma y filete"
     transform="translate(-142.51,-14)">
    <g
       id="HATCH-2"
       data-name="HATCH">
      <path
         class="cls-2"
         d="m 179.62,548.99 h 475.91 c 12.13,0 21.97,-9.83 21.97,-21.97 V 51.11 c 0,-12.13 -9.83,-21.97 -21.97,-21.97 H 179.62 c -12.13,0 -21.97,9.83 -21.97,21.97 v 475.91 c 0,12.13 9.83,21.97 21.97,21.97 m 0,14.64 h 475.91 c 20.22,0 36.61,-16.39 36.61,-36.61 V 51.11 C 692.14,30.89 675.75,14.5 655.53,14.5 H 179.62 c -20.22,0 -36.61,16.39 -36.61,36.61 v 475.91 c 0,20.22 16.39,36.61 36.61,36.61 z"
         id="path15" />
    </g>
    <g
       id="LWPOLYLINE">
      <rect
         class="cls-4"
         x="143.01"
         y="14.5"
         width="549.13"
         height="549.13"
         rx="36.61"
         ry="36.61"
         id="rect15" />
    </g>
    <g
       id="LWPOLYLINE-2"
       data-name="LWPOLYLINE">
      <rect
         class="cls-5"
         x="157.65"
         y="29.14"
         width="519.84"
         height="519.84"
         rx="21.97"
         ry="21.97"
         id="rect16" />
    </g>
    <g
       id="HATCH-3"
       data-name="HATCH">
      <path
         class="cls-2"
         d="m 202.7,384.57 h 429.75 v 17.91 H 202.7 v -17.91 m 215.13,-160.39 -88.88,-60.96 -27.36,11.92 50.05,71.86 -64.23,22.15 -51.37,-39.11 -35.8,6.03 40.47,80.75 9.73,28.21 126.09,-37.16 3.84,11.14 c 35.86,-3.78 70.4,-15.64 101.02,-34.68 -0.9,-3.88 -2,-7.72 -3.29,-11.48 l 107.21,-36.97 c 21.53,-7.42 39.09,-23.31 48.63,-43.98 2.76,-5.99 0.15,-13.08 -5.84,-15.84 -0.13,-0.06 -0.26,-0.12 -0.39,-0.17 -20.29,-8.51 -43.01,-9.25 -63.81,-2.08 l -146.08,50.37 z"
         id="path16" />
    </g>
    <g
       id="LWPOLYLINE-3"
       data-name="LWPOLYLINE">
      <path
         class="cls-5"
         d="m 417.83,224.18 -88.88,-60.96 -27.36,11.92 50.05,71.86 -64.23,22.15 -51.37,-39.11 -35.8,6.03 40.47,80.75 9.73,28.21 126.09,-37.16 3.84,11.14 c 35.86,-3.78 70.4,-15.64 101.02,-34.68 -0.9,-3.88 -2,-7.72 -3.29,-11.48 l 107.21,-36.97 c 21.53,-7.42 39.09,-23.31 48.63,-43.98 2.76,-5.99 0.15,-13.08 -5.84,-15.84 -0.13,-0.06 -0.26,-0.12 -0.39,-0.17 -20.29,-8.51 -43.01,-9.25 -63.81,-2.08 l -146.08,50.37 z"
         id="path17" />
    </g>
    <g
       id="LWPOLYLINE-4"
       data-name="LWPOLYLINE">
      <rect
         class="cls-5"
         x="202.7"
         y="384.57"
         width="429.75"
         height="17.91"
         id="rect17" />
    </g>
  </g>
</svg>
