<?xml version="1.0" encoding="UTF-8" standalone="no"?>
<!-- Created with Inkscape (http://www.inkscape.org/) -->

<svg
   width="714mm"
   height="714mm"
   viewBox="0 0 714 714"
   version="1.1"
   id="svg42728"
   inkscape:version="1.2.1 (9c6d41e410, 2022-07-14)"
   sodipodi:docname="Mexico road sign SIS-14 (2023).svg"
   xmlns:inkscape="http://www.inkscape.org/namespaces/inkscape"
   xmlns:sodipodi="http://sodipodi.sourceforge.net/DTD/sodipodi-0.dtd"
   xmlns="http://www.w3.org/2000/svg"
   xmlns:svg="http://www.w3.org/2000/svg">
  <sodipodi:namedview
     id="namedview42730"
     pagecolor="#ffffff"
     bordercolor="#000000"
     borderopacity="0.25"
     inkscape:showpageshadow="2"
     inkscape:pageopacity="0.0"
     inkscape:pagecheckerboard="0"
     inkscape:deskcolor="#d1d1d1"
     inkscape:document-units="mm"
     showgrid="false"
     inkscape:zoom="0.76257015"
     inkscape:cx="1390.6917"
     inkscape:cy="1315.9445"
     inkscape:window-width="1920"
     inkscape:window-height="991"
     inkscape:window-x="-9"
     inkscape:window-y="-9"
     inkscape:window-maximized="1"
     inkscape:current-layer="layer1" />
  <defs
     id="defs42725" />
  <g
     inkscape:label="Livello 1"
     inkscape:groupmode="layer"
     id="layer1"
     transform="translate(262.62616,217.52146)">
    <g
       id="g16714"
       transform="translate(-18442.567,-16724.885)">
      <g
         id="g489-1-9-0-8-0-4-1-67"
         transform="translate(15812.434,12551.636)">
        <rect
           style="fill:#000000;stroke-width:3.70491;stroke-opacity:0.578462;paint-order:fill markers stroke"
           id="rect20798-0-7-9-3-3-6-2-8-3-9-2-29"
           width="714"
           height="714"
           x="-4669.7275"
           y="2367.5068"
           ry="42"
           rx="42"
           transform="rotate(-90)" />
        <rect
           style="fill:#ffffff;stroke-width:3.68415;stroke-opacity:0.578462;paint-order:fill markers stroke"
           id="rect20798-0-7-9-5-8-9-1-0-1-5-6"
           width="710"
           height="710"
           x="-4667.7271"
           y="2369.5068"
           ry="40"
           rx="40"
           transform="rotate(-90)" />
        <rect
           style="fill:#32479d;stroke-width:3.47659;stroke-opacity:0.578462;paint-order:fill markers stroke"
           id="rect20798-4-7-0-6-3-4-1-2-1-9-3-8"
           width="670"
           height="670"
           x="-4647.7275"
           y="2389.5063"
           ry="20"
           rx="20"
           transform="rotate(-90)" />
      </g>
      <path
         id="rect14818-2"
         style="fill:#ffffff;stroke-width:19.785;paint-order:fill markers stroke"
         d="m 18420.879,16748.326 c -11.068,0 -19.969,8.918 -19.969,19.986 v 31.222 c 0,11.068 8.901,19.969 19.969,19.969 h 44.238 v 248.229 c 0,9.589 -6.701,17.567 -15.72,19.515 h -41.987 c -11.068,0 -19.969,8.901 -19.969,19.969 v 31.222 c 0,11.068 8.901,19.969 19.969,19.969 h 259.077 c 11.051,0 19.952,-8.901 19.952,-19.969 v -31.222 c 0,-11.068 -8.901,-19.969 -19.952,-19.969 h -43.213 c -9.036,-1.914 -15.787,-9.909 -15.787,-19.532 v -319.389 z"
         sodipodi:nodetypes="sssscscsssssssscccs" />
      <ellipse
         style="fill:#ffffff;stroke-width:19.9788;paint-order:fill markers stroke"
         id="path15070-4"
         cx="18536.986"
         cy="16654.564"
         rx="84.184196"
         ry="84.186111" />
    </g>
  </g>
</svg>
