<?xml version="1.0" encoding="UTF-8" standalone="no"?>
<!-- Created with Inkscape (http://www.inkscape.org/) -->

<svg
   width="714mm"
   height="714mm"
   viewBox="0 0 714 714"
   version="1.1"
   id="svg36339"
   inkscape:version="1.2.1 (9c6d41e410, 2022-07-14)"
   sodipodi:docname="Mexico road sign SIS-16 (2023).svg"
   xmlns:inkscape="http://www.inkscape.org/namespaces/inkscape"
   xmlns:sodipodi="http://sodipodi.sourceforge.net/DTD/sodipodi-0.dtd"
   xmlns="http://www.w3.org/2000/svg"
   xmlns:svg="http://www.w3.org/2000/svg">
  <sodipodi:namedview
     id="namedview36341"
     pagecolor="#ffffff"
     bordercolor="#000000"
     borderopacity="0.25"
     inkscape:showpageshadow="2"
     inkscape:pageopacity="0.0"
     inkscape:pagecheckerboard="0"
     inkscape:deskcolor="#d1d1d1"
     inkscape:document-units="mm"
     showgrid="false"
     inkscape:zoom="0.76257015"
     inkscape:cx="1393.3144"
     inkscape:cy="1108.7505"
     inkscape:window-width="1920"
     inkscape:window-height="991"
     inkscape:window-x="-9"
     inkscape:window-y="-9"
     inkscape:window-maximized="1"
     inkscape:current-layer="layer1" />
  <defs
     id="defs36336" />
  <g
     inkscape:label="Livello 1"
     inkscape:groupmode="layer"
     id="layer1"
     transform="translate(263.32016,272.34146)">
    <g
       id="g16721"
       transform="translate(-19303.87,-15975.223)">
      <g
         id="g489-1-9-0-8-0-4-1-6"
         transform="translate(16673.043,11747.154)">
        <rect
           style="fill:#000000;stroke-width:3.70491;stroke-opacity:0.578462;paint-order:fill markers stroke"
           id="rect20798-0-7-9-3-3-6-2-8-3-9-2-2"
           width="714"
           height="714"
           x="-4669.7275"
           y="2367.5068"
           ry="42"
           rx="42"
           transform="rotate(-90)" />
        <rect
           style="fill:#ffffff;stroke-width:3.68415;stroke-opacity:0.578462;paint-order:fill markers stroke"
           id="rect20798-0-7-9-5-8-9-1-0-1-5-8"
           width="710"
           height="710"
           x="-4667.7271"
           y="2369.5068"
           ry="40"
           rx="40"
           transform="rotate(-90)" />
        <rect
           style="fill:#32479d;stroke-width:3.47659;stroke-opacity:0.578462;paint-order:fill markers stroke"
           id="rect20798-4-7-0-6-3-4-1-2-1-9-3-4"
           width="670"
           height="670"
           x="-4647.7275"
           y="2389.5063"
           ry="20"
           rx="20"
           transform="rotate(-90)" />
      </g>
      <path
         id="path17711-2-0"
         style="fill:#ffffff;stroke-width:24.0439;paint-order:fill markers stroke"
         d="m 19160.368,16178.163 c -39.628,39.662 -46.319,87.138 -46.319,87.138 l 17.507,17.491 67.852,-67.852 43.083,43.083 -67.852,67.852 17.491,17.508 c 0,0 47.477,-6.691 87.139,-46.319 39.628,-39.629 4.913,-72.867 4.913,-72.867 l 277.681,-277.68 c 0,0 33.221,34.714 72.849,-4.914 39.662,-39.662 46.337,-87.138 46.337,-87.138 l -17.508,-17.491 -67.835,67.852 -43.1,-43.1 67.852,-67.835 -17.491,-17.508 c 0,0 -47.476,6.674 -87.138,46.336 -39.629,39.628 -4.914,72.85 -4.914,72.85 l -277.68,277.68 c 0,0 -33.239,-34.714 -72.867,4.914 z"
         sodipodi:nodetypes="sccccccsccsccccccsccs" />
    </g>
  </g>
</svg>
