<?xml version="1.0" encoding="UTF-8" standalone="no"?>
<svg
   viewBox="0 0 550.13 550.13001"
   version="1.1"
   id="svg18"
   sodipodi:docname="SIS-30_30x30.svg"
   width="550.13"
   height="550.13"
   inkscape:version="1.4.2 (f4327f4, 2025-05-13)"
   xmlns:inkscape="http://www.inkscape.org/namespaces/inkscape"
   xmlns:sodipodi="http://sodipodi.sourceforge.net/DTD/sodipodi-0.dtd"
   xmlns="http://www.w3.org/2000/svg"
   xmlns:svg="http://www.w3.org/2000/svg">
  <sodipodi:namedview
     id="namedview18"
     pagecolor="#50505000"
     bordercolor="#ffffffff"
     borderopacity="1"
     inkscape:showpageshadow="0"
     inkscape:pageopacity="0"
     inkscape:pagecheckerboard="1"
     inkscape:deskcolor="#505050ff"
     inkscape:zoom="0.45241838"
     inkscape:cx="276.29293"
     inkscape:cy="533.79794"
     inkscape:window-width="1366"
     inkscape:window-height="697"
     inkscape:window-x="-8"
     inkscape:window-y="-8"
     inkscape:window-maximized="1"
     inkscape:current-layer="svg18" />
  <defs
     id="defs1">
    <style
       id="style1">
      .cls-1 {
        fill: #32479d;
      }

      .cls-2 {
        fill-rule: evenodd;
      }

      .cls-2, .cls-3 {
        fill: #fff;
      }

      .cls-3, .cls-4 {
        stroke: #000;
      }

      .cls-3, .cls-4, .cls-5 {
        stroke-linecap: round;
        stroke-linejoin: round;
      }

      .cls-4, .cls-5 {
        fill: none;
      }

      .cls-5 {
        stroke: #fff;
      }
    </style>
  </defs>
  <g
     id="sis_Fondo_del_tablero"
     data-name="sis_Fondo del tablero"
     transform="translate(-142.50999,-14)">
    <g
       id="HATCH">
      <rect
         class="cls-1"
         x="157.64999"
         y="29.139999"
         width="519.84003"
         height="519.84003"
         rx="21.969999"
         ry="21.969999"
         id="rect14" />
    </g>
  </g>
  <g
     id="sis_Pictograma_y_filete"
     data-name="sis_Pictograma y filete"
     transform="translate(-142.50999,-14)">
    <g
       id="HATCH-2"
       data-name="HATCH">
      <path
         class="cls-2"
         d="m 179.62,548.99 h 475.91 c 12.13,0 21.97,-9.83 21.97,-21.97 V 51.11 c 0,-12.13 -9.83,-21.97 -21.97,-21.97 H 179.62 c -12.13,0 -21.97,9.83 -21.97,21.97 v 475.91 c 0,12.13 9.83,21.97 21.97,21.97 m 0,14.64 h 475.91 c 20.22,0 36.61,-16.39 36.61,-36.61 V 51.11 C 692.14,30.89 675.75,14.5 655.53,14.5 H 179.62 c -20.22,0 -36.61,16.39 -36.61,36.61 v 475.91 c 0,20.22 16.39,36.61 36.61,36.61 z"
         id="path15" />
    </g>
    <g
       id="LWPOLYLINE">
      <rect
         class="cls-4"
         x="143.00999"
         y="14.5"
         width="549.13"
         height="549.13"
         rx="36.610001"
         ry="36.610001"
         id="rect15" />
    </g>
    <g
       id="LWPOLYLINE-2"
       data-name="LWPOLYLINE">
      <rect
         class="cls-5"
         x="157.64999"
         y="29.139999"
         width="519.84003"
         height="519.84003"
         rx="21.969999"
         ry="21.969999"
         id="rect16" />
    </g>
    <g
       id="HATCH-3"
       data-name="HATCH">
      <path
         class="cls-2"
         d="m 572.76,354.72 -5.97,29.84 11.94,5.97 11.94,-5.97 -5.97,-29.84 v -7.57 c 5.71,-3.3 7.67,-10.6 4.37,-16.31 -1.05,-1.81 -2.55,-3.32 -4.37,-4.37 V 211.46 h 23.88 V 187.58 H 226.57 v 23.88 h 346.19 v 115.01 c -5.71,3.3 -7.67,10.6 -4.37,16.31 1.05,1.81 2.55,3.32 4.37,4.37 v 7.57 M 310.14,223.41 v 108.25 c 69.81,22.79 145.06,22.79 214.88,0 V 223.41 Z"
         id="path16" />
    </g>
    <g
       id="LWPOLYLINE-3"
       data-name="LWPOLYLINE">
      <path
         class="cls-5"
         d="m 310.14,223.41 v 108.25 c 69.81,22.79 145.06,22.79 214.88,0 V 223.41 Z"
         id="path17" />
    </g>
    <g
       id="LWPOLYLINE-4"
       data-name="LWPOLYLINE">
      <path
         class="cls-5"
         d="m 572.76,354.72 -5.97,29.84 11.94,5.97 11.94,-5.97 -5.97,-29.84 v -7.57 c 5.71,-3.3 7.67,-10.6 4.37,-16.31 -1.05,-1.81 -2.55,-3.32 -4.37,-4.37 V 211.46 h 23.88 V 187.58 H 226.57 v 23.88 h 346.19 v 115.01 c -5.71,3.3 -7.67,10.6 -4.37,16.31 1.05,1.81 2.55,3.32 4.37,4.37 z"
         id="path18" />
    </g>
  </g>
</svg>
