<?xml version="1.0" encoding="UTF-8" standalone="no"?>
<svg
   viewBox="0 0 550.13 550.13"
   version="1.1"
   id="svg19"
   sodipodi:docname="SIS-31_30x30.svg"
   width="550.13"
   height="550.13"
   xmlns:inkscape="http://www.inkscape.org/namespaces/inkscape"
   xmlns:sodipodi="http://sodipodi.sourceforge.net/DTD/sodipodi-0.dtd"
   xmlns="http://www.w3.org/2000/svg"
   xmlns:svg="http://www.w3.org/2000/svg">
  <sodipodi:namedview
     id="namedview19"
     pagecolor="#50505000"
     bordercolor="#ffffffff"
     borderopacity="1"
     inkscape:showpageshadow="0"
     inkscape:pageopacity="0"
     inkscape:pagecheckerboard="1"
     inkscape:deskcolor="#505050ff"
     showgrid="false"
     inkscape:zoom="0.72112748"
     inkscape:cx="274.57004"
     inkscape:cy="533.19283"
     inkscape:window-width="1920"
     inkscape:window-height="1009"
     inkscape:window-maximized="1"
     inkscape:current-layer="svg19" />
  <defs
     id="defs1">
    <style
       id="style1">
      .cls-1 {
        fill: #32479d;
      }

      .cls-2 {
        fill-rule: evenodd;
      }

      .cls-2, .cls-3 {
        fill: #fff;
      }

      .cls-3, .cls-4 {
        stroke: #000;
      }

      .cls-3, .cls-4, .cls-5 {
        stroke-linecap: round;
        stroke-linejoin: round;
      }

      .cls-4, .cls-5 {
        fill: none;
      }

      .cls-5 {
        stroke: #fff;
      }
    </style>
  </defs>
  <g
     id="sis_Fondo_del_tablero"
     data-name="sis_Fondo del tablero"
     transform="translate(-142.51,-14)">
    <g
       id="HATCH">
      <rect
         class="cls-1"
         x="157.65"
         y="29.14"
         width="519.84"
         height="519.84"
         rx="21.97"
         ry="21.97"
         id="rect14" />
    </g>
  </g>
  <g
     id="sis_Pictograma_y_filete"
     data-name="sis_Pictograma y filete"
     transform="translate(-142.51,-14)">
    <g
       id="HATCH-2"
       data-name="HATCH">
      <path
         class="cls-2"
         d="m 179.62,548.99 h 475.91 c 12.13,0 21.97,-9.83 21.97,-21.97 V 51.11 c 0,-12.13 -9.83,-21.97 -21.97,-21.97 H 179.62 c -12.13,0 -21.97,9.83 -21.97,21.97 v 475.91 c 0,12.13 9.83,21.97 21.97,21.97 m 0,14.64 h 475.91 c 20.22,0 36.61,-16.39 36.61,-36.61 V 51.11 C 692.14,30.89 675.75,14.5 655.53,14.5 H 179.62 c -20.22,0 -36.61,16.39 -36.61,36.61 v 475.91 c 0,20.22 16.39,36.61 36.61,36.61 z"
         id="path15" />
    </g>
    <g
       id="LWPOLYLINE">
      <rect
         class="cls-4"
         x="143.01"
         y="14.5"
         width="549.13"
         height="549.13"
         rx="36.61"
         ry="36.61"
         id="rect15" />
    </g>
    <g
       id="LWPOLYLINE-2"
       data-name="LWPOLYLINE">
      <rect
         class="cls-5"
         x="157.65"
         y="29.14"
         width="519.84"
         height="519.84"
         rx="21.97"
         ry="21.97"
         id="rect16" />
    </g>
    <g
       id="HATCH-3"
       data-name="HATCH">
      <path
         class="cls-2"
         d="m 417.25,263.97 57.12,-91.39 h 29.84 l -17.17,85.87 67.73,-5.36 31.46,-56.38 35.23,-8.77 -4.84,90.19 2.35,29.75 -130.43,16.31 0.93,11.75 c -34.39,10.86 -70.78,13.79 -106.46,8.57 -0.73,-3.92 -1.25,-7.87 -1.57,-11.84 l -113.05,8.94 c -22.7,1.8 -45.15,-5.75 -62.15,-20.89 -0.1,-0.09 -0.21,-0.19 -0.31,-0.29 -4.77,-4.55 -4.94,-12.11 -0.38,-16.88 15.2,-15.91 35.73,-25.66 57.67,-27.4 L 417.26,263.96 M 450.4,356 c 0,-5.34 -4.33,-9.67 -9.67,-9.67 -5.34,0 -9.67,4.33 -9.67,9.67 0,5.34 4.33,9.67 9.67,9.67 5.34,0 9.67,-4.33 9.67,-9.67 m -24.85,1.12 c 0,-5.34 -4.33,-9.67 -9.67,-9.67 -5.34,0 -9.67,4.33 -9.67,9.67 0,5.34 4.33,9.67 9.67,9.67 5.34,0 9.67,-4.33 9.67,-9.67 M 202.7,384.57 h 429.75 v 17.91 H 202.7 c 0,0 0,-17.91 0,-17.91 m 83.19,-33.47 c 0,-5.34 -4.33,-9.67 -9.67,-9.67 -5.34,0 -9.67,4.33 -9.67,9.67 0,5.34 4.33,9.67 9.67,9.67 5.34,0 9.67,-4.33 9.67,-9.67 z"
         id="path16" />
    </g>
    <g
       id="LWPOLYLINE-3"
       data-name="LWPOLYLINE">
      <rect
         class="cls-5"
         x="202.7"
         y="384.57"
         width="429.75"
         height="17.91"
         id="rect17" />
    </g>
    <g
       id="CIRCLE">
      <circle
         class="cls-5"
         cx="276.22"
         cy="351.1"
         r="9.67"
         id="circle17" />
    </g>
    <g
       id="CIRCLE-2"
       data-name="CIRCLE">
      <circle
         class="cls-5"
         cx="415.89"
         cy="357.12"
         r="9.67"
         id="circle18" />
    </g>
    <g
       id="CIRCLE-3"
       data-name="CIRCLE">
      <circle
         class="cls-5"
         cx="440.74"
         cy="356"
         r="9.67"
         id="circle19" />
    </g>
    <g
       id="LWPOLYLINE-4"
       data-name="LWPOLYLINE">
      <path
         class="cls-5"
         d="m 417.25,263.97 57.12,-91.39 h 29.84 l -17.17,85.87 67.73,-5.36 31.46,-56.38 35.23,-8.77 -4.84,90.19 2.35,29.75 -130.43,16.31 0.93,11.75 c -34.39,10.86 -70.78,13.79 -106.46,8.57 -0.73,-3.92 -1.25,-7.87 -1.57,-11.84 l -113.05,8.94 c -22.7,1.8 -45.15,-5.75 -62.15,-20.89 -0.1,-0.09 -0.21,-0.19 -0.31,-0.29 -4.77,-4.55 -4.94,-12.11 -0.38,-16.88 15.2,-15.91 35.73,-25.66 57.67,-27.4 l 154.04,-12.19 z"
         id="path19" />
    </g>
  </g>
</svg>
