<?xml version="1.0" encoding="UTF-8" standalone="no"?>
<svg
   viewBox="0 0 550.13 550.13001"
   version="1.1"
   id="svg8"
   sodipodi:docname="SIS-26_30x30.svg"
   width="550.13"
   height="550.13"
   inkscape:version="1.4.2 (f4327f4, 2025-05-13)"
   xmlns:inkscape="http://www.inkscape.org/namespaces/inkscape"
   xmlns:sodipodi="http://sodipodi.sourceforge.net/DTD/sodipodi-0.dtd"
   xmlns="http://www.w3.org/2000/svg"
   xmlns:svg="http://www.w3.org/2000/svg">
  <sodipodi:namedview
     id="namedview8"
     pagecolor="#50505000"
     bordercolor="#ffffffff"
     borderopacity="1"
     inkscape:showpageshadow="0"
     inkscape:pageopacity="0"
     inkscape:pagecheckerboard="1"
     inkscape:deskcolor="#505050ff"
     inkscape:zoom="0.45241838"
     inkscape:cx="276.29293"
     inkscape:cy="533.79794"
     inkscape:window-width="1366"
     inkscape:window-height="697"
     inkscape:window-x="-8"
     inkscape:window-y="-8"
     inkscape:window-maximized="1"
     inkscape:current-layer="svg8" />
  <defs
     id="defs1">
    <style
       id="style1">
      .cls-1 {
        fill: #32479d;
      }

      .cls-2 {
        fill-rule: evenodd;
      }

      .cls-2, .cls-3 {
        fill: #fff;
      }

      .cls-3, .cls-4 {
        stroke: #000;
      }

      .cls-3, .cls-4, .cls-5 {
        stroke-linecap: round;
        stroke-linejoin: round;
      }

      .cls-4, .cls-5 {
        fill: none;
      }

      .cls-5 {
        stroke: #fff;
      }

      .cls-6 {
        font-family: ArialMT, Arial;
        font-size: 155.12px;
      }
    </style>
  </defs>
  <g
     id="sis_Fondo_del_tablero"
     data-name="sis_Fondo del tablero"
     transform="translate(-142.50999,-14)">
    <g
       id="HATCH">
      <rect
         class="cls-1"
         x="157.64999"
         y="29.139999"
         width="519.84003"
         height="519.84003"
         rx="21.969999"
         ry="21.969999"
         id="rect3" />
    </g>
  </g>
  <g
     id="sis_Pictograma_y_filete"
     data-name="sis_Pictograma y filete"
     transform="translate(-142.50999,-14)">
    <g
       id="HATCH-2"
       data-name="HATCH">
      <path
         class="cls-2"
         d="m 179.62,548.99 h 475.91 c 12.13,0 21.97,-9.83 21.97,-21.97 V 51.11 c 0,-12.13 -9.83,-21.97 -21.97,-21.97 H 179.62 c -12.13,0 -21.97,9.83 -21.97,21.97 v 475.91 c 0,12.13 9.83,21.97 21.97,21.97 m 0,14.64 h 475.91 c 20.22,0 36.61,-16.39 36.61,-36.61 V 51.11 C 692.14,30.89 675.75,14.5 655.53,14.5 H 179.62 c -20.22,0 -36.61,16.39 -36.61,36.61 v 475.91 c 0,20.22 16.39,36.61 36.61,36.61 z"
         id="path3" />
    </g>
    <g
       id="LWPOLYLINE">
      <rect
         class="cls-4"
         x="143.00999"
         y="14.5"
         width="549.13"
         height="549.13"
         rx="36.610001"
         ry="36.610001"
         id="rect4" />
    </g>
    <g
       id="LWPOLYLINE-2"
       data-name="LWPOLYLINE">
      <rect
         class="cls-5"
         x="157.64999"
         y="29.139999"
         width="519.84003"
         height="519.84003"
         rx="21.969999"
         ry="21.969999"
         id="rect5" />
    </g>
    <g
       id="HATCH-3"
       data-name="HATCH">
      <path
         class="cls-2"
         d="M 476.66,196.21 464,183.55 c -6.72,-6.72 -7.02,-17.52 -0.68,-24.6 l 71.75,-80.19 c 0.22,-0.25 0.45,-0.49 0.68,-0.72 6.99,-6.99 18.33,-6.99 25.32,0 l 12.66,12.66 c 1.41,1.41 2.75,2.88 4.03,4.41 l -101.1,101.1 M 223.62,449.25 c -1.53,-1.28 -3,-2.62 -4.41,-4.03 l -12.66,-12.66 c -0.23,-0.23 -0.46,-0.47 -0.68,-0.72 -6.59,-7.37 -5.97,-18.69 1.4,-25.28 l 80.19,-71.75 c 7.08,-6.34 17.88,-6.04 24.6,0.68 l 12.66,12.66 -101.1,101.1 m 265.7,-240.38 98.12,-98.12 c 7.56,17.25 7.35,36.92 -0.57,54 l -21.32,45.94 C 519.23,310.51 439.04,390.7 339.22,437.02 l -45.94,21.32 c -17.09,7.93 -36.75,8.14 -54,0.57 l 98.12,-98.12 4.22,4.22 151.94,-151.94 -4.22,-4.22 z"
         id="path5" />
    </g>
    <g
       id="LWPOLYLINE-3"
       data-name="LWPOLYLINE">
      <path
         class="cls-5"
         d="m 489.32,208.87 98.12,-98.12 c 7.56,17.25 7.35,36.92 -0.57,54 l -21.32,45.94 C 519.23,310.51 439.04,390.7 339.22,437.02 l -45.94,21.32 c -17.09,7.93 -36.75,8.14 -54,0.57 l 98.12,-98.12 4.22,4.22 151.94,-151.94 -4.22,-4.22 z"
         id="path6" />
    </g>
    <g
       id="LWPOLYLINE-4"
       data-name="LWPOLYLINE">
      <path
         class="cls-5"
         d="m 223.62,449.25 c -1.53,-1.28 -3,-2.62 -4.41,-4.03 l -12.66,-12.66 c -0.23,-0.23 -0.46,-0.47 -0.68,-0.72 -6.59,-7.37 -5.97,-18.69 1.4,-25.28 l 80.19,-71.75 c 7.08,-6.34 17.88,-6.04 24.6,0.68 l 12.66,12.66 z"
         id="path7" />
    </g>
    <g
       id="LWPOLYLINE-5"
       data-name="LWPOLYLINE">
      <path
         class="cls-5"
         d="M 476.66,196.21 464,183.55 c -6.72,-6.72 -7.02,-17.52 -0.68,-24.6 l 71.75,-80.19 c 0.22,-0.25 0.45,-0.49 0.68,-0.72 6.99,-6.99 18.33,-6.99 25.32,0 l 12.66,12.66 c 1.41,1.41 2.75,2.88 4.03,4.41 0,0 -101.1,101.1 -101.1,101.1 z"
         id="path8" />
    </g>
  </g>
</svg>
