<?xml version="1.0" encoding="UTF-8" standalone="no"?>
<svg
   viewBox="0 0 550.13 550.13001"
   version="1.1"
   id="svg20"
   sodipodi:docname="SIS-24C_30x30.svg"
   width="550.13"
   height="550.13"
   inkscape:version="1.5-dev (b025170, 2024-11-19, custom)"
   xmlns:inkscape="http://www.inkscape.org/namespaces/inkscape"
   xmlns:sodipodi="http://sodipodi.sourceforge.net/DTD/sodipodi-0.dtd"
   xmlns="http://www.w3.org/2000/svg"
   xmlns:svg="http://www.w3.org/2000/svg">
  <sodipodi:namedview
     id="namedview20"
     pagecolor="#50505000"
     bordercolor="#ffffffff"
     borderopacity="1"
     inkscape:showpageshadow="0"
     inkscape:pageopacity="0"
     inkscape:pagecheckerboard="1"
     inkscape:deskcolor="#505050ff"
     inkscape:zoom="0.43962271"
     inkscape:cx="275.23601"
     inkscape:cy="533.41193"
     inkscape:window-width="1366"
     inkscape:window-height="720"
     inkscape:window-maximized="1"
     inkscape:current-layer="svg20" />
  <defs
     id="defs1">
    <style
       id="style1">
      .cls-1 {
        fill: #32479d;
      }

      .cls-2 {
        fill-rule: evenodd;
      }

      .cls-2, .cls-3 {
        fill: #fff;
      }

      .cls-3, .cls-4 {
        stroke: #000;
      }

      .cls-3, .cls-4, .cls-5 {
        stroke-linecap: round;
        stroke-linejoin: round;
      }

      .cls-4, .cls-5 {
        fill: none;
      }

      .cls-5 {
        stroke: #fff;
      }
    </style>
  </defs>
  <g
     id="sis_Fondo_del_tablero"
     data-name="sis_Fondo del tablero"
     transform="translate(-142.50999,-14)">
    <g
       id="HATCH">
      <rect
         class="cls-1"
         x="157.64999"
         y="29.139999"
         width="519.84003"
         height="519.84003"
         rx="21.969999"
         ry="21.969999"
         id="rect15" />
    </g>
  </g>
  <g
     id="sis_Pictograma_y_filete"
     data-name="sis_Pictograma y filete"
     transform="translate(-142.50999,-14)">
    <g
       id="HATCH-2"
       data-name="HATCH">
      <path
         class="cls-2"
         d="m 179.62,548.99 h 475.91 c 12.13,0 21.97,-9.83 21.97,-21.97 V 51.11 c 0,-12.13 -9.83,-21.97 -21.97,-21.97 H 179.62 c -12.13,0 -21.97,9.83 -21.97,21.97 v 475.91 c 0,12.13 9.83,21.97 21.97,21.97 m 0,14.64 h 475.91 c 20.22,0 36.61,-16.39 36.61,-36.61 V 51.11 C 692.14,30.89 675.75,14.5 655.53,14.5 H 179.62 c -20.22,0 -36.61,16.39 -36.61,36.61 v 475.91 c 0,20.22 16.39,36.61 36.61,36.61 z"
         id="path16" />
    </g>
    <g
       id="LWPOLYLINE">
      <rect
         class="cls-4"
         x="143.00999"
         y="14.5"
         width="549.13"
         height="549.13"
         rx="36.610001"
         ry="36.610001"
         id="rect16" />
    </g>
    <g
       id="LWPOLYLINE-2"
       data-name="LWPOLYLINE">
      <rect
         class="cls-5"
         x="157.64999"
         y="29.139999"
         width="519.84003"
         height="519.84003"
         rx="21.969999"
         ry="21.969999"
         id="rect17" />
    </g>
    <g
       id="HATCH-3"
       data-name="HATCH">
      <path
         class="cls-2"
         d="M 462.34,89.11 H 372.81 L 354.9,115.97 H 480.24 L 462.33,89.11 m -178.97,78.82 -9.04,91.3 h 286.5 l -9.04,-91.3 c -0.91,-9.16 -8.61,-16.14 -17.82,-16.14 H 301.18 c -9.21,0 -16.91,6.98 -17.82,16.14 m 304.32,180.82 c 0,-14.83 -12.03,-26.86 -26.86,-26.86 -14.83,0 -26.86,12.03 -26.86,26.86 0,14.83 12.03,26.86 26.86,26.86 14.83,0 26.86,-12.03 26.86,-26.86 m -286.5,0 c 0,-14.83 -12.03,-26.86 -26.86,-26.86 -14.83,0 -26.86,12.03 -26.86,26.86 0,14.83 12.03,26.86 26.86,26.86 14.83,0 26.86,-12.03 26.86,-26.86 M 551.87,492 h 26.86 c 9.89,0 17.91,-8.02 17.91,-17.91 v -53.72 h 17.91 c 9.89,0 17.91,-8.02 17.91,-17.91 V 295.02 c 0,-19.78 -16.03,-35.81 -35.81,-35.81 l -18.7,-97.93 c -4.03,-21.1 -22.49,-36.37 -43.97,-36.37 H 301.2 c -21.49,0 -39.94,15.26 -43.97,36.37 l -18.7,97.93 c -19.78,0 -35.81,16.03 -35.81,35.81 v 107.44 c 0,9.89 8.02,17.91 17.91,17.91 h 17.91 v 53.72 c 0,9.89 8.02,17.91 17.91,17.91 h 26.86 c 9.89,0 17.91,-8.02 17.91,-17.91 V 420.37 H 534 v 53.72 c 0,9.89 8.02,17.91 17.91,17.91 z"
         id="path17" />
    </g>
    <g
       id="LWPOLYLINE-3"
       data-name="LWPOLYLINE">
      <path
         class="cls-5"
         d="m 551.87,492 h 26.86 c 9.89,0 17.91,-8.02 17.91,-17.91 v -53.72 h 17.91 c 9.89,0 17.91,-8.02 17.91,-17.91 V 295.02 c 0,-19.78 -16.03,-35.81 -35.81,-35.81 l -18.7,-97.93 c -4.03,-21.1 -22.49,-36.37 -43.97,-36.37 H 301.2 c -21.49,0 -39.94,15.26 -43.97,36.37 l -18.7,97.93 c -19.78,0 -35.81,16.03 -35.81,35.81 v 107.44 c 0,9.89 8.02,17.91 17.91,17.91 h 17.91 v 53.72 c 0,9.89 8.02,17.91 17.91,17.91 h 26.86 c 9.89,0 17.91,-8.02 17.91,-17.91 V 420.37 H 534 v 53.72 c 0,9.89 8.02,17.91 17.91,17.91 z"
         id="path18" />
    </g>
    <g
       id="LWPOLYLINE-4"
       data-name="LWPOLYLINE">
      <path
         class="cls-5"
         d="m 283.36,167.93 -9.04,91.3 h 286.5 l -9.04,-91.3 c -0.91,-9.16 -8.61,-16.14 -17.82,-16.14 H 301.18 c -9.21,0 -16.91,6.98 -17.82,16.14 z"
         id="path19" />
    </g>
    <g
       id="CIRCLE">
      <circle
         class="cls-5"
         cx="274.32001"
         cy="348.75"
         r="26.860001"
         id="circle19" />
    </g>
    <g
       id="CIRCLE-2"
       data-name="CIRCLE">
      <circle
         class="cls-5"
         cx="560.82001"
         cy="348.75"
         r="26.860001"
         id="circle20" />
    </g>
    <g
       id="LWPOLYLINE-5"
       data-name="LWPOLYLINE">
      <polygon
         class="cls-5"
         points="354.9,115.97 354.9,115.97 480.25,115.97 480.25,115.97 480.25,115.97 480.25,115.97 480.25,115.97 462.34,89.11 372.81,89.11 "
         id="polygon20" />
    </g>
  </g>
</svg>
