<?xml version="1.0" encoding="UTF-8" standalone="no"?>
<svg
   viewBox="0 0 550.13 550.13"
   version="1.1"
   id="svg17"
   sodipodi:docname="SIS-29A_30x30.svg"
   width="550.13"
   height="550.13"
   xmlns:inkscape="http://www.inkscape.org/namespaces/inkscape"
   xmlns:sodipodi="http://sodipodi.sourceforge.net/DTD/sodipodi-0.dtd"
   xmlns="http://www.w3.org/2000/svg"
   xmlns:svg="http://www.w3.org/2000/svg">
  <sodipodi:namedview
     id="namedview17"
     pagecolor="#50505000"
     bordercolor="#ffffffff"
     borderopacity="1"
     inkscape:showpageshadow="0"
     inkscape:pageopacity="0"
     inkscape:pagecheckerboard="1"
     inkscape:deskcolor="#505050ff"
     showgrid="false"
     inkscape:zoom="0.72112748"
     inkscape:cx="274.57004"
     inkscape:cy="533.19283"
     inkscape:window-width="1920"
     inkscape:window-height="1009"
     inkscape:window-maximized="1"
     inkscape:current-layer="svg17" />
  <defs
     id="defs1">
    <style
       id="style1">
      .cls-1 {
        fill: #32479d;
      }

      .cls-2, .cls-3, .cls-4 {
        fill: #fff;
      }

      .cls-3 {
        fill-rule: evenodd;
      }

      .cls-4, .cls-5 {
        stroke: #000;
      }

      .cls-4, .cls-5, .cls-6 {
        stroke-linecap: round;
        stroke-linejoin: round;
      }

      .cls-5, .cls-6 {
        fill: none;
      }

      .cls-6 {
        stroke: #fff;
      }
    </style>
  </defs>
  <g
     id="sis_Fondo_del_tablero"
     data-name="sis_Fondo del tablero"
     transform="translate(-142.51,-14)">
    <g
       id="HATCH">
      <rect
         class="cls-1"
         x="157.65"
         y="29.14"
         width="519.84"
         height="519.84"
         rx="21.97"
         ry="21.97"
         id="rect15" />
    </g>
  </g>
  <g
     id="HATCH-2"
     data-name="HATCH"
     transform="translate(-142.51,-14)">
    <path
       class="cls-3"
       d="m 179.62,548.99 h 475.91 c 12.13,0 21.97,-9.83 21.97,-21.97 V 51.11 c 0,-12.13 -9.83,-21.97 -21.97,-21.97 H 179.62 c -12.13,0 -21.97,9.83 -21.97,21.97 v 475.91 c 0,12.13 9.83,21.97 21.97,21.97 m 0,14.64 h 475.91 c 20.22,0 36.61,-16.39 36.61,-36.61 V 51.11 C 692.14,30.89 675.75,14.5 655.53,14.5 H 179.62 c -20.22,0 -36.61,16.39 -36.61,36.61 v 475.91 c 0,20.22 16.39,36.61 36.61,36.61 z"
       id="path16" />
  </g>
  <g
     id="LWPOLYLINE"
     transform="translate(-142.51,-14)">
    <rect
       class="cls-5"
       x="143.01"
       y="14.5"
       width="549.13"
       height="549.13"
       rx="36.61"
       ry="36.61"
       id="rect16" />
  </g>
  <g
     id="LWPOLYLINE-2"
     data-name="LWPOLYLINE"
     transform="translate(-142.51,-14)">
    <rect
       class="cls-6"
       x="157.65"
       y="29.14"
       width="519.84"
       height="519.84"
       rx="21.97"
       ry="21.97"
       id="rect17" />
  </g>
  <g
     id="MTEXT-2"
     data-name="MTEXT"
     transform="translate(-153.5,24.95)">
    <path
       class="cls-2"
       d="m 473.13,316.77 c 0,-20.97 -14.86,-41.07 -39.33,-45.01 l -11.36,-1.75 c -51.56,-7.87 -99.63,-37.58 -99.63,-92.2 0,-54.62 44.13,-82.59 86.52,-89.58 l -4.37,-36.27 h 55.49 l -3.93,35.39 c 21.85,2.62 46.76,9.18 65.98,20.54 l -22.72,46.75 c -16.6,-8.3 -46.32,-14.42 -66.86,-14.42 -24.91,0 -48.94,4.37 -48.94,32.77 0,20.1 20.1,29.28 33.21,32.77 l 32.34,8.74 c 42.82,11.36 86.52,38.02 86.52,94.38 0,56.36 -40.2,89.58 -79.96,99.19 l 4.37,40.2 h -55.49 l 4.81,-37.58 c -36.71,-3.93 -66.42,-17.04 -88.7,-34.52 l 22.72,-46.76 c 21.41,10.92 54.18,27.97 93.95,27.97 13.98,0 35.39,-13.55 35.39,-40.64 z"
       id="path17" />
  </g>
</svg>
