<?xml version="1.0" encoding="UTF-8" standalone="no"?>
<svg
   viewBox="0 0 550.13 550.13001"
   version="1.1"
   id="svg33"
   sodipodi:docname="SIS-19A_30x30.svg"
   width="550.13"
   height="550.13"
   inkscape:version="1.4.2 (f4327f4, 2025-05-13)"
   xmlns:inkscape="http://www.inkscape.org/namespaces/inkscape"
   xmlns:sodipodi="http://sodipodi.sourceforge.net/DTD/sodipodi-0.dtd"
   xmlns="http://www.w3.org/2000/svg"
   xmlns:svg="http://www.w3.org/2000/svg">
  <sodipodi:namedview
     id="namedview33"
     pagecolor="#50505000"
     bordercolor="#ffffffff"
     borderopacity="1"
     inkscape:showpageshadow="0"
     inkscape:pageopacity="0"
     inkscape:pagecheckerboard="1"
     inkscape:deskcolor="#505050ff"
     inkscape:zoom="1.0403446"
     inkscape:cx="270.58341"
     inkscape:cy="283.07927"
     inkscape:window-width="1366"
     inkscape:window-height="697"
     inkscape:window-x="-8"
     inkscape:window-y="-8"
     inkscape:window-maximized="1"
     inkscape:current-layer="svg33" />
  <defs
     id="defs1">
    <style
       id="style1">
      .cls-1 {
        fill: #32479d;
      }

      .cls-2 {
        fill-rule: evenodd;
      }

      .cls-2, .cls-3 {
        fill: #fff;
      }

      .cls-3, .cls-4 {
        stroke: #000;
      }

      .cls-3, .cls-4, .cls-5 {
        stroke-linecap: round;
        stroke-linejoin: round;
      }

      .cls-4, .cls-5 {
        fill: none;
      }

      .cls-5 {
        stroke: #fff;
      }
    </style>
  </defs>
  <g
     id="sis_Fondo_del_tablero"
     data-name="sis_Fondo del tablero"
     transform="translate(-142.50999,-14)">
    <g
       id="HATCH">
      <rect
         class="cls-1"
         x="157.64999"
         y="29.139999"
         width="519.84003"
         height="519.84003"
         rx="21.969999"
         ry="21.969999"
         id="rect15" />
    </g>
  </g>
  <g
     id="HATCH-2"
     data-name="HATCH"
     transform="translate(-142.50999,-14)">
    <path
       class="cls-2"
       d="m 179.62,548.99 h 475.91 c 12.13,0 21.97,-9.83 21.97,-21.97 V 51.11 c 0,-12.13 -9.83,-21.97 -21.97,-21.97 H 179.62 c -12.13,0 -21.97,9.83 -21.97,21.97 v 475.91 c 0,12.13 9.83,21.97 21.97,21.97 m 0,14.64 h 475.91 c 20.22,0 36.61,-16.39 36.61,-36.61 V 51.11 C 692.14,30.89 675.75,14.5 655.53,14.5 H 179.62 c -20.22,0 -36.61,16.39 -36.61,36.61 v 475.91 c 0,20.22 16.39,36.61 36.61,36.61 z"
       id="path16" />
  </g>
  <g
     id="LWPOLYLINE"
     transform="translate(-142.50999,-14)">
    <rect
       class="cls-4"
       x="143.00999"
       y="14.5"
       width="549.13"
       height="549.13"
       rx="36.610001"
       ry="36.610001"
       id="rect16" />
  </g>
  <g
     id="LWPOLYLINE-2"
     data-name="LWPOLYLINE"
     transform="translate(-142.50999,-14)">
    <rect
       class="cls-5"
       x="157.64999"
       y="29.139999"
       width="519.84003"
       height="519.84003"
       rx="21.969999"
       ry="21.969999"
       id="rect17" />
  </g>
  <g
     id="HATCH-3"
     data-name="HATCH"
     transform="translate(-142.50999,-14)">
    <path
       class="cls-2"
       d="M 375.79,432.32 H 208.66 c 3.97,3.98 7.95,7.96 11.94,11.94 H 375.79 V 432.32 M 227.05,324.07 c -1.59,-0.19 -3.03,0.94 -3.22,2.53 l -1.05,8.63 c -0.44,3.1 1.71,5.98 4.81,6.42 0.08,0.01 0.16,0.02 0.24,0.03 l 11.51,1.39 c 1.59,0.19 3.03,-0.94 3.22,-2.53 l 4.18,-34.52 c 0.19,-1.59 -0.94,-3.03 -2.53,-3.22 v 0 c 0,0 -11.51,-1.39 -11.51,-1.39 -1.59,-0.19 -3.03,0.94 -3.22,2.53 v 0 c 0,0 -2.44,20.13 -2.44,20.13 m 87.45,71.69 -3.95,-1.69 c -1.38,-0.59 -2.08,-2.15 -1.61,-3.57 l 9.71,-29.35 1.04,-8.69 5.22,-44.62 c 2.29,-3.05 5.94,-4.78 9.75,-4.63 6.4,0.27 11.36,5.67 11.1,12.06 l -0.62,14.89 c -0.03,0.8 0.26,1.57 0.82,2.14 l 20.73,21.24 c 1.8,1.78 1.82,4.68 0.04,6.48 -1.78,1.8 -4.68,1.82 -6.48,0.04 l -15.67,-16.5 c -0.07,-0.08 -0.19,-0.08 -0.27,0 -0.03,0.03 -0.05,0.07 -0.06,0.11 l -1.39,8.78 21.22,34.48 c 0.13,0.21 0.23,0.43 0.3,0.67 0.47,1.53 -0.39,3.15 -1.92,3.62 l -0.77,0.24 v 34.82 c 0,3.33 -2.7,6.04 -6.04,6.04 -3.34,0 -6.04,-2.7 -6.04,-6.04 v -31.1 l -19.22,5.91 c -1.1,0.34 -2.28,0.34 -3.38,0 l -4.45,26.69 c -0.8,3.2 -4.04,5.15 -7.24,4.35 -3.2,-0.8 -5.15,-4.04 -4.35,-7.24 l 3.5,-29.13 m -65.21,-87.92 c 2.29,-3.05 5.94,-4.78 9.75,-4.63 6.4,0.27 11.36,5.67 11.1,12.06 l -0.62,14.89 c -0.03,0.8 0.26,1.57 0.82,2.14 l 20.73,21.24 c 1.8,1.78 1.82,4.68 0.04,6.48 -1.78,1.8 -4.68,1.82 -6.48,0.04 l -15.67,-16.5 c -0.07,-0.08 -0.19,-0.08 -0.27,0 -0.03,0.03 -0.05,0.07 -0.06,0.11 l -1.39,8.78 18.17,32.46 c 0.43,0.69 0.66,1.49 0.66,2.31 v 39.05 c 0,3.33 -2.7,6.04 -6.04,6.04 -3.34,0 -6.04,-2.7 -6.04,-6.04 v -33.26 c 0,-0.83 -0.24,-1.65 -0.69,-2.35 l -13.32,-23.73 c -0.21,-0.8 -1.02,-1.28 -1.82,-1.07 -0.53,0.14 -0.94,0.55 -1.07,1.07 l -10.14,60.85 c -0.8,3.2 -4.04,5.15 -7.24,4.35 -3.2,-0.8 -5.15,-4.04 -4.35,-7.24 l 8.69,-72.43 5.22,-44.62 m 26.68,-19.12 c 0,-6.4 -5.19,-11.59 -11.59,-11.59 -6.4,0 -11.59,5.19 -11.59,11.59 0,6.4 5.19,11.59 11.59,11.59 6.4,0 11.59,-5.19 11.59,-11.59 m 26.79,35.35 c -1.59,-0.19 -3.03,0.94 -3.22,2.53 l -1.05,8.63 c -0.44,3.1 1.71,5.98 4.81,6.42 0.08,0.01 0.16,0.02 0.24,0.03 l 11.51,1.39 c 1.59,0.19 3.03,-0.94 3.22,-2.53 l 4.18,-34.52 c 0.19,-1.59 -0.94,-3.03 -2.53,-3.22 v 0 c 0,0 -11.51,-1.39 -11.51,-1.39 -1.59,-0.19 -3.03,0.94 -3.22,2.53 v 0 c 0,0 -2.44,20.13 -2.44,20.13 m 22.79,-41.15 c 1.32,0.54 2.36,1.58 2.9,2.9 0.54,3.2 -0.54,6.46 -2.9,8.69 -2.53,1.83 -5.57,2.84 -8.69,2.9 2.39,-0.78 3.7,-3.35 2.92,-5.74 0,-0.02 -0.01,-0.04 -0.02,-0.05 -0.67,-1.87 -0.67,-3.92 0,-5.79 0.84,-2.36 3.4,-3.64 5.79,-2.9 m 26.08,5.79 c 0,-6.4 -5.19,-11.59 -11.59,-11.59 -6.4,0 -11.59,5.19 -11.59,11.59 0,6.4 5.19,11.59 11.59,11.59 6.4,0 11.59,-5.19 11.59,-11.59 m 247.73,9.63 -6.63,-86.22 c 0,-7.33 -5.94,-13.26 -13.26,-13.26 h -66.32 v 99.48 h 86.22 m -185.71,0 6.63,-86.22 c 0,-7.33 5.94,-13.26 13.26,-13.26 h 66.32 v 99.48 h -86.22 m 53.07,59.69 c 0,-14.65 -11.88,-26.53 -26.53,-26.53 -14.65,0 -26.53,11.88 -26.53,26.53 0,14.65 11.88,26.53 26.53,26.53 14.65,0 26.53,-11.88 26.53,-26.53 m 132.64,0 c 0,-14.65 -11.88,-26.53 -26.53,-26.53 -14.65,0 -26.53,11.88 -26.53,26.53 0,14.65 11.88,26.53 26.53,26.53 14.65,0 26.53,-11.88 26.53,-26.53 m -6.63,86.21 h -39.79 c -3.66,0 -6.63,-2.97 -6.63,-6.63 v -33.16 c 0,0 -79.58,0 -79.58,0 v 33.16 c 0,3.66 -2.97,6.63 -6.63,6.63 h -39.79 c -3.66,0 -6.63,-2.97 -6.63,-6.63 v -33.16 h -19.9 c -7.33,0 -13.26,-5.94 -13.26,-13.26 l 6.63,-218.86 c 0,-14.65 11.88,-26.53 26.53,-26.53 h 185.7 c 14.65,0 26.53,11.88 26.53,26.53 l 6.63,218.86 v 0 c 0,7.33 -5.94,13.26 -13.26,13.26 h -19.9 v 33.16 c 0,3.66 -2.97,6.63 -6.63,6.63 z"
       id="path17" />
  </g>
  <g
     id="LWPOLYLINE-3"
     data-name="LWPOLYLINE"
     transform="translate(-142.50999,-14)">
    <path
       class="cls-5"
       d="m 592.66,444.25 h -39.79 c -3.66,0 -6.63,-2.97 -6.63,-6.63 v -33.16 c 0,0 -79.58,0 -79.58,0 v 33.16 c 0,3.66 -2.97,6.63 -6.63,6.63 h -39.79 c -3.66,0 -6.63,-2.97 -6.63,-6.63 v -33.16 h -19.9 c -7.33,0 -13.26,-5.94 -13.26,-13.26 l 6.63,-218.86 c 0,-14.65 11.88,-26.53 26.53,-26.53 h 185.7 c 14.65,0 26.53,11.88 26.53,26.53 l 6.63,218.86 v 0 c 0,7.33 -5.94,13.26 -13.26,13.26 h -19.9 c 0,0 0,33.16 0,33.16 0,3.66 -2.97,6.63 -6.63,6.63 z"
       id="path18" />
  </g>
  <g
     id="CIRCLE"
     transform="translate(-142.50999,-14)">
    <circle
       class="cls-5"
       cx="572.76001"
       cy="358.04001"
       r="26.530001"
       id="circle18" />
  </g>
  <g
     id="CIRCLE-2"
     data-name="CIRCLE"
     transform="translate(-142.50999,-14)">
    <circle
       class="cls-5"
       cx="440.12"
       cy="358.04001"
       r="26.530001"
       id="circle19" />
  </g>
  <g
     id="LWPOLYLINE-4"
     data-name="LWPOLYLINE"
     transform="translate(-142.50999,-14)">
    <path
       class="cls-5"
       d="m 413.59,298.35 6.63,-86.22 c 0,-7.33 5.94,-13.26 13.26,-13.26 h 66.32 v 99.48 h -86.22 z"
       id="path19" />
  </g>
  <g
     id="LWPOLYLINE-5"
     data-name="LWPOLYLINE"
     transform="translate(-142.50999,-14)">
    <path
       class="cls-5"
       d="m 599.29,298.35 -6.63,-86.22 c 0,-7.33 -5.94,-13.26 -13.26,-13.26 h -66.32 v 99.48 h 86.22 z"
       id="path20" />
  </g>
  <g
     id="CIRCLE-3"
     data-name="CIRCLE"
     transform="translate(-142.50999,-14)">
    <circle
       class="cls-5"
       cx="339.97"
       cy="288.72"
       r="11.59"
       id="circle20" />
  </g>
  <g
     id="LWPOLYLINE-6"
     data-name="LWPOLYLINE"
     transform="translate(-142.50999,-14)">
    <path
       class="cls-5"
       d="m 325.48,282.92 c 1.32,0.54 2.36,1.58 2.9,2.9 0.54,3.2 -0.54,6.46 -2.9,8.69 -2.53,1.83 -5.57,2.84 -8.69,2.9 2.39,-0.78 3.7,-3.35 2.92,-5.74 0,-0.02 -0.01,-0.04 -0.02,-0.05 -0.67,-1.87 -0.67,-3.92 0,-5.79 0.84,-2.36 3.4,-3.64 5.79,-2.9"
       id="path21" />
  </g>
  <g
     id="LWPOLYLINE-7"
     data-name="LWPOLYLINE"
     transform="translate(-142.50999,-14)">
    <path
       class="cls-5"
       d="m 302.7,324.07 c -1.59,-0.19 -3.03,0.94 -3.22,2.53 l -1.05,8.63 c -0.44,3.1 1.71,5.98 4.81,6.42 0.08,0.01 0.16,0.02 0.24,0.03 l 11.51,1.39 c 1.59,0.19 3.03,-0.94 3.22,-2.53 l 4.18,-34.52 c 0.19,-1.59 -0.94,-3.03 -2.53,-3.22 v 0 c 0,0 -11.51,-1.39 -11.51,-1.39 -1.59,-0.19 -3.03,0.94 -3.22,2.53 v 0 c 0,0 -2.44,20.13 -2.44,20.13 z"
       id="path22" />
  </g>
  <g
     id="CIRCLE-4"
     data-name="CIRCLE"
     transform="translate(-142.50999,-14)">
    <circle
       class="cls-5"
       cx="264.32001"
       cy="288.72"
       r="11.59"
       id="circle22" />
  </g>
  <g
     id="LWPOLYLINE-8"
     data-name="LWPOLYLINE"
     transform="translate(-142.50999,-14)">
    <path
       class="cls-5"
       d="m 249.25,307.84 c 2.29,-3.05 5.94,-4.78 9.75,-4.63 6.4,0.27 11.36,5.67 11.1,12.06 l -0.62,14.89 c -0.03,0.8 0.26,1.57 0.82,2.14 l 20.73,21.24 c 1.8,1.78 1.82,4.68 0.04,6.48 -1.78,1.8 -4.68,1.82 -6.48,0.04 l -15.67,-16.5 c -0.07,-0.08 -0.19,-0.08 -0.27,0 -0.03,0.03 -0.05,0.07 -0.06,0.11 l -1.39,8.78 18.17,32.46 c 0.43,0.69 0.66,1.49 0.66,2.31 v 39.05 c 0,3.33 -2.7,6.04 -6.04,6.04 -3.34,0 -6.04,-2.7 -6.04,-6.04 v -33.26 c 0,-0.83 -0.24,-1.65 -0.69,-2.35 l -13.32,-23.73 c -0.21,-0.8 -1.02,-1.28 -1.82,-1.07 -0.53,0.14 -0.94,0.55 -1.07,1.07 l -10.14,60.85 c -0.8,3.2 -4.04,5.15 -7.24,4.35 -3.2,-0.8 -5.15,-4.04 -4.35,-7.24 l 8.69,-72.43 5.22,-44.62"
       id="path23" />
  </g>
  <g
     id="LWPOLYLINE-9"
     data-name="LWPOLYLINE"
     transform="translate(-142.50999,-14)">
    <path
       class="cls-5"
       d="m 314.49,395.76 -3.95,-1.69 c -1.38,-0.59 -2.08,-2.15 -1.61,-3.57 l 9.71,-29.35 1.04,-8.69 5.22,-44.62 c 2.29,-3.05 5.94,-4.78 9.75,-4.63 6.4,0.27 11.36,5.67 11.1,12.06 l -0.62,14.89 c -0.03,0.8 0.26,1.57 0.82,2.14 l 20.73,21.24 c 1.8,1.78 1.82,4.68 0.04,6.48 -1.78,1.8 -4.68,1.82 -6.48,0.04 l -15.67,-16.5 c -0.07,-0.08 -0.19,-0.08 -0.27,0 -0.03,0.03 -0.05,0.07 -0.06,0.11 l -1.39,8.78 21.22,34.48 c 0.13,0.21 0.23,0.43 0.3,0.67 0.47,1.53 -0.39,3.15 -1.92,3.62 l -0.77,0.24 v 34.82 c 0,3.33 -2.7,6.04 -6.04,6.04 -3.34,0 -6.04,-2.7 -6.04,-6.04 v -31.1 l -19.22,5.91 c -1.1,0.34 -2.28,0.34 -3.38,0 l -4.45,26.69 c -0.8,3.2 -4.04,5.15 -7.24,4.35 -3.2,-0.8 -5.15,-4.04 -4.35,-7.24 l 3.5,-29.13 z"
       id="path24" />
  </g>
  <g
     id="LWPOLYLINE-10"
     data-name="LWPOLYLINE"
     transform="translate(-142.50999,-14)">
    <path
       class="cls-5"
       d="m 227.05,324.07 c -1.59,-0.19 -3.03,0.94 -3.22,2.53 l -1.05,8.63 c -0.44,3.1 1.71,5.98 4.81,6.42 0.08,0.01 0.16,0.02 0.24,0.03 l 11.51,1.39 c 1.59,0.19 3.03,-0.94 3.22,-2.53 l 4.18,-34.52 c 0.19,-1.59 -0.94,-3.03 -2.53,-3.22 v 0 c 0,0 -11.51,-1.39 -11.51,-1.39 -1.59,-0.19 -3.03,0.94 -3.22,2.53 v 0 c 0,0 -2.44,20.13 -2.44,20.13 z"
       id="path25" />
  </g>
  <g
     id="LWPOLYLINE-11"
     data-name="LWPOLYLINE"
     transform="translate(-142.50999,-14)">
    <path
       class="cls-5"
       d="M 375.79,432.32 H 208.66 c 3.97,3.98 7.95,7.96 11.94,11.94 h 155.19 z"
       id="path26" />
  </g>
  <g
     id="MTEXT-2"
     data-name="MTEXT"
     transform="translate(-146.61999,-9.692827)">
    <g
       id="g33">
      <path
         class="cls-1"
         d="m 445.57,166.96 v 4 h -8.26 v 5.83 h 12.55 v 4.16 h -17.37 v -23.53 h 17.3 v 4.16 H 437.3 v 5.37 h 8.26 z"
         id="path27" />
      <path
         class="cls-1"
         d="m 466.53,176.65 c 0.88,-0.34 1.33,-1.07 1.33,-2.18 0,-0.7 -0.37,-1.25 -1.1,-1.65 -0.73,-0.4 -1.79,-0.83 -3.16,-1.26 l -1.8,-0.59 c -1.75,-0.57 -3.09,-1.07 -4.03,-1.49 -0.94,-0.43 -1.75,-1.08 -2.42,-1.95 -0.68,-0.87 -1.02,-2.03 -1.02,-3.47 0,-1.59 0.44,-2.92 1.33,-3.97 0.88,-1.05 2.04,-1.82 3.46,-2.33 1.42,-0.5 2.96,-0.75 4.62,-0.75 1.66,0 3.11,0.17 4.36,0.51 1.25,0.34 2.4,0.83 3.47,1.46 l -1.7,3.41 c -0.83,-0.44 -1.76,-0.76 -2.79,-0.97 -1.03,-0.21 -2.26,-0.31 -3.7,-0.31 -1.18,0 -2.22,0.19 -3.11,0.57 -0.9,0.38 -1.34,1.05 -1.34,2.02 0,1.16 0.83,1.98 2.49,2.46 l 3.97,1.18 c 2.05,0.61 3.77,1.39 5.14,2.34 1.38,0.95 2.07,2.35 2.07,4.21 0,1.66 -0.42,3.04 -1.26,4.13 -0.84,1.09 -1.96,1.9 -3.34,2.42 -1.39,0.52 -2.93,0.79 -4.64,0.79 -1.71,0 -3.54,-0.25 -5.38,-0.75 -1.83,-0.5 -3.24,-1.14 -4.23,-1.9 l 1.7,-3.51 c 2.73,1.4 5.23,2.1 7.5,2.1 1.51,0 2.7,-0.17 3.59,-0.51 z"
         id="path28" />
      <path
         class="cls-1"
         d="m 495.09,179.35 c -0.87,0.63 -1.95,1.1 -3.23,1.39 -1.28,0.29 -2.93,0.44 -4.97,0.44 -2.42,0 -4.46,-0.57 -6.11,-1.72 -1.65,-1.15 -2.87,-2.59 -3.67,-4.34 -0.8,-1.75 -1.2,-3.52 -1.2,-5.31 0,-4 0.92,-7.11 2.77,-9.32 1.85,-2.22 4.71,-3.33 8.6,-3.33 1.68,0 3.15,0.2 4.39,0.59 1.25,0.39 2.38,0.98 3.41,1.77 l -1.7,3.51 c -1.03,-0.52 -1.97,-0.91 -2.82,-1.16 -0.85,-0.25 -1.94,-0.38 -3.28,-0.38 -1.55,0 -2.81,0.38 -3.77,1.13 -0.96,0.75 -1.64,1.68 -2.05,2.77 -0.41,1.09 -0.61,2.22 -0.61,3.38 0,2.16 0.46,4.06 1.39,5.69 0.93,1.63 2.51,2.44 4.74,2.44 1.59,0 2.88,-0.12 3.87,-0.34 0.99,-0.22 1.89,-0.62 2.72,-1.16 l 1.51,3.97 z"
         id="path29" />
      <path
         class="cls-1"
         d="m 516.91,178.55 c -2.14,1.78 -4.73,2.67 -7.77,2.67 -3.04,0 -5.71,-0.88 -7.9,-2.65 -2.19,-1.77 -3.28,-4.89 -3.28,-9.37 0,-4.24 1,-7.31 3,-9.21 2,-1.9 4.72,-2.85 8.18,-2.85 3.23,0 5.87,0.96 7.9,2.88 2.03,1.92 3.05,4.98 3.05,9.18 0.02,4.46 -1.04,7.58 -3.18,9.36 z m -2.34,-14.08 c -0.41,-1.14 -1.06,-1.96 -1.97,-2.46 -0.91,-0.5 -2.12,-0.75 -3.65,-0.75 -1.44,0 -2.6,0.26 -3.47,0.77 -0.87,0.51 -1.51,1.35 -1.92,2.51 -0.4,1.16 -0.61,2.74 -0.61,4.75 0,5.24 2.03,7.87 6.1,7.87 1.99,0 3.51,-0.64 4.56,-1.92 1.05,-1.28 1.57,-3.29 1.57,-6.05 0,-2.01 -0.2,-3.58 -0.61,-4.72 z"
         id="path30" />
      <path
         class="cls-1"
         d="m 525.14,180.95 v -23.53 h 4.92 v 19.27 h 10.03 v 4.26 h -14.94 z"
         id="path31" />
      <path
         class="cls-1"
         d="m 559.84,180.95 -2.03,-6.36 h -7.64 l -2.16,6.36 h -5.18 l 8.39,-23.53 h 5.67 l 8.29,23.53 z m -5.21,-18.22 h -0.72 l -2.62,8.26 h 5.38 l -2.03,-8.26 z"
         id="path32" />
      <path
         class="cls-1"
         d="m 579.7,157.42 c 1.97,0 3.59,0.36 4.87,1.07 1.28,0.71 2.21,1.61 2.8,2.69 0.59,1.08 0.89,2.19 0.89,3.33 0,1.66 -0.25,2.99 -0.75,3.98 -0.5,0.99 -1.11,1.72 -1.84,2.18 -0.72,0.46 -1.59,0.86 -2.62,1.21 l 5.6,9.08 h -5.44 l -5.01,-8.55 h -4.42 v 8.55 h -4.82 v -23.53 h 10.75 z m -0.45,11.02 c 1.31,0 2.32,-0.29 3.03,-0.87 0.71,-0.58 1.07,-1.44 1.07,-2.57 0,-0.92 -0.34,-1.73 -1.02,-2.44 -0.68,-0.71 -1.68,-1.07 -3.01,-1.07 h -5.54 v 6.95 z"
         id="path33" />
    </g>
  </g>
</svg>
