<?xml version="1.0" encoding="UTF-8" standalone="no"?>
<svg
   viewBox="0 0 550.13 550.13001"
   version="1.1"
   id="svg11"
   sodipodi:docname="SIS-25_30x30.svg"
   width="550.13"
   height="550.13"
   inkscape:version="1.4.2 (f4327f4, 2025-05-13)"
   xmlns:inkscape="http://www.inkscape.org/namespaces/inkscape"
   xmlns:sodipodi="http://sodipodi.sourceforge.net/DTD/sodipodi-0.dtd"
   xmlns="http://www.w3.org/2000/svg"
   xmlns:svg="http://www.w3.org/2000/svg">
  <sodipodi:namedview
     id="namedview11"
     pagecolor="#50505000"
     bordercolor="#ffffffff"
     borderopacity="1"
     inkscape:showpageshadow="0"
     inkscape:pageopacity="0"
     inkscape:pagecheckerboard="1"
     inkscape:deskcolor="#505050ff"
     inkscape:zoom="0.45241838"
     inkscape:cx="276.29293"
     inkscape:cy="533.79794"
     inkscape:window-width="1366"
     inkscape:window-height="697"
     inkscape:window-x="-8"
     inkscape:window-y="-8"
     inkscape:window-maximized="1"
     inkscape:current-layer="svg11" />
  <defs
     id="defs1">
    <style
       id="style1">
      .cls-1 {
        fill: #32479d;
      }

      .cls-2 {
        fill-rule: evenodd;
      }

      .cls-2, .cls-3 {
        fill: #fff;
      }

      .cls-3, .cls-4 {
        stroke: #000;
      }

      .cls-3, .cls-4, .cls-5 {
        stroke-linecap: round;
        stroke-linejoin: round;
      }

      .cls-4, .cls-5 {
        fill: none;
      }

      .cls-5 {
        stroke: #fff;
      }

      .cls-6 {
        font-family: ArialMT, Arial;
        font-size: 155.12px;
      }
    </style>
  </defs>
  <g
     id="sis_Fondo_del_tablero"
     data-name="sis_Fondo del tablero"
     transform="translate(-142.50999,-14)">
    <g
       id="HATCH">
      <rect
         class="cls-1"
         x="157.64999"
         y="29.139999"
         width="519.84003"
         height="519.84003"
         rx="21.969999"
         ry="21.969999"
         id="rect3" />
    </g>
  </g>
  <g
     id="sis_Pictograma_y_filete"
     data-name="sis_Pictograma y filete"
     transform="translate(-142.50999,-14)">
    <g
       id="HATCH-2"
       data-name="HATCH">
      <path
         class="cls-2"
         d="m 179.62,548.99 h 475.91 c 12.13,0 21.97,-9.83 21.97,-21.97 V 51.11 c 0,-12.13 -9.83,-21.97 -21.97,-21.97 H 179.62 c -12.13,0 -21.97,9.83 -21.97,21.97 v 475.91 c 0,12.13 9.83,21.97 21.97,21.97 m 0,14.64 h 475.91 c 20.22,0 36.61,-16.39 36.61,-36.61 V 51.11 C 692.14,30.89 675.75,14.5 655.53,14.5 H 179.62 c -20.22,0 -36.61,16.39 -36.61,36.61 v 475.91 c 0,20.22 16.39,36.61 36.61,36.61 z"
         id="path3" />
    </g>
    <g
       id="LWPOLYLINE">
      <rect
         class="cls-4"
         x="143.00999"
         y="14.5"
         width="549.13"
         height="549.13"
         rx="36.610001"
         ry="36.610001"
         id="rect4" />
    </g>
    <g
       id="LWPOLYLINE-2"
       data-name="LWPOLYLINE">
      <rect
         class="cls-5"
         x="157.64999"
         y="29.139999"
         width="519.84003"
         height="519.84003"
         rx="21.969999"
         ry="21.969999"
         id="rect5" />
    </g>
    <g
       id="HATCH-3"
       data-name="HATCH">
      <path
         class="cls-2"
         d="M 322.07,128.96 202.69,96.97 V 84.61 L 322.07,116.6 V 110 c 0,0 17.91,0 17.91,0 v 11.4 c 0,0 292.47,78.37 292.47,78.37 v 12.36 c 0,0 -292.47,-78.24 -292.47,-78.24 0,23.07 18.7,41.77 41.77,41.77 h 59.7 v 17.91 h -11.94 v 23.88 h 119.38 c 63.67,84.89 63.67,201.61 0,286.5 H 286.26 c -63.67,-84.89 -63.67,-201.61 0,-286.5 h 119.38 v -23.88 h -23.87 c 0,0 -0.02,0 -0.03,0 -32.96,0 -59.67,-26.73 -59.66,-59.69 v -4.91 m 89.52,351.1 h -98.46 c -51.77,-71.17 -51.77,-167.59 0,-238.75 h 98.46 v 238.75 m 11.94,0 H 522 c 51.77,-71.17 51.77,-167.59 0,-238.75 h -98.46 v 238.75 m 5.97,-5.97 h 82.06 c 49.75,-67.42 49.75,-159.39 0,-226.81 H 429.51 V 474.1 M 323.57,247.28 h 82.06 v 226.81 h -82.06 c -49.75,-67.42 -49.75,-159.39 0,-226.81 M 527.97,492 H 307.18 c -59.72,-77.36 -59.72,-185.27 0,-262.63 h 220.79 c 59.72,77.36 59.72,185.27 0,262.63 z"
         id="path5" />
    </g>
    <g
       id="LWPOLYLINE-3"
       data-name="LWPOLYLINE">
      <path
         class="cls-5"
         d="M 527.97,492 H 307.18 c -59.72,-77.36 -59.72,-185.27 0,-262.63 h 220.79 c 59.72,77.36 59.72,185.27 0,262.63 z"
         id="path6" />
    </g>
    <g
       id="LWPOLYLINE-4"
       data-name="LWPOLYLINE">
      <path
         class="cls-5"
         d="m 323.57,247.28 h 82.06 v 226.81 h -82.06 c -49.75,-67.42 -49.75,-159.39 0,-226.81 z"
         id="path7" />
    </g>
    <g
       id="LWPOLYLINE-5"
       data-name="LWPOLYLINE">
      <path
         class="cls-5"
         d="m 429.51,474.1 h 82.06 c 49.75,-67.42 49.75,-159.39 0,-226.81 h -82.06 z"
         id="path8" />
    </g>
    <g
       id="LWPOLYLINE-6"
       data-name="LWPOLYLINE">
      <path
         class="cls-5"
         d="M 423.54,480.07 H 522 c 51.77,-71.17 51.77,-167.59 0,-238.75 h -98.46 z"
         id="path9" />
    </g>
    <g
       id="LWPOLYLINE-7"
       data-name="LWPOLYLINE">
      <path
         class="cls-5"
         d="m 411.6,480.07 h -98.46 c -51.77,-71.17 -51.77,-167.59 0,-238.75 h 98.46 z"
         id="path10" />
    </g>
    <g
       id="LWPOLYLINE-8"
       data-name="LWPOLYLINE">
      <path
         class="cls-5"
         d="M 322.07,128.96 202.69,96.97 V 84.61 L 322.07,116.6 V 110 c 0,0 17.91,0 17.91,0 v 11.4 c 0,0 292.47,78.37 292.47,78.37 v 12.36 c 0,0 -292.47,-78.24 -292.47,-78.24 0,23.07 18.7,41.77 41.77,41.77 h 59.7 v 17.91 h -11.94 v 23.88 h 119.38 c 63.67,84.89 63.67,201.61 0,286.5 H 286.26 c -63.67,-84.89 -63.67,-201.61 0,-286.5 h 119.38 v -23.88 h -23.87 c 0,0 -0.02,0 -0.03,0 -32.96,0 -59.67,-26.73 -59.66,-59.69 v -4.91"
         id="path11" />
    </g>
  </g>
</svg>
