<?xml version="1.0" encoding="UTF-8" standalone="no"?>
<!-- Created with Inkscape (http://www.inkscape.org/) -->

<svg
   width="714mm"
   height="714mm"
   viewBox="0 0 714 714"
   version="1.1"
   id="svg9259"
   inkscape:version="1.2.1 (9c6d41e410, 2022-07-14)"
   sodipodi:docname="Mexico road sign SIS-1 (2023).svg"
   xmlns:inkscape="http://www.inkscape.org/namespaces/inkscape"
   xmlns:sodipodi="http://sodipodi.sourceforge.net/DTD/sodipodi-0.dtd"
   xmlns="http://www.w3.org/2000/svg"
   xmlns:svg="http://www.w3.org/2000/svg">
  <sodipodi:namedview
     id="namedview9261"
     pagecolor="#ffffff"
     bordercolor="#000000"
     borderopacity="0.25"
     inkscape:showpageshadow="2"
     inkscape:pageopacity="0.0"
     inkscape:pagecheckerboard="0"
     inkscape:deskcolor="#d1d1d1"
     inkscape:document-units="mm"
     showgrid="false"
     inkscape:zoom="0.76257015"
     inkscape:cx="1620.1788"
     inkscape:cy="947.45382"
     inkscape:window-width="1920"
     inkscape:window-height="991"
     inkscape:window-x="-9"
     inkscape:window-y="-9"
     inkscape:window-maximized="1"
     inkscape:current-layer="layer1" />
  <defs
     id="defs9256" />
  <g
     inkscape:label="Livello 1"
     inkscape:groupmode="layer"
     id="layer1"
     transform="translate(323.34466,315.01756)">
    <g
       id="g2856"
       transform="translate(-6948.7291,-6329.4152)">
      <g
         id="g489-1-9-0-8"
         transform="translate(4257.8776,2058.6701)">
        <rect
           style="fill:#000000;stroke-width:3.70491;stroke-opacity:0.578462;paint-order:fill markers stroke"
           id="rect20798-0-7-9-3-3-6-2-8"
           width="714"
           height="714"
           x="-4669.7275"
           y="2367.5068"
           ry="42"
           rx="42"
           transform="rotate(-90)" />
        <rect
           style="fill:#ffffff;stroke-width:3.68415;stroke-opacity:0.578462;paint-order:fill markers stroke"
           id="rect20798-0-7-9-5-8-9-1"
           width="710"
           height="710"
           x="-4667.7271"
           y="2369.5068"
           ry="40"
           rx="40"
           transform="rotate(-90)" />
        <rect
           style="fill:#32479d;stroke-width:3.47659;stroke-opacity:0.578462;paint-order:fill markers stroke"
           id="rect20798-4-7-0-6-3-4-1-2"
           width="670"
           height="670"
           x="-4647.7275"
           y="2389.5063"
           ry="20"
           rx="20"
           transform="rotate(-90)" />
      </g>
      <path
         id="path12321-1"
         style="fill:#ffffff;stroke-width:6.91948;stroke-linejoin:round;paint-order:fill markers stroke"
         d="m 6982.3886,6069.7771 c -21.4605,0 -44.2981,38.7609 -44.2981,80.3416 l 0.01,144.6003 -225.5917,162.3743 v 23.2945 c 0,21.7594 16.4505,19.2771 30.8974,15.8493 l 194.6943,-59.0961 v 104.4254 l -106.612,83.4318 v 30.8437 c 0,11.3651 7.3058,14.9878 21.9408,11.0662 l 128.9609,-38.5425 v 0.01 l 128.9608,38.5425 c 14.6351,3.9216 21.9408,0.3023 21.9408,-11.0645 v -30.8454 l -106.6152,-83.4418 v -104.417 l 194.6942,59.0961 c 14.4469,3.4278 30.889,5.9118 30.889,-15.8476 v -23.2945 l -225.5832,-162.376 0.01,-144.6003 c 0,-41.5807 -22.8377,-80.35 -44.2981,-80.35 z" />
    </g>
  </g>
</svg>
