<?xml version="1.0" encoding="UTF-8" standalone="no"?>
<svg
   viewBox="0 0 550.13 550.13"
   version="1.1"
   id="svg22"
   sodipodi:docname="SIS-18_30x30.svg"
   width="550.13"
   height="550.13"
   xmlns:inkscape="http://www.inkscape.org/namespaces/inkscape"
   xmlns:sodipodi="http://sodipodi.sourceforge.net/DTD/sodipodi-0.dtd"
   xmlns="http://www.w3.org/2000/svg"
   xmlns:svg="http://www.w3.org/2000/svg">
  <sodipodi:namedview
     id="namedview22"
     pagecolor="#50505000"
     bordercolor="#ffffffff"
     borderopacity="1"
     inkscape:showpageshadow="0"
     inkscape:pageopacity="0"
     inkscape:pagecheckerboard="1"
     inkscape:deskcolor="#505050ff"
     showgrid="false"
     inkscape:zoom="0.72079809"
     inkscape:cx="274.69551"
     inkscape:cy="533.43649"
     inkscape:window-width="1920"
     inkscape:window-height="1009"
     inkscape:window-maximized="1"
     inkscape:current-layer="svg22" />
  <defs
     id="defs1">
    <style
       id="style1">
      .cls-1 {
        fill: #32479d;
      }

      .cls-2 {
        stroke-miterlimit: 10;
      }

      .cls-2, .cls-3, .cls-4 {
        fill: #fff;
      }

      .cls-2, .cls-4, .cls-5 {
        stroke: #000;
      }

      .cls-3 {
        fill-rule: evenodd;
      }

      .cls-4, .cls-5, .cls-6 {
        stroke-linecap: round;
        stroke-linejoin: round;
      }

      .cls-5, .cls-6 {
        fill: none;
      }

      .cls-6 {
        stroke: #fff;
      }
    </style>
  </defs>
  <g
     id="sis_Fondo_del_tablero"
     data-name="sis_Fondo del tablero"
     transform="translate(-142.51,-14)">
    <g
       id="HATCH">
      <rect
         class="cls-1"
         x="157.65"
         y="29.14"
         width="519.84"
         height="519.84"
         rx="21.97"
         ry="21.97"
         id="rect14" />
    </g>
  </g>
  <g
     id="sis_Pictograma_y_filete"
     data-name="sis_Pictograma y filete"
     transform="translate(-142.51,-14)">
    <g
       id="HATCH-2"
       data-name="HATCH">
      <path
         class="cls-3"
         d="m 179.62,548.99 h 475.91 c 12.13,0 21.97,-9.83 21.97,-21.97 V 51.11 c 0,-12.13 -9.83,-21.97 -21.97,-21.97 H 179.62 c -12.13,0 -21.97,9.83 -21.97,21.97 v 475.91 c 0,12.13 9.83,21.97 21.97,21.97 m 0,14.64 h 475.91 c 20.22,0 36.61,-16.39 36.61,-36.61 V 51.11 C 692.14,30.89 675.75,14.5 655.53,14.5 H 179.62 c -20.22,0 -36.61,16.39 -36.61,36.61 v 475.91 c 0,20.22 16.39,36.61 36.61,36.61 z"
         id="path15" />
    </g>
    <g
       id="LWPOLYLINE">
      <rect
         class="cls-5"
         x="143.01"
         y="14.5"
         width="549.13"
         height="549.13"
         rx="36.61"
         ry="36.61"
         id="rect15" />
    </g>
    <g
       id="LWPOLYLINE-2"
       data-name="LWPOLYLINE">
      <rect
         class="cls-6"
         x="157.65"
         y="29.14"
         width="519.84"
         height="519.84"
         rx="21.97"
         ry="21.97"
         id="rect16" />
    </g>
    <g
       id="HATCH-3"
       data-name="HATCH">
      <path
         class="cls-3"
         d="m 280.29,260.25 c -9.32,3.3 -14.21,13.53 -10.91,22.85 1.8,5.1 5.81,9.11 10.91,10.91 v -33.76 m 352.16,189.97 c -21.22,-15.92 -50.4,-15.92 -71.63,0 -21.22,15.92 -50.4,15.92 -71.63,0 -21.22,-15.92 -50.4,-15.92 -71.63,0 -21.22,15.92 -50.4,15.92 -71.63,0 -21.22,-15.92 -50.4,-15.92 -71.63,0 -21.22,15.92 -50.4,15.92 -71.63,0 v 11.94 c 21.22,15.92 50.4,15.92 71.63,0 21.22,-15.92 50.4,-15.92 71.63,0 21.22,15.92 50.4,15.92 71.63,0 21.22,-15.92 50.4,-15.92 71.63,0 21.22,15.92 50.4,15.92 71.63,0 21.22,-15.92 50.4,-15.92 71.63,0 V 450.22 M 280.29,416.44 c -2.07,1.19 -4.06,2.51 -5.97,3.94 -21.22,15.92 -50.4,15.92 -71.63,0 v 11.94 c 21.22,15.92 50.4,15.92 71.63,0 21.22,-15.92 50.4,-15.92 71.63,0 21.22,15.92 50.4,15.92 71.63,0 21.22,-15.92 50.4,-15.92 71.63,0 21.22,15.92 50.4,15.92 71.63,0 21.22,-15.92 50.4,-15.92 71.63,0 v -11.94 c -14.74,-11.05 -33.75,-14.68 -51.52,-9.83 l 45.55,-97.6 -125.34,-35.81 -125.34,35.81 5.31,11.37 c -27.28,-10.74 -49.66,-31.15 -62.86,-57.34 -5.13,-10.17 -14.78,-17.29 -26.01,-19.19 v -18.41 c 0,-3.3 -2.67,-5.97 -5.97,-5.97 -3.3,0 -5.97,2.67 -5.97,5.97 v 18.51 c -16.15,3.3 -26.57,19.06 -23.27,35.21 2.39,11.72 11.55,20.88 23.27,23.27 v 0.6 h -77.59 v 11.94 h 77.59 v 97.53 m 11.91,-5.25 V 308 c 7.15,2.53 11.94,9.29 11.94,16.88 0,3.3 2.67,5.97 5.97,5.97 3.3,0 5.97,-2.67 5.97,-5.97 0,-14.18 -9.98,-26.4 -23.88,-29.24 v -35.66 c 6.66,1.72 12.25,6.23 15.35,12.37 16.39,32.52 45.55,56.77 80.52,66.96 l 35.88,76.89 c -2.22,1.26 -4.36,2.66 -6.4,4.19 -21.22,15.92 -50.4,15.92 -71.63,0 -15.38,-11.54 -35.38,-14.96 -53.72,-9.19 M 417.57,223.41 c -2.89,0 -5.37,2.07 -5.88,4.92 l -10.5,58.65 99.93,-27.76 99.93,27.76 -10.5,-58.65 c -0.51,-2.85 -2.98,-4.92 -5.88,-4.92 H 417.54 m 0.03,-5.97 c -5.78,0 -10.73,4.14 -11.75,9.83 l -12.12,67.76 107.44,-29.84 107.44,29.84 -12.12,-67.76 c -1.02,-5.69 -5.97,-9.83 -11.75,-9.83 0,0 -167.13,0 -167.13,0 z"
         id="path16" />
    </g>
    <g
       id="LWPOLYLINE-3"
       data-name="LWPOLYLINE">
      <path
         class="cls-6"
         d="m 417.57,217.44 c -5.78,0 -10.73,4.14 -11.75,9.83 l -12.12,67.76 107.44,-29.84 107.44,29.84 -12.12,-67.76 c -1.02,-5.69 -5.97,-9.83 -11.75,-9.83 0,0 -167.13,0 -167.13,0 z"
         id="path17" />
    </g>
    <g
       id="LWPOLYLINE-4"
       data-name="LWPOLYLINE">
      <path
         class="cls-6"
         d="m 417.57,223.41 c -2.89,0 -5.37,2.07 -5.88,4.92 l -10.5,58.65 99.93,-27.76 99.93,27.76 -10.5,-58.65 c -0.51,-2.85 -2.98,-4.92 -5.88,-4.92 H 417.54 Z"
         id="path18" />
    </g>
    <g
       id="LWPOLYLINE-5"
       data-name="LWPOLYLINE">
      <path
         class="cls-6"
         d="M 292.23,411.19 V 308 c 7.15,2.53 11.94,9.29 11.94,16.88 0,3.3 2.67,5.97 5.97,5.97 3.3,0 5.97,-2.67 5.97,-5.97 0,-14.18 -9.98,-26.4 -23.88,-29.24 v -35.66 c 6.66,1.72 12.25,6.23 15.35,12.37 16.39,32.52 45.55,56.77 80.52,66.96 l 35.88,76.89 c -2.22,1.26 -4.36,2.66 -6.4,4.19 -21.22,15.92 -50.4,15.92 -71.63,0 -15.38,-11.54 -35.38,-14.96 -53.72,-9.19 z"
         id="path19" />
    </g>
    <g
       id="LWPOLYLINE-6"
       data-name="LWPOLYLINE">
      <path
         class="cls-6"
         d="m 280.29,416.44 c -2.07,1.19 -4.06,2.51 -5.97,3.94 -21.22,15.92 -50.4,15.92 -71.63,0 v 11.94 c 21.22,15.92 50.4,15.92 71.63,0 21.22,-15.92 50.4,-15.92 71.63,0 21.22,15.92 50.4,15.92 71.63,0 21.22,-15.92 50.4,-15.92 71.63,0 21.22,15.92 50.4,15.92 71.63,0 21.22,-15.92 50.4,-15.92 71.63,0 v -11.94 c -14.74,-11.05 -33.75,-14.68 -51.52,-9.83 l 45.55,-97.6 -125.34,-35.81 -125.34,35.81 5.31,11.37 c -27.28,-10.74 -49.66,-31.15 -62.86,-57.34 -5.13,-10.17 -14.78,-17.29 -26.01,-19.19 v -18.41 c 0,-3.3 -2.67,-5.97 -5.97,-5.97 -3.3,0 -5.97,2.67 -5.97,5.97 v 18.51 c -16.15,3.3 -26.57,19.06 -23.27,35.21 2.39,11.72 11.55,20.88 23.27,23.27 v 0.6 h -77.59 v 11.94 h 77.59 v 97.53 z"
         id="path20" />
    </g>
    <g
       id="LWPOLYLINE-7"
       data-name="LWPOLYLINE">
      <path
         class="cls-6"
         d="m 632.45,450.22 c -21.22,-15.92 -50.4,-15.92 -71.63,0 -21.22,15.92 -50.4,15.92 -71.63,0 -21.22,-15.92 -50.4,-15.92 -71.63,0 -21.22,15.92 -50.4,15.92 -71.63,0 -21.22,-15.92 -50.4,-15.92 -71.63,0 -21.22,15.92 -50.4,15.92 -71.63,0 v 11.94 c 21.22,15.92 50.4,15.92 71.63,0 21.22,-15.92 50.4,-15.92 71.63,0 21.22,15.92 50.4,15.92 71.63,0 21.22,-15.92 50.4,-15.92 71.63,0 21.22,15.92 50.4,15.92 71.63,0 21.22,-15.92 50.4,-15.92 71.63,0 z"
         id="path21" />
    </g>
    <g
       id="LWPOLYLINE-8"
       data-name="LWPOLYLINE">
      <path
         class="cls-6"
         d="m 280.29,260.25 c -9.32,3.3 -14.21,13.53 -10.91,22.85 1.8,5.1 5.81,9.11 10.91,10.91 z"
         id="path22" />
    </g>
  </g>
</svg>
