<?xml version="1.0" encoding="UTF-8" standalone="no"?>
<!-- Created with Inkscape (http://www.inkscape.org/) -->

<svg
   width="714mm"
   height="714mm"
   viewBox="0 0 714 714"
   version="1.1"
   id="svg47645"
   inkscape:version="1.2.1 (9c6d41e410, 2022-07-14)"
   sodipodi:docname="Mexico road sign SIS-16A (2023).svg"
   xmlns:inkscape="http://www.inkscape.org/namespaces/inkscape"
   xmlns:sodipodi="http://sodipodi.sourceforge.net/DTD/sodipodi-0.dtd"
   xmlns="http://www.w3.org/2000/svg"
   xmlns:svg="http://www.w3.org/2000/svg">
  <sodipodi:namedview
     id="namedview47647"
     pagecolor="#ffffff"
     bordercolor="#000000"
     borderopacity="0.25"
     inkscape:showpageshadow="2"
     inkscape:pageopacity="0.0"
     inkscape:pagecheckerboard="0"
     inkscape:deskcolor="#d1d1d1"
     inkscape:document-units="mm"
     showgrid="false"
     inkscape:zoom="0.76257015"
     inkscape:cx="1322.5013"
     inkscape:cy="1123.1754"
     inkscape:window-width="1920"
     inkscape:window-height="991"
     inkscape:window-x="-9"
     inkscape:window-y="-9"
     inkscape:window-maximized="1"
     inkscape:current-layer="layer1" />
  <defs
     id="defs47642" />
  <g
     inkscape:label="Livello 1"
     inkscape:groupmode="layer"
     id="layer1"
     transform="translate(244.58416,268.52446)">
    <g
       id="g16706"
       transform="translate(-17180.386,-16878.786)">
      <g
         id="g489-1-9-0-8-0-4-1-69"
         transform="translate(14568.295,12654.534)">
        <rect
           style="fill:#000000;stroke-width:3.70491;stroke-opacity:0.578462;paint-order:fill markers stroke"
           id="rect20798-0-7-9-3-3-6-2-8-3-9-2-5"
           width="714"
           height="714"
           x="-4669.7275"
           y="2367.5068"
           ry="42"
           rx="42"
           transform="rotate(-90)" />
        <rect
           style="fill:#ffffff;stroke-width:3.68415;stroke-opacity:0.578462;paint-order:fill markers stroke"
           id="rect20798-0-7-9-5-8-9-1-0-1-5-3"
           width="710"
           height="710"
           x="-4667.7271"
           y="2369.5068"
           ry="40"
           rx="40"
           transform="rotate(-90)" />
        <rect
           style="fill:#32479d;stroke-width:3.47659;stroke-opacity:0.578462;paint-order:fill markers stroke"
           id="rect20798-4-7-0-6-3-4-1-2-1-9-3-97"
           width="670"
           height="670"
           x="-4647.7275"
           y="2389.5063"
           ry="20"
           rx="20"
           transform="rotate(-90)" />
      </g>
      <path
         id="path17711-6"
         style="fill:#ffffff;stroke-width:19.5156;paint-order:fill markers stroke"
         d="m 17089.591,16697.444 c -45.514,0 -76.601,23.428 -76.601,23.428 v 20.087 h 77.894 v 49.444 h -77.894 v 20.087 c 0,0 31.087,23.429 76.601,23.429 45.48,0 44.641,-38.998 44.641,-38.998 h 318.732 c 0,0 -0.839,38.998 44.641,38.998 45.514,0 76.601,-23.429 76.601,-23.429 v -20.087 h -77.894 v -49.444 h 77.894 v -20.087 c 0,0 -31.087,-23.428 -76.601,-23.428 -45.48,0 -44.641,38.997 -44.641,38.997 h -318.732 c 0,0 0.839,-38.997 -44.641,-38.997 z"
         sodipodi:nodetypes="sccccccsccsccccccsccs" />
      <path
         id="path7791-1-1-1-6-1-1-5-5-5-2-27-5-0"
         style="color:#000000;fill:#ffffff;stroke-width:22.5981;stroke-linecap:round;stroke-linejoin:bevel;paint-order:fill markers stroke"
         d="m 17250.721,16875.503 h -25.109 c -12.512,0 -23.445,3.14 -31.691,9.304 -8.28,6.214 -13.252,14.746 -16.946,23.378 l -0.336,0.672 -21.699,61.536 c -1.008,1.747 -1.747,3.595 -1.982,5.677 l -13.201,37.318 c -8.448,-2.082 -17.114,-3.14 -25.813,-3.14 -62.796,0 -113.702,50.871 -113.702,113.65 0,62.796 50.906,113.668 113.702,113.668 62.779,0 113.684,-50.872 113.667,-113.668 0,-42.877 -24.168,-82.093 -62.426,-101.424 l 6.902,-19.599 117.581,122.77 c 8.028,8.851 12.563,12.512 20.238,14.612 7.675,2.099 16.408,2.452 19.163,2.452 h 30.499 c 9.086,54.835 56.515,95.042 112.123,95.075 62.779,0 113.667,-50.905 113.667,-113.667 0,-62.847 -50.888,-113.735 -113.667,-113.735 -12.126,0 -24.185,2.099 -35.673,5.794 l -32.195,-52.383 v 0 c -2.133,-3.51 -3.863,-6.147 -5.526,-8.599 l 11.37,-30.029 h 26.251 c 7.457,0 13.503,-6.029 13.503,-13.486 0,-7.491 -6.03,-13.554 -13.503,-13.604 h -91.196 c -7.457,0 -13.52,6.113 -13.487,13.604 0,7.457 6.03,13.486 13.487,13.486 h 36.025 l -6.315,16.694 h -2.956 -177.757 l 8.23,-23.328 c 2.687,-6.248 5.324,-9.993 8.246,-12.193 2.972,-2.469 6.953,-3.88 15.417,-3.88 h 25.109 c 7.457,0 13.536,-6.063 13.536,-13.536 0,-7.407 -6.063,-13.537 -13.536,-13.537 z m -66.525,93.48 h 179.957 l -53.122,140.186 c -0.336,0 -1.008,-0.671 -1.343,-1.343 h -0.336 l -127.238,-132.881 z m 202.042,17.92 25.21,40.996 c -30.718,19.146 -50.452,51.829 -53.139,87.921 h -20.927 z m -272.278,50.72 c 5.61,0 11.219,0.672 16.745,1.747 l -28.551,80.951 c -2.469,7.02 1.175,14.78 8.263,17.232 7.037,2.788 14.762,-1.344 17.248,-8.28 l 28.434,-80.616 c 27.459,15.317 44.489,44.205 44.523,75.628 0,47.899 -38.796,86.695 -86.662,86.745 -47.865,0 -86.678,-38.846 -86.678,-86.745 0,-47.832 38.813,-86.645 86.678,-86.645 z m 357.731,0 c 47.848,0 86.661,38.763 86.661,86.595 0,47.898 -38.813,86.661 -86.661,86.661 -40.644,0 -75.796,-28.35 -84.546,-67.986 h 95.63 c 3.426,0 7.39,1.008 13.47,-4.232 3.056,-2.805 5.055,-7.726 5.122,-11.152 0,-3.51 -0.84,-5.626 -1.511,-7.255 -2.772,-6.55 -5.778,-9.523 -9.439,-15.569 l -39.737,-64.66 c 6.869,-1.747 13.923,-2.788 21.011,-2.788 z m -46.069,13.302 40.039,65.097 h -80.212 c 2.62,-26.721 17.45,-50.738 40.173,-64.963 z"
         inkscape:transform-center-x="-466.93783"
         inkscape:transform-center-y="-1063.1163"
         sodipodi:nodetypes="ccscccccccccccccccccccccccccccccccccccscccccccccccccccccccccccccccccccccccccccccccc" />
    </g>
  </g>
</svg>
