<?xml version="1.0" encoding="UTF-8" standalone="no"?>
<!-- Created with Inkscape (http://www.inkscape.org/) -->

<svg
   width="714mm"
   height="714mm"
   viewBox="0 0 714 714"
   version="1.1"
   id="svg51111"
   inkscape:version="1.2.1 (9c6d41e410, 2022-07-14)"
   sodipodi:docname="Mexico road sign SIS-13 (2023).svg"
   xmlns:inkscape="http://www.inkscape.org/namespaces/inkscape"
   xmlns:sodipodi="http://sodipodi.sourceforge.net/DTD/sodipodi-0.dtd"
   xmlns="http://www.w3.org/2000/svg"
   xmlns:svg="http://www.w3.org/2000/svg">
  <sodipodi:namedview
     id="namedview51113"
     pagecolor="#ffffff"
     bordercolor="#000000"
     borderopacity="0.25"
     inkscape:showpageshadow="2"
     inkscape:pageopacity="0.0"
     inkscape:pagecheckerboard="0"
     inkscape:deskcolor="#d1d1d1"
     inkscape:document-units="mm"
     showgrid="false"
     inkscape:zoom="0.76257015"
     inkscape:cx="1435.2778"
     inkscape:cy="1170.3841"
     inkscape:window-width="1920"
     inkscape:window-height="991"
     inkscape:window-x="-9"
     inkscape:window-y="-9"
     inkscape:window-maximized="1"
     inkscape:current-layer="layer1" />
  <defs
     id="defs51108" />
  <g
     inkscape:label="Livello 1"
     inkscape:groupmode="layer"
     id="layer1"
     transform="translate(274.42316,256.03446)">
    <g
       id="g16730"
       transform="translate(-20502.986,-15912.144)">
      <g
         id="g489-1-9-0-8-0-4-1-7"
         transform="translate(17861.056,11700.382)">
        <rect
           style="fill:#000000;stroke-width:3.70491;stroke-opacity:0.578462;paint-order:fill markers stroke"
           id="rect20798-0-7-9-3-3-6-2-8-3-9-2-3"
           width="714"
           height="714"
           x="-4669.7275"
           y="2367.5068"
           ry="42"
           rx="42"
           transform="rotate(-90)" />
        <rect
           style="fill:#ffffff;stroke-width:3.68415;stroke-opacity:0.578462;paint-order:fill markers stroke"
           id="rect20798-0-7-9-5-8-9-1-0-1-5-84"
           width="710"
           height="710"
           x="-4667.7271"
           y="2369.5068"
           ry="40"
           rx="40"
           transform="rotate(-90)" />
        <rect
           style="fill:#32479d;stroke-width:3.47659;stroke-opacity:0.578462;paint-order:fill markers stroke"
           id="rect20798-4-7-0-6-3-4-1-2-1-9-3-2"
           width="670"
           height="670"
           x="-4647.7275"
           y="2389.5063"
           ry="20"
           rx="20"
           transform="rotate(-90)" />
      </g>
      <path
         id="path7893-5"
         style="color:#000000;fill:#ffffff;stroke-width:16.7949;stroke-linecap:round;paint-order:fill markers stroke"
         d="m 20324.261,15856.851 c -3.141,0 -6.198,1.008 -8.902,2.587 -8.599,5.173 -11.387,16.341 -6.197,24.94 l 15.183,25.327 v 258.674 h 36.31 v -55.86 h 464.781 v 55.86 h 36.31 v -219.912 l 15.233,-25.36 a 18.155236,18.155236 0 0 0 -6.231,-24.89 18.155236,18.155236 0 0 0 -10.228,-2.553 18.155236,18.155236 0 0 0 -14.678,8.784 l -20.406,33.959 v 121.326 h -464.781 v -160.072 l -20.355,-33.976 c -3.124,-5.206 -8.633,-8.515 -14.696,-8.817 -0.504,0 -0.84,0 -1.343,0 z" />
      <circle
         style="fill:#ffffff;stroke-width:36.3105;stroke-linecap:round;stroke-opacity:0.341538;paint-order:fill markers stroke"
         id="path8215-4"
         cx="20406.959"
         cy="15998.387"
         r="34.980705" />
      <path
         style="fill:#ffffff;stroke-width:36.3105;stroke-linecap:round;stroke-opacity:0.341538;paint-order:fill markers stroke"
         d="m 20812,16046.851 h -357.008 v -43.431 c 0,-12.613 13.973,-31.121 36.663,-30.499 l 281.079,13.184 c 23.865,1.007 39.266,11.454 39.266,30.062 z"
         id="path8271-9"
         sodipodi:nodetypes="ccccccc" />
    </g>
  </g>
</svg>
