<?xml version="1.0" encoding="UTF-8" standalone="no"?>
<svg
   viewBox="0 0 550.13 550.13"
   version="1.1"
   id="svg21"
   sodipodi:docname="SIS-24A_30x30.svg"
   width="550.13"
   height="550.13"
   xmlns:inkscape="http://www.inkscape.org/namespaces/inkscape"
   xmlns:sodipodi="http://sodipodi.sourceforge.net/DTD/sodipodi-0.dtd"
   xmlns="http://www.w3.org/2000/svg"
   xmlns:svg="http://www.w3.org/2000/svg">
  <sodipodi:namedview
     id="namedview21"
     pagecolor="#50505000"
     bordercolor="#ffffffff"
     borderopacity="1"
     inkscape:showpageshadow="0"
     inkscape:pageopacity="0"
     inkscape:pagecheckerboard="1"
     inkscape:deskcolor="#505050ff"
     showgrid="false"
     inkscape:zoom="0.74397689"
     inkscape:cx="275.54619"
     inkscape:cy="641.14894"
     inkscape:window-width="1920"
     inkscape:window-height="1009"
     inkscape:window-maximized="1"
     inkscape:current-layer="svg21" />
  <defs
     id="defs1">
    <style
       id="style1">
      .cls-1 {
        fill: #32479d;
      }

      .cls-2 {
        fill-rule: evenodd;
      }

      .cls-2, .cls-3 {
        fill: #fff;
      }

      .cls-3, .cls-4 {
        stroke: #000;
      }

      .cls-3, .cls-4, .cls-5 {
        stroke-linecap: round;
        stroke-linejoin: round;
      }

      .cls-4, .cls-5 {
        fill: none;
      }

      .cls-5 {
        stroke: #fff;
      }
    </style>
  </defs>
  <g
     id="sis_Fondo_del_tablero"
     data-name="sis_Fondo del tablero"
     transform="translate(-142.51,-14)">
    <g
       id="HATCH">
      <rect
         class="cls-1"
         x="157.65"
         y="29.14"
         width="519.84"
         height="519.84"
         rx="21.97"
         ry="21.97"
         id="rect15" />
    </g>
  </g>
  <g
     id="sis_Pictograma_y_filete"
     data-name="sis_Pictograma y filete"
     transform="translate(-142.51,-14)">
    <g
       id="HATCH-2"
       data-name="HATCH">
      <path
         class="cls-2"
         d="m 179.62,548.99 h 475.91 c 12.13,0 21.97,-9.83 21.97,-21.97 V 51.11 c 0,-12.13 -9.83,-21.97 -21.97,-21.97 H 179.62 c -12.13,0 -21.97,9.83 -21.97,21.97 v 475.91 c 0,12.13 9.83,21.97 21.97,21.97 m 0,14.64 h 475.91 c 20.22,0 36.61,-16.39 36.61,-36.61 V 51.11 C 692.14,30.89 675.75,14.5 655.53,14.5 H 179.62 c -20.22,0 -36.61,16.39 -36.61,36.61 v 475.91 c 0,20.22 16.39,36.61 36.61,36.61 z"
         id="path16" />
    </g>
    <g
       id="LWPOLYLINE">
      <rect
         class="cls-4"
         x="143.01"
         y="14.5"
         width="549.13"
         height="549.13"
         rx="36.61"
         ry="36.61"
         id="rect16" />
    </g>
    <g
       id="LWPOLYLINE-2"
       data-name="LWPOLYLINE">
      <rect
         class="cls-5"
         x="157.65"
         y="29.14"
         width="519.84"
         height="519.84"
         rx="21.97"
         ry="21.97"
         id="rect17" />
    </g>
    <g
       id="HATCH-3"
       data-name="HATCH">
      <path
         class="cls-2"
         d="m 572.76,283.1 c -38.4,0 -69.96,30.28 -71.56,68.64 h 11.95 c 1.42,-28.34 22.6,-51.77 50.66,-56.03 32.59,-4.94 63.02,17.47 67.97,50.06 4.94,32.59 -17.47,63.02 -50.06,67.97 -32.59,4.94 -63.02,-17.47 -67.97,-50.06 H 367.88 c -1.63,0 -3.19,-0.67 -4.31,-1.84 l -71.13,-74.37 -4.67,13.23 c 25.69,12.07 39.33,40.56 32.61,68.15 -7.8,32.03 -40.09,51.67 -72.12,43.87 -32.03,-7.8 -51.67,-40.09 -43.87,-72.12 7.8,-32.03 40.09,-51.67 72.12,-43.87 l 20.24,-57.39 c 3.37,-9.55 12.39,-15.94 22.52,-15.94 h 14.75 c 3.3,0 5.97,2.67 5.97,5.97 0,3.3 -2.67,5.97 -5.97,5.97 h -14.75 c -5.06,0 -9.57,3.19 -11.26,7.97 l -5.61,15.91 h 98.77 l 4.48,-11.94 h -17.91 c -3.3,0 -5.97,-2.67 -5.97,-5.97 0,-3.3 2.67,-5.97 5.97,-5.97 h 41.78 c 3.3,0 5.97,2.67 5.97,5.97 0,3.3 -2.67,5.97 -5.97,5.97 h -11.13 l -35.81,95.5 h 88.72 v -65.66 c 0,-13.19 10.69,-23.88 23.88,-23.88 h 83.56 v -65.66 h 11.94 v 95.5 h -17.91 m -300.26,24.98 c -25.77,-5.59 -51.2,10.77 -56.79,36.54 -5.59,25.77 10.77,51.2 36.54,56.79 25.77,5.59 51.2,-10.77 56.79,-36.54 4.63,-21.31 -5.78,-43.05 -25.28,-52.82 l -15.76,44.68 c -1.1,3.11 -4.51,4.74 -7.61,3.64 -3.11,-1.1 -4.74,-4.51 -3.64,-7.61 l 15.76,-44.68 m 25.68,-36.9 v 5.07 l 69.39,72.53 29.1,-77.59 h -98.48 m 304.4,-95.51 v -5.97 c 0,-3.3 -2.67,-5.97 -5.97,-5.97 H 495.17 c -3.3,0 -5.97,2.67 -5.97,5.97 0,3.3 2.67,5.97 5.97,5.97 H 602.61 M 525.1,351.74 h 47.66 c 3.3,0 5.97,2.67 5.97,5.97 0,3.3 -2.67,5.97 -5.97,5.97 h -46.9 c 4.94,25.9 29.95,42.89 55.86,37.95 25.91,-4.94 42.89,-29.95 37.95,-55.86 -4.94,-25.9 -29.95,-42.89 -55.86,-37.95 -21.41,4.09 -37.34,22.16 -38.7,43.92 z"
         id="path17" />
    </g>
    <g
       id="LWPOLYLINE-3"
       data-name="LWPOLYLINE">
      <path
         class="cls-5"
         d="m 525.1,351.74 h 47.66 c 3.3,0 5.97,2.67 5.97,5.97 0,3.3 -2.67,5.97 -5.97,5.97 h -46.9 c 4.94,25.9 29.95,42.89 55.86,37.95 25.91,-4.94 42.89,-29.95 37.95,-55.86 -4.94,-25.91 -29.95,-42.89 -55.86,-37.95 -21.41,4.09 -37.34,22.16 -38.7,43.92 z"
         id="path18" />
    </g>
    <g
       id="LWPOLYLINE-4"
       data-name="LWPOLYLINE">
      <path
         class="cls-5"
         d="m 602.61,175.66 v -5.97 c 0,-3.3 -2.67,-5.97 -5.97,-5.97 H 495.17 c -3.3,0 -5.97,2.67 -5.97,5.97 0,3.3 2.67,5.97 5.97,5.97 z"
         id="path19" />
    </g>
    <g
       id="LWPOLYLINE-5"
       data-name="LWPOLYLINE">
      <polygon
         class="cls-5"
         points="367.58,348.75 396.68,271.16 298.2,271.16 298.2,276.23 "
         id="polygon19" />
    </g>
    <g
       id="LWPOLYLINE-6"
       data-name="LWPOLYLINE">
      <path
         class="cls-5"
         d="m 272.51,308.06 c -25.77,-5.59 -51.2,10.77 -56.79,36.54 -5.59,25.77 10.77,51.2 36.54,56.79 25.77,5.59 51.2,-10.77 56.79,-36.54 4.63,-21.31 -5.78,-43.05 -25.28,-52.82 l -15.76,44.68 c -1.1,3.11 -4.51,4.74 -7.61,3.64 -3.1,-1.1 -4.74,-4.51 -3.64,-7.61 l 15.76,-44.68 z"
         id="path20" />
    </g>
    <g
       id="LWPOLYLINE-7"
       data-name="LWPOLYLINE">
      <path
         class="cls-5"
         d="m 572.76,283.1 c -38.4,0 -69.96,30.28 -71.56,68.64 h 11.95 c 1.42,-28.34 22.6,-51.77 50.66,-56.03 32.59,-4.94 63.02,17.47 67.97,50.06 4.95,32.59 -17.47,63.02 -50.06,67.97 -32.59,4.95 -63.02,-17.47 -67.97,-50.06 H 367.88 c -1.63,0 -3.19,-0.67 -4.31,-1.84 l -71.13,-74.37 -4.67,13.23 c 25.69,12.07 39.33,40.56 32.61,68.15 -7.8,32.03 -40.09,51.67 -72.12,43.87 -32.03,-7.8 -51.67,-40.09 -43.87,-72.12 7.8,-32.03 40.09,-51.67 72.12,-43.87 l 20.24,-57.39 c 3.37,-9.55 12.39,-15.94 22.52,-15.94 h 14.75 c 3.3,0 5.97,2.67 5.97,5.97 0,3.3 -2.67,5.97 -5.97,5.97 h -14.75 c -5.06,0 -9.57,3.19 -11.26,7.97 l -5.61,15.91 h 98.77 l 4.48,-11.94 h -17.91 c -3.3,0 -5.97,-2.67 -5.97,-5.97 0,-3.3 2.67,-5.97 5.97,-5.97 h 41.78 c 3.3,0 5.97,2.67 5.97,5.97 0,3.3 -2.67,5.97 -5.97,5.97 h -11.13 l -35.81,95.5 h 88.72 v -65.66 c 0,-13.19 10.69,-23.88 23.88,-23.88 h 83.56 v -65.66 h 11.94 v 95.5 c 0,0 -17.91,0 -17.91,0 z"
         id="path21" />
    </g>
  </g>
</svg>
