<?xml version="1.0" encoding="UTF-8" standalone="no"?>
<svg
   version="1.1"
   viewBox="0 0 550.13 550.13"
   id="svg99"
   sodipodi:docname="SIS-19_30x30.svg"
   width="550.13"
   height="550.13"
   inkscape:version="1.2.2 (b0a8486541, 2022-12-01)"
   xmlns:inkscape="http://www.inkscape.org/namespaces/inkscape"
   xmlns:sodipodi="http://sodipodi.sourceforge.net/DTD/sodipodi-0.dtd"
   xmlns="http://www.w3.org/2000/svg"
   xmlns:svg="http://www.w3.org/2000/svg">
  <sodipodi:namedview
     id="namedview101"
     pagecolor="#ffffff"
     bordercolor="#000000"
     borderopacity="0.25"
     inkscape:showpageshadow="2"
     inkscape:pageopacity="0.0"
     inkscape:pagecheckerboard="0"
     inkscape:deskcolor="#d1d1d1"
     showgrid="false"
     inkscape:zoom="0.7484375"
     inkscape:cx="276.5762"
     inkscape:cy="527.76618"
     inkscape:window-width="1920"
     inkscape:window-height="1014"
     inkscape:window-x="0"
     inkscape:window-y="29"
     inkscape:window-maximized="1"
     inkscape:current-layer="svg99" />
  <defs
     id="defs4">
    <style
       id="style2">
      .cls-1 {
        fill: #32479d;
      }

      .cls-2 {
        fill-rule: evenodd;
      }

      .cls-2, .cls-3 {
        fill: #fff;
      }

      .cls-3, .cls-4 {
        stroke: #000;
      }

      .cls-3, .cls-4, .cls-5 {
        stroke-linecap: round;
        stroke-linejoin: round;
      }

      .cls-4, .cls-5 {
        fill: none;
      }

      .cls-5 {
        stroke: #fff;
      }
    </style>
  </defs>
  <!-- Generator: Adobe Illustrator 28.6.0, SVG Export Plug-In . SVG Version: 1.2.0 Build 709)  -->
  <g
     id="sis_x5F_Fondo_del_tablero"
     transform="translate(-684.44,-12.36)">
    <g
       id="HATCH">
      <rect
         class="cls-1"
         x="699.59003"
         y="27.5"
         width="519.84003"
         height="519.84003"
         rx="21.969999"
         ry="21.969999"
         id="rect44" />
    </g>
  </g>
  <g
     id="sis_x5F_Pictograma_y_filete"
     transform="translate(-684.44,-12.36)">
    <g
       id="HATCH-2"
       data-name="HATCH">
      <path
         class="cls-2"
         d="m 721.55,561.99 h 475.91 c 20.22,0 36.61,-16.39 36.61,-36.61 V 49.47 c 0,-20.22 -16.39,-36.61 -36.61,-36.61 H 721.55 c -20.22,0 -36.61,16.39 -36.61,36.61 v 475.91 c 0,20.22 16.39,36.61 36.61,36.61 m 0,-14.65 h 475.91 c 12.13,0 21.97,-9.83 21.97,-21.97 V 49.47 c 0,-12.13 -9.83,-21.97 -21.97,-21.97 H 721.55 c -12.13,0 -21.97,9.83 -21.97,21.97 v 475.91 c 0,12.13 9.83,21.97 21.97,21.97 z"
         id="path48" />
    </g>
    <g
       id="LWPOLYLINE">
      <rect
         class="cls-5"
         x="699.59003"
         y="27.5"
         width="519.84003"
         height="519.84003"
         rx="21.969999"
         ry="21.969999"
         id="rect51" />
    </g>
    <g
       id="LWPOLYLINE-2"
       data-name="LWPOLYLINE">
      <rect
         class="cls-5"
         x="684.94"
         y="12.86"
         width="549.13"
         height="549.13"
         rx="36.610001"
         ry="36.610001"
         id="rect54" />
    </g>
    <g
       id="HATCH-3"
       data-name="HATCH">
      <path
         class="cls-2"
         d="m 1141.23,296.71 -6.63,-86.22 c 0,-7.33 -5.94,-13.26 -13.26,-13.26 h -66.32 v 99.48 h 86.22 m -6.65,145.9 h -39.79 c -3.66,0 -6.63,-2.97 -6.63,-6.63 v -33.16 c 0,0 -79.58,0 -79.58,0 v 33.16 c 0,3.66 -2.97,6.63 -6.63,6.63 h -39.79 c -3.66,0 -6.63,-2.97 -6.63,-6.63 v -33.16 h -19.9 c -7.33,0 -13.26,-5.94 -13.26,-13.26 l 6.63,-218.86 c 0,-14.65 11.88,-26.53 26.53,-26.53 h 185.7 c 14.65,0 26.53,11.88 26.53,26.53 l 6.63,218.86 v 0 c 0,7.33 -5.94,13.26 -13.26,13.26 h -19.9 v 33.16 c 0,3.66 -2.97,6.63 -6.63,6.63 m -179.08,-145.9 6.63,-86.22 c 0,-7.33 5.94,-13.26 13.26,-13.26 h 66.32 v 99.48 h -86.22 m 53.07,-139.27 h 79.58 v 19.9 h -79.58 v -19.9 m 0,198.96 c 0,-14.65 -11.88,-26.53 -26.53,-26.53 -14.65,0 -26.53,11.88 -26.53,26.53 0,14.65 11.88,26.53 26.53,26.53 14.65,0 26.53,-11.88 26.53,-26.53 m 132.64,0 c 0,-14.65 -11.88,-26.53 -26.53,-26.53 -14.65,0 -26.53,11.88 -26.53,26.53 0,14.65 11.88,26.53 26.53,26.53 14.65,0 26.53,-11.88 26.53,-26.53 m -223.5,74.27 H 750.6 l 11.94,11.94 H 917.73 V 430.67 M 811.94,264.98 c 0,-7.39 -5.99,-13.37 -13.37,-13.37 -7.38,0 -13.37,5.99 -13.37,13.37 0,7.38 5.99,13.37 13.37,13.37 7.38,0 13.37,-5.99 13.37,-13.37 m 49.38,-6.68 c 1.52,0.62 2.72,1.82 3.34,3.34 0.63,3.69 -0.63,7.45 -3.34,10.03 -2.92,2.11 -6.42,3.28 -10.03,3.34 2.76,-0.9 4.26,-3.87 3.36,-6.63 0,-0.02 -0.01,-0.04 -0.02,-0.06 -0.78,-2.16 -0.78,-4.53 0,-6.69 0.97,-2.72 3.92,-4.2 6.69,-3.34 m 30.08,6.69 c 0,-7.39 -5.99,-13.37 -13.37,-13.37 -7.38,0 -13.37,5.99 -13.37,13.37 0,7.38 5.99,13.37 13.37,13.37 7.38,0 13.37,-5.99 13.37,-13.37 m -124.26,40.79 14.04,-18.72 c 2.64,-3.52 6.85,-5.52 11.25,-5.34 7.38,0.31 13.11,6.54 12.8,13.92 l -0.71,17.18 c -0.04,0.92 0.3,1.81 0.95,2.47 l 23.92,24.51 c 2.08,2.05 2.1,5.4 0.05,7.48 -2.05,2.08 -5.4,2.1 -7.48,0.05 l -18.08,-19.03 c -0.08,-0.09 -0.22,-0.09 -0.31,0 -0.03,0.03 -0.06,0.08 -0.06,0.12 l -1.6,10.13 20.97,37.46 c 0.5,0.8 0.76,1.72 0.76,2.66 v 45.06 c 0,3.85 -3.12,6.96 -6.96,6.96 -3.84,0 -6.96,-3.12 -6.96,-6.96 v -38.37 c 0,-0.96 -0.28,-1.9 -0.79,-2.71 l -15.37,-27.38 c -0.24,-0.92 -1.18,-1.48 -2.1,-1.24 -0.61,0.16 -1.08,0.63 -1.24,1.24 l -11.7,70.2 c -0.92,3.69 -4.66,5.94 -8.36,5.01 -3.69,-0.92 -5.94,-4.66 -5.01,-8.36 l 10.03,-83.58 3.27,-26.99 c 0.05,-0.49 -0.31,-0.92 -0.8,-0.96 -0.31,-0.03 -0.62,0.11 -0.8,0.37 l -2.64,3.37 c -0.14,0.17 -0.24,0.38 -0.28,0.6 l -5.44,30.3 c -0.93,2.75 -3.9,4.24 -6.66,3.33 -2.77,-0.91 -4.28,-3.9 -3.36,-6.68 l 6.91,-32.19 c 0.3,-1.42 0.91,-2.75 1.78,-3.91 m 135.94,77.77 v 40.17 c 0,3.85 -3.12,6.96 -6.96,6.96 -3.84,0 -6.96,-3.12 -6.96,-6.96 v -35.89 l -22.17,6.82 c -1.27,0.39 -2.63,0.39 -3.9,0.01 l -5.13,30.8 c -0.92,3.69 -4.66,5.94 -8.36,5.01 -3.69,-0.92 -5.94,-4.66 -5.01,-8.36 l 4.03,-33.61 -4.56,-1.95 c -1.6,-0.68 -2.4,-2.47 -1.86,-4.12 l 11.2,-33.86 1.2,-10.03 3.27,-26.99 c 0.05,-0.49 -0.31,-0.92 -0.8,-0.96 -0.31,-0.03 -0.62,0.11 -0.8,0.37 l -2.64,3.37 c -0.14,0.17 -0.24,0.38 -0.28,0.6 l -5.44,30.3 c -0.93,2.75 -3.9,4.24 -6.66,3.33 -2.77,-0.91 -4.28,-3.9 -3.36,-6.68 l 6.91,-32.19 c 0.3,-1.42 0.91,-2.75 1.78,-3.91 l 14.04,-18.72 c 2.64,-3.52 6.85,-5.52 11.25,-5.34 7.38,0.31 13.11,6.54 12.8,13.92 l -0.71,17.18 c -0.04,0.92 0.3,1.81 0.95,2.47 l 23.92,24.51 c 2.08,2.05 2.1,5.4 0.05,7.48 -2.05,2.08 -5.4,2.1 -7.48,0.05 l -18.08,-19.03 c -0.08,-0.09 -0.22,-0.09 -0.31,0 -0.03,0.03 -0.06,0.08 -0.06,0.12 l -1.6,10.13 24.48,39.78 c 0.15,0.24 0.27,0.5 0.35,0.77 0.54,1.76 -0.45,3.64 -2.21,4.18 z"
         id="path57" />
    </g>
    <g
       id="LWPOLYLINE-3"
       data-name="LWPOLYLINE">
      <path
         class="cls-5"
         d="m 903.1,383.54 v 40.17 c 0,3.85 -3.12,6.96 -6.96,6.96 -3.84,0 -6.96,-3.12 -6.96,-6.96 v -35.89 l -22.17,6.82 c -1.27,0.39 -2.63,0.39 -3.9,0.01 l -5.13,30.8 c -0.92,3.69 -4.66,5.94 -8.36,5.01 -3.7,-0.93 -5.94,-4.66 -5.01,-8.36 l 4.03,-33.61 -4.56,-1.95 c -1.6,-0.68 -2.4,-2.47 -1.86,-4.12 l 11.2,-33.86 1.2,-10.03 3.27,-26.99 c 0.05,-0.49 -0.31,-0.92 -0.8,-0.96 -0.31,-0.03 -0.62,0.11 -0.8,0.37 l -2.64,3.37 c -0.14,0.17 -0.24,0.38 -0.28,0.6 l -5.44,30.3 c -0.93,2.75 -3.9,4.24 -6.66,3.33 -2.76,-0.91 -4.28,-3.9 -3.36,-6.68 l 6.91,-32.19 c 0.3,-1.42 0.91,-2.75 1.78,-3.91 l 14.04,-18.72 c 2.64,-3.52 6.85,-5.52 11.25,-5.34 7.38,0.31 13.11,6.54 12.8,13.92 l -0.71,17.18 c -0.04,0.92 0.3,1.81 0.95,2.47 l 23.92,24.51 c 2.08,2.05 2.1,5.4 0.05,7.48 -2.05,2.08 -5.4,2.1 -7.48,0.05 l -18.08,-19.03 c -0.08,-0.09 -0.22,-0.09 -0.31,0 -0.03,0.03 -0.06,0.08 -0.06,0.12 l -1.6,10.13 24.48,39.78 c 0.15,0.24 0.27,0.5 0.35,0.77 0.54,1.76 -0.45,3.64 -2.21,4.18 z"
         id="path60" />
    </g>
    <g
       id="LWPOLYLINE-4"
       data-name="LWPOLYLINE">
      <path
         class="cls-5"
         d="m 767.14,305.77 14.04,-18.72 c 2.64,-3.52 6.85,-5.52 11.25,-5.34 7.38,0.31 13.11,6.54 12.8,13.92 l -0.71,17.18 c -0.04,0.92 0.3,1.81 0.95,2.47 l 23.92,24.51 c 2.08,2.05 2.1,5.4 0.05,7.48 -2.05,2.08 -5.4,2.1 -7.48,0.05 l -18.08,-19.03 c -0.08,-0.09 -0.22,-0.09 -0.31,0 -0.03,0.03 -0.06,0.08 -0.06,0.12 l -1.6,10.13 20.97,37.46 c 0.5,0.8 0.76,1.72 0.76,2.66 v 45.06 c 0,3.85 -3.12,6.96 -6.96,6.96 -3.84,0 -6.96,-3.12 -6.96,-6.96 v -38.37 c 0,-0.96 -0.28,-1.9 -0.79,-2.71 l -15.37,-27.38 c -0.24,-0.92 -1.18,-1.48 -2.1,-1.24 -0.61,0.16 -1.08,0.63 -1.24,1.24 l -11.7,70.2 c -0.92,3.69 -4.66,5.94 -8.36,5.01 -3.7,-0.93 -5.94,-4.66 -5.01,-8.36 l 10.03,-83.58 3.27,-26.99 c 0.05,-0.49 -0.31,-0.92 -0.8,-0.96 -0.31,-0.03 -0.62,0.11 -0.8,0.37 l -2.64,3.37 c -0.14,0.17 -0.24,0.38 -0.28,0.6 l -5.44,30.3 c -0.93,2.75 -3.9,4.24 -6.66,3.33 -2.76,-0.91 -4.28,-3.9 -3.36,-6.68 l 6.91,-32.19 c 0.3,-1.42 0.91,-2.75 1.78,-3.91 z"
         id="path63" />
    </g>
    <g
       id="CIRCLE">
      <circle
         class="cls-5"
         cx="878.03003"
         cy="264.98001"
         r="13.37"
         id="circle66" />
    </g>
    <g
       id="LWPOLYLINE-5"
       data-name="LWPOLYLINE">
      <path
         class="cls-5"
         d="m 861.32,258.3 c 1.52,0.62 2.72,1.82 3.34,3.34 0.63,3.69 -0.63,7.45 -3.34,10.03 -2.92,2.11 -6.42,3.28 -10.03,3.34 2.76,-0.9 4.26,-3.87 3.36,-6.63 0,-0.02 -0.01,-0.04 -0.02,-0.06 -0.78,-2.16 -0.78,-4.53 0,-6.69 0.97,-2.72 3.92,-4.2 6.69,-3.34"
         id="path69" />
    </g>
    <g
       id="CIRCLE-2"
       data-name="CIRCLE">
      <circle
         class="cls-5"
         cx="798.56"
         cy="264.98001"
         r="13.37"
         id="circle72" />
    </g>
    <g
       id="LWPOLYLINE-6"
       data-name="LWPOLYLINE">
      <polygon
         class="cls-5"
         points="917.73,430.67 750.6,430.67 762.54,442.61 917.73,442.61 "
         id="polygon75" />
    </g>
    <g
       id="CIRCLE-3"
       data-name="CIRCLE">
      <circle
         class="cls-5"
         cx="1114.7"
         cy="356.39999"
         r="26.530001"
         id="circle78" />
    </g>
    <g
       id="CIRCLE-4"
       data-name="CIRCLE">
      <circle
         class="cls-5"
         cx="982.06"
         cy="356.39999"
         r="26.530001"
         id="circle81" />
    </g>
    <g
       id="LWPOLYLINE-7"
       data-name="LWPOLYLINE">
      <rect
         class="cls-5"
         x="1008.59"
         y="157.44"
         width="79.580002"
         height="19.9"
         id="rect84" />
    </g>
    <g
       id="LWPOLYLINE-8"
       data-name="LWPOLYLINE">
      <path
         class="cls-5"
         d="m 955.53,296.71 6.63,-86.22 c 0,-7.33 5.94,-13.26 13.26,-13.26 h 66.32 v 99.48 h -86.22 z"
         id="path87" />
    </g>
    <g
       id="LWPOLYLINE-9"
       data-name="LWPOLYLINE">
      <path
         class="cls-5"
         d="m 1134.59,442.61 h -39.79 c -3.66,0 -6.63,-2.97 -6.63,-6.63 v -33.16 c 0,0 -79.58,0 -79.58,0 v 33.16 c 0,3.66 -2.97,6.63 -6.63,6.63 h -39.79 c -3.66,0 -6.63,-2.97 -6.63,-6.63 v -33.16 h -19.9 c -7.33,0 -13.26,-5.94 -13.26,-13.26 l 6.63,-218.86 c 0,-14.65 11.88,-26.53 26.53,-26.53 h 185.7 c 14.65,0 26.53,11.88 26.53,26.53 l 6.63,218.86 v 0 c 0,7.33 -5.94,13.26 -13.26,13.26 h -19.9 c 0,0 0,33.16 0,33.16 0,3.66 -2.97,6.63 -6.63,6.63 z"
         id="path90" />
    </g>
    <g
       id="LWPOLYLINE-10"
       data-name="LWPOLYLINE">
      <path
         class="cls-5"
         d="m 1141.23,296.71 -6.63,-86.22 c 0,-7.33 -5.94,-13.26 -13.26,-13.26 h -66.32 v 99.48 h 86.22 z"
         id="path93" />
    </g>
  </g>
</svg>
