<?xml version="1.0" encoding="UTF-8" standalone="no"?>
<!-- Created with Inkscape (http://www.inkscape.org/) -->

<svg
   width="714mm"
   height="714mm"
   viewBox="0 0 714 714"
   version="1.1"
   id="svg46906"
   inkscape:version="1.2.1 (9c6d41e410, 2022-07-14)"
   sodipodi:docname="Mexico road sign SIS-12 (2023).svg"
   xmlns:inkscape="http://www.inkscape.org/namespaces/inkscape"
   xmlns:sodipodi="http://sodipodi.sourceforge.net/DTD/sodipodi-0.dtd"
   xmlns="http://www.w3.org/2000/svg"
   xmlns:svg="http://www.w3.org/2000/svg">
  <sodipodi:namedview
     id="namedview46908"
     pagecolor="#ffffff"
     bordercolor="#000000"
     borderopacity="0.25"
     inkscape:showpageshadow="2"
     inkscape:pageopacity="0.0"
     inkscape:pagecheckerboard="0"
     inkscape:deskcolor="#d1d1d1"
     inkscape:document-units="mm"
     showgrid="false"
     inkscape:zoom="0.76257015"
     inkscape:cx="1408.395"
     inkscape:cy="1191.3658"
     inkscape:window-width="1920"
     inkscape:window-height="991"
     inkscape:window-x="-9"
     inkscape:window-y="-9"
     inkscape:window-maximized="1"
     inkscape:current-layer="layer1" />
  <defs
     id="defs46903" />
  <g
     inkscape:label="Livello 1"
     inkscape:groupmode="layer"
     id="layer1"
     transform="translate(267.48416,250.48266)">
    <g
       id="g17340"
       transform="translate(-14223.899,-8970.2802)">
      <g
         id="g489-1-9-0-8-0-4-1-4"
         transform="translate(11588.908,4764.07)">
        <rect
           style="fill:#000000;stroke-width:3.70491;stroke-opacity:0.578462;paint-order:fill markers stroke"
           id="rect20798-0-7-9-3-3-6-2-8-3-9-2-9"
           width="714"
           height="714"
           x="-4669.7275"
           y="2367.5068"
           ry="42"
           rx="42"
           transform="rotate(-90)" />
        <rect
           style="fill:#ffffff;stroke-width:3.68415;stroke-opacity:0.578462;paint-order:fill markers stroke"
           id="rect20798-0-7-9-5-8-9-1-0-1-5-2"
           width="710"
           height="710"
           x="-4667.7271"
           y="2369.5068"
           ry="40"
           rx="40"
           transform="rotate(-90)" />
        <rect
           style="fill:#32479d;stroke-width:3.47659;stroke-opacity:0.578462;paint-order:fill markers stroke"
           id="rect20798-4-7-0-6-3-4-1-2-1-9-3-9"
           width="670"
           height="670"
           x="-4647.7275"
           y="2389.5063"
           ry="20"
           rx="20"
           transform="rotate(-90)" />
      </g>
      <path
         id="rect16445-9"
         style="fill:#ffffff;stroke-width:48.199;paint-order:fill markers stroke"
         d="m 14346.256,8928.7256 c -7.044,0 -13.198,3.675 -16.664,9.217 h -115.508 c -3.465,-5.537 -9.615,-9.208 -16.656,-9.208 h -141.762 c -10.879,0 -19.64,8.76 -19.64,19.639 0,10.88 8.761,19.64 19.64,19.64 h 141.762 c 7.041,0 13.191,-3.671 16.656,-9.207 h 44.871 v 26.548 h -95.121 l -114.928,85.766 c -27.002,24.365 -12.686,88.37 34.368,88.37 h 109.321 l -20.985,42.345 h -47.814 v 0 c -5.297,0 -10.293,-1.445 -13.061,-3.601 -2.77,-2.173 -5.086,-4.861 -5.086,-14.209 h -30.039 c 0,16.318 6.616,30.033 16.595,37.858 9.978,7.828 21.597,9.999 31.591,9.999 h 254.634 c 8.521,0 15.387,-6.704 15.387,-15.033 v -0.01 c 0,-8.327 -6.866,-15.023 -15.387,-15.023 h -85.635 l 21.001,-42.361 c 28.137,-0.168 39.203,-6.967 46.868,-20.24 l 46.64,-63.209 c 8.251,-12.034 22.026,-21.308 36.209,-27.617 l 66.281,-22.704 c 14.986,-5.52 27.557,-14.935 38.049,-28.223 l 42.961,-60.425 h -52.151 l -28.859,48.299 h -225.071 v -26.548 h 44.879 c 3.467,5.532 9.617,9.199 16.654,9.199 h 141.78 c 10.882,0 19.649,-8.759 19.649,-19.64 0,-10.882 -8.767,-19.64 -19.649,-19.64 z m -119.925,230.765 h 53.713 l -20.985,42.345 h -53.724 z" />
      <rect
         style="fill:#a70000;fill-opacity:0.593846;stroke-width:30.2307;stroke-opacity:0.796923;paint-order:fill markers stroke"
         id="rect17060-0"
         width="2.4547863"
         height="1.2273932"
         x="14252.652"
         y="8955.1221"
         rx="15.031393"
         ry="1.2273932" />
      <path
         style="fill:#32479d;stroke-width:30.0628;paint-order:fill markers stroke"
         d="m 14221.475,9018.5616 v 63.468 l -123.948,-0.01 v -11.718 l 77.571,-56.784 h 41.337 c 2.932,0 5.038,2.347 5.038,5.039 z"
         id="path17283-7"
         sodipodi:nodetypes="ccccccc" />
      <path
         style="fill:#32479d;stroke-width:30.0628;paint-order:fill markers stroke"
         d="m 14233.735,9013.5226 v 68.507 h 94.115 c 31.319,0 59.886,-39.621 59.886,-68.507 z"
         id="path17285-6"
         sodipodi:nodetypes="ccccc" />
    </g>
  </g>
</svg>
