<?xml version="1.0" encoding="UTF-8" standalone="no"?>
<!-- Created with Inkscape (http://www.inkscape.org/) -->

<svg
   width="714mm"
   height="714mm"
   viewBox="0 0 714 714"
   version="1.1"
   id="svg15080"
   inkscape:version="1.2.1 (9c6d41e410, 2022-07-14)"
   sodipodi:docname="Mexico road sign SIS-02 (2023).svg"
   xmlns:inkscape="http://www.inkscape.org/namespaces/inkscape"
   xmlns:sodipodi="http://sodipodi.sourceforge.net/DTD/sodipodi-0.dtd"
   xmlns="http://www.w3.org/2000/svg"
   xmlns:svg="http://www.w3.org/2000/svg">
  <sodipodi:namedview
     id="namedview15082"
     pagecolor="#ffffff"
     bordercolor="#000000"
     borderopacity="0.25"
     inkscape:showpageshadow="2"
     inkscape:pageopacity="0.0"
     inkscape:pagecheckerboard="0"
     inkscape:deskcolor="#d1d1d1"
     inkscape:document-units="mm"
     showgrid="false"
     inkscape:zoom="0.76257015"
     inkscape:cx="1476.5855"
     inkscape:cy="1023.5124"
     inkscape:window-width="1920"
     inkscape:window-height="991"
     inkscape:window-x="-9"
     inkscape:window-y="-9"
     inkscape:window-maximized="1"
     inkscape:current-layer="layer1" />
  <defs
     id="defs15077" />
  <g
     inkscape:label="Livello 1"
     inkscape:groupmode="layer"
     id="layer1"
     transform="translate(285.5257,294.89366)">
    <g
       id="g10920"
       transform="translate(387.62536,-8313.9449)">
      <g
         id="g489-1-9-1-9"
         transform="translate(-3040.6579,4063.3237)">
        <rect
           style="fill:#000000;stroke-width:3.70491;stroke-opacity:0.578462;paint-order:fill markers stroke"
           id="rect20798-0-7-9-3-3-6-7-7"
           width="714"
           height="714"
           x="-4669.7275"
           y="2367.5068"
           ry="42"
           rx="42"
           transform="rotate(-90)" />
        <rect
           style="fill:#ffffff;stroke-width:3.68415;stroke-opacity:0.578462;paint-order:fill markers stroke"
           id="rect20798-0-7-9-5-8-48-4"
           width="710"
           height="710"
           x="-4667.7271"
           y="2369.5068"
           ry="40"
           rx="40"
           transform="rotate(-90)" />
        <rect
           style="fill:#32479d;stroke-width:3.47659;stroke-opacity:0.578462;paint-order:fill markers stroke"
           id="rect20798-4-7-0-6-3-4-50-6"
           width="670"
           height="670"
           x="-4647.7275"
           y="2389.5063"
           ry="20"
           rx="20"
           transform="rotate(-90)" />
      </g>
      <path
         id="path7816-7"
         style="color:#000000;fill:#ffffff;stroke-width:16.7949;paint-order:fill markers stroke"
         d="m -316.15121,8172.3088 c -27.0095,0 -44.9598,13.7718 -64.5627,25.0915 l -0.5207,0.3359 -224.7941,145.0353 v 59.9459 l 35.7227,-23.0426 v 206.4642 l 508.309695,0.01 v -206.4642 l 35.7226,23.0426 v -59.9459 l -224.794095,-145.0336 -0.5206,-0.3359 c -19.6029,-11.3197 -37.5533,-25.0915 -64.5628,-25.0915 z m 0,50.3913 v 0.01 c 8.337,0 17.7555,5.9 38.9339,18.1384 l 164.8398,106.3349 v 188.5861 l -407.5473,-0.01 v -188.5861 l 164.8398,-106.3349 c 21.1783,-12.2384 30.5969,-18.1384 38.9338,-18.1384 z" />
      <path
         id="rect8279-6"
         style="fill:#ffffff;stroke-width:50.8392;stroke-opacity:0.683077;paint-order:fill markers stroke"
         d="m -384.16021,8463.5064 c -29.9318,0 -54.0341,24.1022 -54.0341,54.0357 h 220.5752 c 0,-29.9335 -24.0939,-54.0357 -54.0257,-54.0357 z" />
      <ellipse
         style="fill:#ffffff;stroke-width:50.6461;stroke-opacity:0.683077;paint-order:fill markers stroke"
         id="path8492-8"
         cx="-465.48636"
         cy="8490.5195"
         rx="26.736202"
         ry="27.014521" />
    </g>
  </g>
</svg>
