<?xml version="1.0" encoding="UTF-8" standalone="no"?>
<svg
   viewBox="0 0 550.03003 550.03006"
   version="1.1"
   id="svg23"
   sodipodi:docname="SR-12B3_30x30.svg"
   width="550.03003"
   height="550.03003"
   inkscape:version="1.5-dev (9bf5e73, 2025-04-11, custom)"
   xmlns:inkscape="http://www.inkscape.org/namespaces/inkscape"
   xmlns:sodipodi="http://sodipodi.sourceforge.net/DTD/sodipodi-0.dtd"
   xmlns="http://www.w3.org/2000/svg"
   xmlns:svg="http://www.w3.org/2000/svg">
  <sodipodi:namedview
     id="namedview23"
     pagecolor="#ffffff"
     bordercolor="#000000"
     borderopacity="0.25"
     inkscape:showpageshadow="2"
     inkscape:pageopacity="0.0"
     inkscape:pagecheckerboard="0"
     inkscape:deskcolor="#d1d1d1"
     showgrid="false"
     inkscape:zoom="0.70204951"
     inkscape:cx="275.62159"
     inkscape:cy="532.72596"
     inkscape:window-width="1920"
     inkscape:window-height="1032"
     inkscape:window-maximized="1"
     inkscape:current-layer="svg23" />
  <defs
     id="defs1">
    <style
       id="style1">
      .cls-1, .cls-2 {
        fill: #fff;
      }

      .cls-2, .cls-3 {
        stroke: #000;
      }

      .cls-2, .cls-3, .cls-4 {
        stroke-linecap: round;
        stroke-linejoin: round;
      }

      .cls-5 {
        fill: #bd2025;
      }

      .cls-5, .cls-6 {
        fill-rule: evenodd;
      }

      .cls-3, .cls-4 {
        fill: none;
      }

      .cls-4 {
        stroke: #bd2025;
      }
    </style>
  </defs>
  <g
     id="sr_Fondo_del_tablero"
     data-name="sr_Fondo del tablero"
     transform="translate(-142.99001,-14.02)">
    <g
       id="HATCH">
      <rect
         class="cls-1"
         x="150.81"
         y="21.84"
         width="534.39001"
         height="534.39001"
         rx="29.280001"
         ry="29.280001"
         id="rect3" />
    </g>
  </g>
  <g
     id="sr_Pictograma_y_filete"
     data-name="sr_Pictograma y filete"
     transform="translate(-142.99001,-14.02)">
    <g
       id="CIRCLE">
      <circle
         class="cls-3"
         cx="499.95001"
         cy="403.32999"
         r="14.46"
         id="circle3" />
    </g>
    <g
       id="HATCH-2"
       data-name="HATCH">
      <path
         class="cls-6"
         d="m 507.52,283.06 v -88.08 c 0,-10.99 -8.91,-19.89 -19.89,-19.89 H 385.28 l 31.64,-27.31 -23.1,-23.1 -65.33,65.33 65.33,65.33 23.1,-23.1 -31.64,-27.31 h 82.46 c 5.49,0 9.95,4.45 9.95,9.95 v 68.19 c 0,0 29.84,0 29.84,0 m -132.9,120.26 v -62.66 c 0,-2.66 -2.16,-4.82 -4.82,-4.82 h -28.92 c -1.99,0 -3.78,1.23 -4.5,3.09 l -9.96,25.83 -28.92,4.82 c -2.66,0 -4.82,2.16 -4.82,4.82 v 19.28 c 0,2.66 2.16,4.82 4.82,4.82 0.16,0 0.33,0 0.49,-0.03 2.3,-11.21 12.17,-19.26 23.61,-19.26 13.31,0 24.1,10.79 24.1,24.1 h 28.92 m 4.82,0.01 h 96.4 c 0,-13.31 10.79,-24.1 24.1,-24.1 13.31,0 24.1,10.79 24.1,24.1 h 9.64 v -14.46 h 9.64 V 306.93 H 384.27 c -2.66,0 -4.82,2.16 -4.82,4.82 v 91.58 m 134.96,0 c 0,-7.99 -6.47,-14.46 -14.46,-14.46 -7.99,0 -14.46,6.47 -14.46,14.46 0,7.99 6.47,14.46 14.46,14.46 7.99,0 14.46,-6.47 14.46,-14.46 M 342.09,369.44 c -0.39,0.1 -0.8,0.15 -1.21,0.15 -2.66,0 -4.82,-2.16 -4.82,-4.82 l 5.05,-15.92 c 0.63,-2 2.49,-3.36 4.59,-3.36 h 14.46 c 2.66,0 4.82,2.16 4.82,4.82 v 9.64 c 0,2.21 -1.51,4.14 -3.65,4.68 l -19.24,4.81 m -6.02,33.89 c 0,-7.99 -6.47,-14.46 -14.46,-14.46 -7.99,0 -14.46,6.47 -14.46,14.46 0,7.99 6.47,14.46 14.46,14.46 7.99,0 14.46,-6.47 14.46,-14.46 z"
         id="path3" />
    </g>
    <g
       id="LWPOLYLINE">
      <circle
         class="cls-3"
         cx="321.60001"
         cy="403.32999"
         r="14.46"
         id="circle4" />
    </g>
    <g
       id="LWPOLYLINE-2"
       data-name="LWPOLYLINE">
      <path
         class="cls-3"
         d="m 342.09,369.44 c -0.39,0.1 -0.8,0.15 -1.21,0.15 -2.66,0 -4.82,-2.16 -4.82,-4.82 l 5.05,-15.92 c 0.63,-2 2.49,-3.36 4.59,-3.36 h 14.46 c 2.66,0 4.82,2.16 4.82,4.82 v 9.64 c 0,2.21 -1.51,4.14 -3.65,4.68 z"
         id="path4" />
    </g>
    <g
       id="LWPOLYLINE-3"
       data-name="LWPOLYLINE">
      <path
         class="cls-3"
         d="m 379.45,403.33 h 96.4 c 0,-13.31 10.79,-24.1 24.1,-24.1 13.31,0 24.1,10.79 24.1,24.1 h 9.64 v -14.46 h 9.64 v -81.94 c 0,0 -159.06,0 -159.06,0 -2.66,0 -4.82,2.16 -4.82,4.82 z"
         id="path5" />
    </g>
    <g
       id="LWPOLYLINE-4"
       data-name="LWPOLYLINE">
      <path
         class="cls-3"
         d="m 374.63,403.33 v -62.66 c 0,-2.66 -2.16,-4.82 -4.82,-4.82 h -28.92 c -1.99,0 -3.78,1.23 -4.5,3.09 l -9.96,25.83 -28.92,4.82 c -2.66,0 -4.82,2.16 -4.82,4.82 v 19.28 c 0,2.66 2.16,4.82 4.82,4.82 0.16,0 0.33,0 0.49,-0.03 2.3,-11.21 12.17,-19.26 23.61,-19.26 13.31,0 24.1,10.79 24.1,24.1 h 28.92 z"
         id="path6" />
    </g>
    <g
       id="LWPOLYLINE-5"
       data-name="LWPOLYLINE">
      <path
         class="cls-3"
         d="m 507.52,283.06 v -88.08 c 0,-10.99 -8.91,-19.89 -19.89,-19.89 H 385.28 l 31.64,-27.31 -23.1,-23.1 -65.33,65.33 65.33,65.33 23.1,-23.1 -31.64,-27.31 h 82.46 c 5.49,0 9.95,4.45 9.95,9.95 v 68.19 h 29.84 z"
         id="path7" />
    </g>
    <g
       id="HATCH-3"
       data-name="HATCH">
      <path
         class="cls-6"
         d="m 180.09,556.22 h 475.82 c 16.17,0 29.28,-13.11 29.28,-29.28 V 51.12 c 0,-16.17 -13.11,-29.28 -29.28,-29.28 H 180.09 c -16.17,0 -29.28,13.11 -29.28,29.28 v 475.82 c 0,16.17 13.11,29.28 29.28,29.28 m 0,7.32 h 475.82 c 20.21,0 36.6,-16.39 36.6,-36.6 V 51.12 c 0,-20.21 -16.39,-36.6 -36.6,-36.6 H 180.09 c -20.21,0 -36.6,16.39 -36.6,36.6 v 475.82 c 0,20.21 16.39,36.6 36.6,36.6 z"
         id="path8" />
    </g>
    <g
       id="LWPOLYLINE-6"
       data-name="LWPOLYLINE">
      <rect
         class="cls-3"
         x="143.49001"
         y="14.52"
         width="549.03003"
         height="549.03003"
         rx="36.599998"
         ry="36.599998"
         id="rect8" />
    </g>
    <g
       id="LWPOLYLINE-7"
       data-name="LWPOLYLINE">
      <rect
         class="cls-3"
         x="150.81"
         y="21.84"
         width="534.39001"
         height="534.39001"
         rx="29.280001"
         ry="29.280001"
         id="rect9" />
    </g>
  </g>
  <g
     id="sr_Circunferencia_roja"
     data-name="sr_Circunferencia roja"
     transform="translate(-142.99001,-14.02)">
    <g
       id="CIRCLE-2"
       data-name="CIRCLE">
      <circle
         class="cls-4"
         cx="418.01001"
         cy="289.03"
         r="237.91"
         id="circle22" />
    </g>
    <g
       id="CIRCLE-3"
       data-name="CIRCLE">
      <circle
         class="cls-4"
         cx="418.01001"
         cy="289.03"
         r="192.16"
         id="circle23" />
    </g>
    <g
       id="HATCH-4"
       data-name="HATCH">
      <path
         class="cls-5"
         d="m 610.17,289.03 c 0,-106.13 -86.03,-192.16 -192.16,-192.16 -106.13,0 -192.16,86.03 -192.16,192.16 0,106.13 86.03,192.16 192.16,192.16 106.13,0 192.16,-86.03 192.16,-192.16 m 45.75,0 C 655.92,157.63 549.4,51.12 418.01,51.12 286.62,51.12 180.1,157.64 180.1,289.03 c 0,131.39 106.52,237.91 237.91,237.91 131.4,0 237.91,-106.52 237.91,-237.91 z"
         id="path23" />
    </g>
  </g>
</svg>
