<?xml version="1.0" encoding="UTF-8" standalone="no"?>
<svg
   viewBox="0 0 554.58001 554.57999"
   version="1.1"
   id="svg12"
   sodipodi:docname="SR-14B1_30x30.svg"
   width="554.58002"
   height="554.58002"
   inkscape:version="1.4.2 (f4327f4, 2025-05-13)"
   xmlns:inkscape="http://www.inkscape.org/namespaces/inkscape"
   xmlns:sodipodi="http://sodipodi.sourceforge.net/DTD/sodipodi-0.dtd"
   xmlns="http://www.w3.org/2000/svg"
   xmlns:svg="http://www.w3.org/2000/svg">
  <sodipodi:namedview
     id="namedview12"
     pagecolor="#50505000"
     bordercolor="#ffffffff"
     borderopacity="1"
     inkscape:showpageshadow="0"
     inkscape:pageopacity="0"
     inkscape:pagecheckerboard="1"
     inkscape:deskcolor="#505050ff"
     inkscape:zoom="0.45213736"
     inkscape:cx="287.52325"
     inkscape:cy="540.76487"
     inkscape:window-width="1366"
     inkscape:window-height="697"
     inkscape:window-x="-8"
     inkscape:window-y="-8"
     inkscape:window-maximized="1"
     inkscape:current-layer="svg12" />
  <defs
     id="defs1">
    <style
       id="style1">
      .cls-1, .cls-2 {
        fill: #fff;
      }

      .cls-2, .cls-3 {
        stroke: #000;
      }

      .cls-2, .cls-3, .cls-4 {
        stroke-linecap: round;
        stroke-linejoin: round;
      }

      .cls-5 {
        fill: #bd2025;
      }

      .cls-5, .cls-6 {
        fill-rule: evenodd;
      }

      .cls-3, .cls-4 {
        fill: none;
      }

      .cls-4 {
        stroke: #bd2025;
      }

      .cls-7 {
        font-family: ArialMT, Arial;
        font-size: 156.38px;
      }
    </style>
  </defs>
  <g
     id="sr_Fondo_del_tablero"
     data-name="sr_Fondo del tablero"
     transform="translate(-129.92999,-5.9200001)">
    <g
       id="HATCH">
      <rect
         class="cls-1"
         x="137.82001"
         y="13.8"
         width="538.82001"
         height="538.82001"
         rx="29.52"
         ry="29.52"
         id="rect3" />
    </g>
  </g>
  <g
     id="sr_Pictograma_y_filete"
     data-name="sr_Pictograma y filete"
     transform="translate(-129.92999,-5.9200001)">
    <g
       id="HATCH-2"
       data-name="HATCH">
      <path
         class="cls-6"
         d="m 333.51,198.04 h -42 v 2.16 l 29.59,30.93 12.41,-33.09 m -14.12,38.68 -30.34,-31.72 -1.99,5.64 c 10.96,5.15 16.77,17.3 13.91,29.06 -3.33,13.66 -17.1,22.04 -30.76,18.71 -13.66,-3.33 -22.04,-17.1 -18.71,-30.76 3.33,-13.66 17.1,-22.04 30.76,-18.71 l 8.63,-24.48 c 1.44,-4.07 5.29,-6.8 9.6,-6.8 h 6.29 c 1.41,0 2.55,1.14 2.55,2.55 0,1.41 -1.14,2.55 -2.55,2.55 h -6.29 c -2.16,0 -4.08,1.36 -4.8,3.4 l -2.39,6.78 h 42.12 l 1.91,-5.09 h -7.64 c -1.41,0 -2.55,-1.14 -2.55,-2.55 0,-1.41 1.14,-2.55 2.55,-2.55 h 17.82 c 1.41,0 2.55,1.14 2.55,2.55 0,1.41 -1.14,2.55 -2.55,2.55 h -4.75 l -2.97,7.92 8.82,14.12 c 1.7,-0.65 3.46,-1.11 5.26,-1.39 13.9,-2.11 26.88,7.45 28.99,21.35 2.11,13.9 -7.45,26.88 -21.35,28.99 -13.9,2.11 -26.88,-7.45 -28.99,-21.35 h -11.3 c -0.69,0 -1.36,-0.28 -1.84,-0.79 m -38.83,-22.92 -6.72,19.06 c -0.47,1.33 0.23,2.78 1.55,3.25 1.33,0.47 2.78,-0.23 3.25,-1.55 l 6.72,-19.06 c 8.32,4.17 12.75,13.44 10.78,22.53 -2.39,10.99 -13.23,17.97 -24.22,15.58 -10.99,-2.39 -17.97,-13.23 -15.58,-24.22 2.39,-10.99 13.23,-17.97 24.22,-15.58 m 56.82,18.62 h 19.31 l -9.94,-15.9 c -5.49,3.5 -8.97,9.41 -9.38,15.9 m 6.69,-20.21 -6.5,-10.41 -11.48,30.62 h 6.21 c 0.41,-8.25 4.8,-15.79 11.78,-20.22 m -6.37,25.31 h 23.59 c 1.41,0 2.55,-1.14 2.55,-2.55 0,-0.48 -0.13,-0.94 -0.39,-1.35 l -12.05,-19.29 c 0.82,-0.27 1.65,-0.48 2.5,-0.64 11.05,-2.11 21.71,5.14 23.82,16.19 2.11,11.05 -5.14,21.71 -16.19,23.82 -11.05,2.11 -21.71,-5.14 -23.82,-16.19 m -2.68,178.1 -60.17,-60.17 21.27,-21.27 25.16,29.14 v -80.07 h 27.48 v 80.07 l 25.16,-29.14 21.27,21.27 -60.17,60.17 m 144.41,-264.76 78.22,78.22 -27.66,27.66 -32.7,-37.88 V 415.59 H 461.56 V 218.83 c 0,0 -32.7,37.88 -32.7,37.88 l -27.66,-27.66 78.22,-78.22 z"
         id="path4" />
    </g>
    <g
       id="LWPOLYLINE">
      <polygon
         class="cls-3"
         points="530,256.71 497.3,218.83 497.3,415.59 461.57,415.59 461.57,218.83 428.86,256.71 401.21,229.06 479.43,150.83 557.66,229.06 "
         id="polygon4" />
    </g>
    <g
       id="LWPOLYLINE-2"
       data-name="LWPOLYLINE">
      <polygon
         class="cls-3"
         points="296.12,334.14 321.28,363.28 321.28,283.21 348.76,283.21 348.76,363.28 373.92,334.14 395.19,355.42 335.02,415.59 274.85,355.42 "
         id="polygon5" />
    </g>
    <g
       id="LWPOLYLINE-3"
       data-name="LWPOLYLINE">
      <path
         class="cls-3"
         d="m 337.69,237.5 h 23.59 c 1.41,0 2.55,-1.14 2.55,-2.55 0,-0.48 -0.13,-0.94 -0.39,-1.35 l -12.05,-19.29 c 0.82,-0.27 1.65,-0.48 2.5,-0.64 11.05,-2.11 21.71,5.14 23.82,16.19 2.11,11.05 -5.14,21.71 -16.19,23.82 -11.05,2.11 -21.71,-5.14 -23.82,-16.19 z"
         id="path5" />
    </g>
    <g
       id="LWPOLYLINE-4"
       data-name="LWPOLYLINE">
      <path
         class="cls-3"
         d="m 344.05,212.2 -6.5,-10.41 -11.48,30.62 h 6.21 c 0.41,-8.25 4.8,-15.79 11.78,-20.22 z"
         id="path6" />
    </g>
    <g
       id="LWPOLYLINE-5"
       data-name="LWPOLYLINE">
      <path
         class="cls-3"
         d="m 337.37,232.41 h 19.31 l -9.94,-15.9 c -5.49,3.5 -8.97,9.41 -9.38,15.9 z"
         id="path7" />
    </g>
    <g
       id="LWPOLYLINE-6"
       data-name="LWPOLYLINE">
      <path
         class="cls-3"
         d="m 280.55,213.78 -6.72,19.06 c -0.47,1.33 0.23,2.78 1.55,3.25 1.32,0.47 2.78,-0.23 3.25,-1.55 l 6.72,-19.06 c 8.32,4.17 12.75,13.44 10.78,22.53 -2.39,10.99 -13.23,17.97 -24.22,15.58 -10.99,-2.39 -17.97,-13.23 -15.58,-24.22 2.39,-10.99 13.23,-17.97 24.22,-15.58 z"
         id="path8" />
    </g>
    <g
       id="LWPOLYLINE-7"
       data-name="LWPOLYLINE">
      <path
         class="cls-3"
         d="M 319.39,236.72 289.05,205 l -1.99,5.64 c 10.96,5.15 16.77,17.3 13.91,29.06 -3.33,13.66 -17.1,22.04 -30.76,18.71 -13.66,-3.33 -22.04,-17.1 -18.71,-30.76 3.33,-13.66 17.1,-22.04 30.76,-18.71 l 8.63,-24.48 c 1.44,-4.07 5.29,-6.8 9.6,-6.8 h 6.29 c 1.41,0 2.55,1.14 2.55,2.55 0,1.41 -1.14,2.55 -2.55,2.55 h -6.29 c -2.16,0 -4.08,1.36 -4.8,3.4 l -2.39,6.78 h 42.12 l 1.91,-5.09 h -7.64 c -1.41,0 -2.55,-1.14 -2.55,-2.55 0,-1.41 1.14,-2.55 2.55,-2.55 h 17.82 c 1.41,0 2.55,1.14 2.55,2.55 0,1.41 -1.14,2.55 -2.55,2.55 h -4.75 l -2.97,7.92 8.82,14.12 c 1.7,-0.65 3.46,-1.11 5.26,-1.39 13.9,-2.11 26.88,7.45 28.99,21.35 2.11,13.9 -7.45,26.88 -21.35,28.99 -13.9,2.11 -26.88,-7.45 -28.99,-21.35 h -11.3 c -0.69,0 -1.36,-0.28 -1.84,-0.79 z"
         id="path9" />
    </g>
    <g
       id="LWPOLYLINE-8"
       data-name="LWPOLYLINE">
      <polygon
         class="cls-3"
         points="291.51,200.21 321.1,231.14 333.51,198.04 291.51,198.04 "
         id="polygon9" />
    </g>
    <g
       id="HATCH-3"
       data-name="HATCH">
      <path
         class="cls-6"
         d="m 167.34,552.62 h 479.77 c 16.31,0 29.52,-13.22 29.52,-29.52 V 43.33 c 0,-16.31 -13.22,-29.52 -29.52,-29.52 H 167.34 c -16.31,0 -29.52,13.22 -29.52,29.52 V 523.1 c 0,16.31 13.22,29.52 29.52,29.52 m 0,7.38 h 479.77 c 20.38,0 36.91,-16.52 36.91,-36.91 V 43.33 C 684.02,22.95 667.5,6.42 647.11,6.42 H 167.34 c -20.38,0 -36.91,16.52 -36.91,36.91 V 523.1 c 0,20.38 16.52,36.91 36.91,36.91 z"
         id="path10" />
    </g>
    <g
       id="LWPOLYLINE-9"
       data-name="LWPOLYLINE">
      <rect
         class="cls-3"
         x="130.42999"
         y="6.4200001"
         width="553.58002"
         height="553.58002"
         rx="36.91"
         ry="36.91"
         id="rect10" />
    </g>
    <g
       id="LWPOLYLINE-10"
       data-name="LWPOLYLINE">
      <rect
         class="cls-3"
         x="137.82001"
         y="13.8"
         width="538.82001"
         height="538.82001"
         rx="29.52"
         ry="29.52"
         id="rect11" />
    </g>
  </g>
  <g
     id="sr_Circunferencia_roja"
     data-name="sr_Circunferencia roja"
     transform="translate(-129.92999,-5.9200001)">
    <g
       id="CIRCLE">
      <circle
         class="cls-4"
         cx="407.23001"
         cy="283.20999"
         r="239.89"
         id="circle11" />
    </g>
    <g
       id="CIRCLE-2"
       data-name="CIRCLE">
      <circle
         class="cls-4"
         cx="407.23001"
         cy="283.20999"
         r="193.75"
         id="circle12" />
    </g>
    <g
       id="HATCH-4"
       data-name="HATCH">
      <path
         class="cls-5"
         d="m 600.98,283.21 c 0,-107.01 -86.75,-193.75 -193.75,-193.75 -107,0 -193.75,86.75 -193.75,193.75 0,107 86.75,193.75 193.75,193.75 107,0 193.75,-86.75 193.75,-193.75 m 46.13,0 c 0,-132.48 -107.4,-239.89 -239.89,-239.89 -132.49,0 -239.89,107.4 -239.89,239.89 0,132.49 107.4,239.89 239.89,239.89 132.48,0 239.89,-107.4 239.89,-239.89 z"
         id="path12" />
    </g>
  </g>
</svg>
