<?xml version="1.0" encoding="UTF-8" standalone="no"?>
<svg
   version="1.1"
   viewBox="0 0 554.03003 554.03003"
   id="svg31"
   sodipodi:docname="SR-19A1_30x30.svg"
   width="554.03003"
   height="554.03003"
   inkscape:version="1.3.2 (091e20e, 2023-11-25, custom)"
   xmlns:inkscape="http://www.inkscape.org/namespaces/inkscape"
   xmlns:sodipodi="http://sodipodi.sourceforge.net/DTD/sodipodi-0.dtd"
   xmlns="http://www.w3.org/2000/svg"
   xmlns:svg="http://www.w3.org/2000/svg">
  <sodipodi:namedview
     id="namedview31"
     pagecolor="#ffffff"
     bordercolor="#000000"
     borderopacity="0.25"
     inkscape:showpageshadow="2"
     inkscape:pageopacity="0.0"
     inkscape:pagecheckerboard="0"
     inkscape:deskcolor="#d1d1d1"
     inkscape:zoom="0.4421875"
     inkscape:cx="288.33922"
     inkscape:cy="534.84099"
     inkscape:window-width="1366"
     inkscape:window-height="715"
     inkscape:window-x="-8"
     inkscape:window-y="-8"
     inkscape:window-maximized="1"
     inkscape:current-layer="svg31" />
  <defs
     id="defs1">
    <style
       id="style1">
      .cls-1, .cls-2 {
        fill: #fff;
      }

      .cls-2, .cls-3 {
        stroke: #000;
      }

      .cls-2, .cls-3, .cls-4 {
        stroke-linecap: round;
        stroke-linejoin: round;
      }

      .cls-5 {
        fill: #bd2025;
      }

      .cls-5, .cls-6 {
        fill-rule: evenodd;
      }

      .cls-3, .cls-4 {
        fill: none;
      }

      .cls-4 {
        stroke: #bd2025;
      }
    </style>
  </defs>
  <!-- Generator: Adobe Illustrator 28.6.0, SVG Export Plug-In . SVG Version: 1.2.0 Build 709)  -->
  <g
     id="sr_x5F_Fondo_del_tablero"
     transform="translate(-672.15997,-4.8099999)">
    <g
       id="HATCH">
      <rect
         class="cls-1"
         x="680.03003"
         y="12.68"
         width="538.28998"
         height="538.28998"
         rx="29.5"
         ry="29.5"
         id="rect3" />
    </g>
  </g>
  <g
     id="sr_x5F_Pictograma_y_filete"
     transform="translate(-672.15997,-4.8099999)">
    <g
       id="CIRCLE">
      <circle
         class="cls-3"
         cx="1053.58"
         cy="326.42999"
         r="17.719999"
         id="circle3" />
    </g>
    <g
       id="CIRCLE-2"
       data-name="CIRCLE">
      <circle
         class="cls-3"
         cx="964.98999"
         cy="326.42999"
         r="17.719999"
         id="circle4" />
    </g>
    <g
       id="CIRCLE-3"
       data-name="CIRCLE">
      <circle
         class="cls-3"
         cx="891.35999"
         cy="260.78"
         r="8.9799995"
         id="circle5" />
    </g>
    <g
       id="CIRCLE-4"
       data-name="CIRCLE">
      <circle
         class="cls-3"
         cx="838.02002"
         cy="260.78"
         r="8.9799995"
         id="circle6" />
    </g>
    <g
       id="HATCH-2"
       data-name="HATCH">
      <path
         class="cls-6"
         d="M 816.5,384.02 H 919.12 V 372 H 808.06 c 2.64,4.13 5.46,8.14 8.45,12.02 m 0.42,-95.86 9.42,-12.57 c 1.77,-2.37 4.6,-3.71 7.55,-3.58 4.95,0.21 8.8,4.39 8.59,9.34 l -0.48,11.53 c -0.03,0.62 0.2,1.22 0.64,1.66 l 16.05,16.45 c 1.39,1.38 1.41,3.62 0.03,5.02 -1.38,1.4 -3.62,1.41 -5.02,0.03 l -12.14,-12.78 c -0.06,-0.06 -0.15,-0.06 -0.21,0 -0.02,0.02 -0.04,0.05 -0.04,0.08 l -1.08,6.8 14.07,25.14 c 0.33,0.54 0.51,1.15 0.51,1.79 v 30.24 c 0,2.58 -2.09,4.67 -4.67,4.67 -2.58,0 -4.67,-2.09 -4.67,-4.67 v -25.76 c 0,-0.64 -0.18,-1.27 -0.53,-1.82 l -10.31,-18.38 c -0.16,-0.62 -0.79,-0.99 -1.41,-0.83 -0.41,0.11 -0.73,0.42 -0.83,0.83 l -7.85,47.12 c -0.62,2.48 -3.13,3.99 -5.61,3.37 -2.48,-0.62 -3.99,-3.13 -3.37,-5.61 l 6.73,-56.1 2.2,-18.11 c 0.03,-0.33 -0.21,-0.62 -0.54,-0.65 -0.21,-0.02 -0.42,0.07 -0.54,0.25 l -1.77,2.26 c -0.1,0.12 -0.16,0.25 -0.19,0.4 l -3.65,20.34 c -0.62,1.85 -2.62,2.85 -4.47,2.24 -1.86,-0.61 -2.87,-2.62 -2.26,-4.48 l 4.64,-21.61 c 0.2,-0.95 0.61,-1.85 1.2,-2.63 m 30.07,-27.36 c 0,-4.96 -4.02,-8.98 -8.98,-8.98 -4.96,0 -8.98,4.02 -8.98,8.98 0,4.96 4.02,8.98 8.98,8.98 4.96,0 8.98,-4.02 8.98,-8.98 m 33.15,-4.48 c 1.02,0.42 1.83,1.22 2.24,2.24 0.42,2.48 -0.42,5 -2.24,6.73 -1.96,1.42 -4.31,2.2 -6.73,2.24 1.85,-0.6 2.86,-2.6 2.26,-4.45 0,-0.01 0,-0.03 -0.01,-0.04 -0.52,-1.45 -0.52,-3.04 0,-4.49 0.65,-1.83 2.63,-2.82 4.49,-2.24 m 28.04,84.06 v 26.96 c 0,2.58 -2.09,4.67 -4.67,4.67 -2.58,0 -4.67,-2.09 -4.67,-4.67 v -24.09 l -14.88,4.58 c -0.85,0.26 -1.76,0.26 -2.62,0 l -3.45,20.67 c -0.62,2.48 -3.13,3.99 -5.61,3.37 -2.48,-0.62 -3.99,-3.13 -3.37,-5.61 l 2.71,-22.56 -3.06,-1.31 c -1.07,-0.46 -1.61,-1.66 -1.25,-2.77 l 7.52,-22.73 0.81,-6.73 2.2,-18.11 c 0.03,-0.33 -0.21,-0.62 -0.54,-0.65 -0.21,-0.02 -0.42,0.07 -0.54,0.25 l -1.77,2.26 c -0.1,0.12 -0.16,0.25 -0.19,0.4 l -3.65,20.34 c -0.62,1.85 -2.62,2.85 -4.47,2.24 -1.86,-0.61 -2.87,-2.62 -2.26,-4.48 l 4.64,-21.61 c 0.2,-0.95 0.61,-1.85 1.2,-2.63 l 9.42,-12.57 c 1.77,-2.37 4.6,-3.71 7.55,-3.58 4.95,0.21 8.8,4.39 8.59,9.34 l -0.48,11.53 c -0.03,0.62 0.2,1.22 0.64,1.66 l 16.05,16.45 c 1.39,1.38 1.41,3.62 0.03,5.02 -1.38,1.4 -3.62,1.41 -5.02,0.03 l -12.14,-12.78 c -0.06,-0.06 -0.15,-0.06 -0.21,0 -0.02,0.02 -0.04,0.05 -0.04,0.08 l -1.08,6.8 16.43,26.7 c 0.1,0.16 0.18,0.33 0.23,0.52 0.36,1.18 -0.3,2.44 -1.48,2.8 l -0.6,0.18 m -7.83,-79.54 c 0,-4.96 -4.02,-8.98 -8.98,-8.98 -4.96,0 -8.98,4.02 -8.98,8.98 0,4.96 4.02,8.98 8.98,8.98 4.96,0 8.98,-4.02 8.98,-8.98 m 170.96,25.79 -4.43,-57.58 c 0,-4.89 -3.97,-8.86 -8.86,-8.86 h -44.29 v 66.44 h 57.58 m -4.42,97.45 h -26.58 c -2.45,0 -4.43,-1.98 -4.43,-4.43 v -22.15 c 0,0 -53.15,0 -53.15,0 v 22.15 c 0,2.45 -1.98,4.43 -4.43,4.43 H 951.7 c -2.45,0 -4.43,-1.98 -4.43,-4.43 v -22.15 h -13.29 c -4.89,0 -8.86,-3.97 -8.86,-8.86 l 4.43,-146.17 c 0,-9.78 7.93,-17.72 17.72,-17.72 h 124.02 c 9.78,0 17.72,7.93 17.72,17.72 l 4.43,146.17 v 0 c 0,4.89 -3.97,8.86 -8.86,8.86 h -13.29 v 22.15 c 0,2.45 -1.98,4.43 -4.43,4.43 m -119.59,-97.45 4.43,-57.58 c 0,-4.89 3.97,-8.86 8.86,-8.86 h 44.29 v 66.44 h -57.58 m 35.44,-93.02 h 53.15 v 13.29 h -53.15 v -13.29 m 0,132.88 c 0,-9.78 -7.93,-17.72 -17.72,-17.72 -9.79,0 -17.72,7.93 -17.72,17.72 0,9.79 7.93,17.72 17.72,17.72 9.79,0 17.72,-7.93 17.72,-17.72 m 88.58,0 c 0,-9.78 -7.93,-17.72 -17.72,-17.72 -9.79,0 -17.72,7.93 -17.72,17.72 0,9.79 7.93,17.72 17.72,17.72 9.79,0 17.72,-7.93 17.72,-17.72 z"
         id="path6" />
    </g>
    <g
       id="LWPOLYLINE">
      <rect
         class="cls-3"
         x="982.71002"
         y="193.55"
         width="53.150002"
         height="13.29"
         id="rect6" />
    </g>
    <g
       id="LWPOLYLINE-2"
       data-name="LWPOLYLINE">
      <path
         class="cls-3"
         d="m 947.27,286.57 4.43,-57.58 c 0,-4.89 3.97,-8.86 8.86,-8.86 h 44.29 v 66.44 z"
         id="path7" />
    </g>
    <g
       id="LWPOLYLINE-3"
       data-name="LWPOLYLINE">
      <path
         class="cls-3"
         d="m 1066.87,384.02 h -26.58 c -2.45,0 -4.43,-1.98 -4.43,-4.43 v -22.15 c 0,0 -53.15,0 -53.15,0 v 22.15 c 0,2.45 -1.98,4.43 -4.43,4.43 H 951.7 c -2.45,0 -4.43,-1.98 -4.43,-4.43 v -22.15 h -13.29 c -4.89,0 -8.86,-3.97 -8.86,-8.86 l 4.43,-146.17 c 0,-9.78 7.93,-17.72 17.72,-17.72 h 124.02 c 9.78,0 17.72,7.93 17.72,17.72 l 4.43,146.17 v 0 c 0,4.89 -3.97,8.86 -8.86,8.86 h -13.29 c 0,0 0,22.15 0,22.15 0,2.45 -1.98,4.43 -4.43,4.43 z"
         id="path8" />
    </g>
    <g
       id="LWPOLYLINE-4"
       data-name="LWPOLYLINE">
      <path
         class="cls-3"
         d="m 1071.29,286.57 -4.43,-57.58 c 0,-4.89 -3.97,-8.86 -8.86,-8.86 h -44.29 v 66.44 z"
         id="path9" />
    </g>
    <g
       id="LWPOLYLINE-5"
       data-name="LWPOLYLINE">
      <path
         class="cls-3"
         d="m 908.19,340.35 v 26.96 c 0,2.58 -2.09,4.67 -4.67,4.67 -2.58,0 -4.67,-2.09 -4.67,-4.67 v -24.09 l -14.88,4.58 c -0.85,0.26 -1.76,0.26 -2.62,0 l -3.45,20.67 c -0.62,2.48 -3.13,3.99 -5.61,3.37 -2.48,-0.62 -3.99,-3.13 -3.37,-5.61 l 2.71,-22.56 -3.06,-1.31 c -1.07,-0.46 -1.61,-1.66 -1.25,-2.77 l 7.52,-22.73 0.81,-6.73 2.2,-18.11 c 0.03,-0.33 -0.21,-0.62 -0.54,-0.65 -0.21,-0.02 -0.42,0.07 -0.54,0.25 l -1.77,2.26 c -0.1,0.12 -0.16,0.25 -0.19,0.4 l -3.65,20.34 c -0.62,1.85 -2.62,2.85 -4.47,2.24 -1.85,-0.61 -2.87,-2.62 -2.26,-4.48 l 4.64,-21.61 c 0.2,-0.95 0.61,-1.85 1.2,-2.63 l 9.42,-12.57 c 1.77,-2.37 4.6,-3.71 7.55,-3.58 4.95,0.21 8.8,4.39 8.59,9.34 l -0.48,11.53 c -0.03,0.62 0.2,1.22 0.64,1.66 l 16.05,16.45 c 1.39,1.38 1.41,3.62 0.03,5.02 -1.38,1.4 -3.62,1.41 -5.02,0.03 l -12.14,-12.78 c -0.06,-0.06 -0.15,-0.06 -0.21,0 -0.02,0.02 -0.04,0.05 -0.04,0.08 l -1.08,6.8 16.43,26.7 c 0.1,0.16 0.18,0.33 0.23,0.52 0.36,1.18 -0.3,2.44 -1.48,2.8 l -0.6,0.18 z"
         id="path10" />
    </g>
    <g
       id="LWPOLYLINE-6"
       data-name="LWPOLYLINE">
      <path
         class="cls-3"
         d="m 880.14,256.3 c 1.02,0.42 1.83,1.22 2.24,2.24 0.42,2.48 -0.42,5 -2.24,6.73 -1.96,1.42 -4.31,2.2 -6.73,2.24 1.85,-0.6 2.86,-2.6 2.26,-4.45 0,-0.01 0,-0.03 -0.01,-0.04 -0.52,-1.45 -0.52,-3.04 0,-4.49 0.65,-1.83 2.63,-2.82 4.49,-2.24"
         id="path11" />
    </g>
    <g
       id="LWPOLYLINE-7"
       data-name="LWPOLYLINE">
      <path
         class="cls-3"
         d="m 816.93,288.16 9.42,-12.57 c 1.77,-2.37 4.6,-3.71 7.55,-3.58 4.95,0.21 8.8,4.39 8.59,9.34 l -0.48,11.53 c -0.03,0.62 0.2,1.22 0.64,1.66 l 16.05,16.45 c 1.39,1.38 1.41,3.62 0.03,5.02 -1.38,1.4 -3.62,1.41 -5.02,0.03 l -12.14,-12.78 c -0.06,-0.06 -0.15,-0.06 -0.21,0 -0.02,0.02 -0.04,0.05 -0.04,0.08 l -1.08,6.8 14.07,25.14 c 0.33,0.54 0.51,1.15 0.51,1.79 v 30.24 c 0,2.58 -2.09,4.67 -4.67,4.67 -2.58,0 -4.67,-2.09 -4.67,-4.67 v -25.76 c 0,-0.64 -0.18,-1.27 -0.53,-1.82 l -10.31,-18.38 c -0.16,-0.62 -0.79,-0.99 -1.41,-0.83 -0.41,0.11 -0.73,0.42 -0.83,0.83 l -7.85,47.12 c -0.62,2.48 -3.13,3.99 -5.61,3.37 -2.48,-0.62 -3.99,-3.13 -3.37,-5.61 l 6.73,-56.1 2.2,-18.11 c 0.03,-0.33 -0.21,-0.62 -0.54,-0.65 -0.21,-0.02 -0.42,0.07 -0.54,0.25 l -1.77,2.26 c -0.1,0.12 -0.16,0.25 -0.19,0.4 l -3.65,20.34 c -0.62,1.85 -2.62,2.85 -4.47,2.24 -1.85,-0.61 -2.87,-2.62 -2.26,-4.48 l 4.64,-21.61 c 0.2,-0.95 0.61,-1.85 1.2,-2.63 z"
         id="path12" />
    </g>
    <g
       id="LWPOLYLINE-8"
       data-name="LWPOLYLINE">
      <path
         class="cls-3"
         d="M 816.5,384.02 H 919.12 V 372 H 808.06 c 2.64,4.13 5.46,8.14 8.45,12.02 z"
         id="path13" />
    </g>
    <g
       id="HATCH-3"
       data-name="HATCH">
      <path
         class="cls-6"
         d="m 709.52,550.97 h 479.3 c 16.29,0 29.5,-13.21 29.5,-29.5 V 42.18 c 0,-16.29 -13.21,-29.5 -29.5,-29.5 h -479.3 c -16.29,0 -29.5,13.21 -29.5,29.5 v 479.3 c 0,16.29 13.21,29.5 29.5,29.5 m 0,7.36 h 479.3 c 20.36,0 36.87,-16.51 36.87,-36.87 V 42.18 c 0,-20.36 -16.51,-36.87 -36.87,-36.87 h -479.3 c -20.36,0 -36.87,16.51 -36.87,36.87 v 479.3 c 0,20.36 16.51,36.87 36.87,36.87 z"
         id="path14" />
    </g>
    <g
       id="LWPOLYLINE-9"
       data-name="LWPOLYLINE">
      <rect
         class="cls-3"
         x="672.65997"
         y="5.3099999"
         width="553.03003"
         height="553.03003"
         rx="36.869999"
         ry="36.869999"
         id="rect14" />
    </g>
    <g
       id="LWPOLYLINE-10"
       data-name="LWPOLYLINE">
      <rect
         class="cls-3"
         x="680.03003"
         y="12.68"
         width="538.28998"
         height="538.28998"
         rx="29.5"
         ry="29.5"
         id="rect15" />
    </g>
  </g>
  <g
     id="sr_x5F_Circunferencia_roja"
     transform="translate(-672.15997,-4.8099999)">
    <g
       id="LWPOLYLINE-11"
       data-name="LWPOLYLINE">
      <path
         class="cls-4"
         d="M 1101.36,401.43 829.57,129.64 c 70.19,-55.16 169.01,-55.16 239.2,0 84.05,66.05 98.64,187.74 32.59,271.79 z"
         id="path29" />
    </g>
    <g
       id="LWPOLYLINE-12"
       data-name="LWPOLYLINE">
      <path
         class="cls-4"
         d="M 1068.77,434.01 796.98,162.22 c -66.05,84.05 -51.46,205.74 32.59,271.79 70.19,55.16 169.01,55.16 239.2,0 z"
         id="path30" />
    </g>
    <g
       id="CIRCLE-5"
       data-name="CIRCLE">
      <circle
         class="cls-4"
         cx="949.16998"
         cy="281.82001"
         r="239.64999"
         id="circle30" />
    </g>
    <g
       id="HATCH-4"
       data-name="HATCH">
      <path
         class="cls-5"
         d="m 1188.82,281.82 c 0,-132.35 -107.29,-239.65 -239.65,-239.65 -132.36,0 -239.65,107.29 -239.65,239.65 0,132.36 107.29,239.65 239.65,239.65 132.35,0 239.65,-107.29 239.65,-239.65 M 1068.77,434.01 796.98,162.22 c -66.05,84.05 -51.46,205.74 32.59,271.79 70.19,55.16 169.01,55.16 239.2,0 m 32.59,-32.58 -271.79,-271.79 c 70.19,-55.16 169.01,-55.16 239.2,0 84.05,66.05 98.64,187.74 32.59,271.79 z"
         id="path31" />
    </g>
  </g>
</svg>
