<?xml version="1.0" encoding="UTF-8" standalone="no"?>
<svg
   viewBox="0 0 554.03003 554.03003"
   version="1.1"
   id="svg24"
   sodipodi:docname="SR-13A1_30x30.svg"
   width="554.03003"
   height="554.03003"
   inkscape:version="1.5-dev (9bf5e73, 2025-04-11, custom)"
   xmlns:inkscape="http://www.inkscape.org/namespaces/inkscape"
   xmlns:sodipodi="http://sodipodi.sourceforge.net/DTD/sodipodi-0.dtd"
   xmlns="http://www.w3.org/2000/svg"
   xmlns:svg="http://www.w3.org/2000/svg">
  <sodipodi:namedview
     id="namedview24"
     pagecolor="#ffffff"
     bordercolor="#000000"
     borderopacity="0.25"
     inkscape:showpageshadow="2"
     inkscape:pageopacity="0.0"
     inkscape:pagecheckerboard="0"
     inkscape:deskcolor="#d1d1d1"
     showgrid="false"
     inkscape:zoom="0.72469728"
     inkscape:cx="287.70634"
     inkscape:cy="540.22557"
     inkscape:window-width="1920"
     inkscape:window-height="1032"
     inkscape:window-maximized="1"
     inkscape:current-layer="svg24" />
  <defs
     id="defs1">
    <style
       id="style1">
      .cls-1, .cls-2 {
        fill: #fff;
      }

      .cls-2, .cls-3 {
        stroke: #000;
      }

      .cls-2, .cls-3, .cls-4 {
        stroke-linecap: round;
        stroke-linejoin: round;
      }

      .cls-5 {
        fill: #bd2025;
      }

      .cls-5, .cls-6 {
        fill-rule: evenodd;
      }

      .cls-3, .cls-4 {
        fill: none;
      }

      .cls-4 {
        stroke: #bd2025;
      }
    </style>
  </defs>
  <g
     id="sr_Fondo_del_tablero"
     data-name="sr_Fondo del tablero"
     transform="translate(-130.22,-6.4499998)">
    <g
       id="HATCH">
      <rect
         class="cls-1"
         x="138.09"
         y="14.32"
         width="538.28998"
         height="538.28998"
         rx="29.5"
         ry="29.5"
         id="rect3" />
    </g>
  </g>
  <g
     id="sr_Pictograma_y_filete"
     data-name="sr_Pictograma y filete"
     transform="translate(-130.22,-6.4499998)">
    <g
       id="CIRCLE">
      <circle
         class="cls-3"
         cx="473.35999"
         cy="155.45"
         r="22.26"
         id="circle3" />
    </g>
    <g
       id="HATCH-2"
       data-name="HATCH">
      <path
         class="cls-6"
         d="m 503.64,268.24 c -0.24,-1.51 -0.09,-3.06 0.45,-4.49 l 10.54,-28.13 c 0.31,-0.71 0.47,-1.47 0.47,-2.25 0,-0.78 -0.16,-1.54 -0.47,-2.25 L 503.67,217.2 c -0.48,-0.6 -1.35,-0.71 -1.95,-0.23 -0.34,0.26 -0.53,0.67 -0.53,1.09 v 51.49 c 0.71,-0.62 1.55,-1.06 2.45,-1.31 m 1.82,4.1 c -1.82,0.08 -3.46,1.15 -4.27,2.78 v 2.78 l 5.57,11.13 c 1.86,3.41 2.82,7.24 2.78,11.13 v 89.06 c 0.51,5.31 -3.11,10.13 -8.35,11.13 1.54,0 2.78,1.25 2.78,2.78 0,1.53 -1.25,2.78 -2.78,2.78 h -22.26 v 22.26 c 0,3.07 -2.49,5.57 -5.57,5.57 -3.08,0 -5.57,-2.49 -5.57,-5.57 v -38.96 h -22.26 c -1.54,0 -2.78,-1.25 -2.78,-2.78 0,-1.53 1.25,-2.78 2.78,-2.78 -4.65,-1.86 -7.87,-6.15 -8.35,-11.13 v -83.49 c -0.28,-3.91 0.7,-7.81 2.78,-11.13 l 4.17,-4.17 c -0.67,-0.91 -1.75,-1.43 -2.88,-1.39 -2.64,3.3 -7.26,4.26 -10.99,2.28 -0.66,1.18 -1.63,2.17 -2.79,2.86 -0.43,0.27 -0.93,0.42 -1.44,0.43 -1.51,0.02 -2.76,-1.2 -2.77,-2.71 0.87,-1.64 1.94,-3.17 3.18,-4.56 -0.08,-0.16 -0.15,-0.33 -0.22,-0.49 l -12.6,-31.2 c -1.99,-3.44 -1.99,-7.69 0,-11.13 l 22.32,-38.71 c 1.99,-3.45 5.61,-5.65 9.59,-5.82 h 55.66 c 3.98,0.17 7.6,2.36 9.59,5.82 l 22.32,38.71 c 1.99,3.44 1.99,7.69 0,11.13 l -12.6,31.2 c -0.07,0.17 -0.14,0.33 -0.22,0.49 1.24,1.39 2.31,2.92 3.18,4.56 0,0.51 -0.15,1.01 -0.43,1.44 -0.81,1.28 -2.51,1.66 -3.78,0.85 -1.17,-0.69 -2.13,-1.68 -2.79,-2.86 -3.74,1.98 -8.35,1.02 -10.99,-2.28 m -62.39,-4.11 c 0.24,-1.51 0.09,-3.06 -0.45,-4.49 l -10.54,-28.13 c -0.31,-0.71 -0.47,-1.47 -0.47,-2.25 0,-0.78 0.16,-1.54 0.47,-2.25 l 10.96,-13.92 c 0.26,-0.34 0.67,-0.53 1.09,-0.53 0.77,0 1.39,0.62 1.39,1.39 v 51.49 c -0.71,-0.62 -1.55,-1.06 -2.45,-1.31 m 27.5,43.06 c -1.87,1.22 -2.93,3.34 -2.78,5.57 v 66.79 h -13.91 c 4.44,-2.12 7.56,-6.28 8.35,-11.13 v -74.91 c 0,-1.58 1.21,-2.89 2.78,-3.01 h 5.57 v 16.7 m 5.55,-16.71 c 4.04,2.58 7,6.53 8.35,11.13 v 83.52 c 0,5.15 3.4,9.67 8.35,11.1 h -13.91 v -83.49 c 0.15,-2.22 -0.92,-4.35 -2.78,-5.57 v -16.7 m 19.47,-139.14 c 0,-12.3 -9.97,-22.26 -22.26,-22.26 -12.29,0 -22.26,9.97 -22.26,22.26 0,12.29 9.97,22.26 22.26,22.26 12.29,0 22.26,-9.97 22.26,-22.26 m -250.69,146.05 83.94,-3.61 -37.3,32.2 25.5,25.5 72.13,-72.13 -72.13,-72.13 -25.5,25.5 37.3,32.2 -83.94,-3.61 v 36.07 z"
         id="path3" />
    </g>
    <g
       id="LWPOLYLINE">
      <polygon
         class="cls-3"
         points="291.56,330.1 317.07,355.6 389.2,283.47 317.07,211.33 291.56,236.84 328.87,269.04 244.93,265.43 244.93,301.5 328.87,297.89 "
         id="polygon3" />
    </g>
    <g
       id="LWPOLYLINE-2"
       data-name="LWPOLYLINE">
      <path
         class="cls-3"
         d="m 476.14,294.6 c 4.04,2.58 7,6.53 8.35,11.13 v 83.52 c 0,5.15 3.4,9.67 8.35,11.1 h -13.91 v -83.49 c 0.15,-2.22 -0.92,-4.35 -2.78,-5.57 v -16.7 z"
         id="path4" />
    </g>
    <g
       id="LWPOLYLINE-3"
       data-name="LWPOLYLINE">
      <path
         class="cls-3"
         d="m 470.58,311.3 c -1.87,1.22 -2.93,3.34 -2.78,5.57 v 66.79 h -13.91 c 4.44,-2.12 7.56,-6.28 8.35,-11.13 v -74.91 c 0,-1.58 1.21,-2.89 2.78,-3.01 h 5.57 v 16.7 z"
         id="path5" />
    </g>
    <g
       id="LWPOLYLINE-4"
       data-name="LWPOLYLINE">
      <path
         class="cls-3"
         d="m 443.08,268.24 c 0.24,-1.51 0.09,-3.06 -0.45,-4.49 l -10.54,-28.13 c -0.31,-0.71 -0.47,-1.47 -0.47,-2.25 0,-0.78 0.16,-1.54 0.47,-2.25 l 10.96,-13.92 c 0.26,-0.34 0.67,-0.53 1.09,-0.53 0.77,0 1.39,0.62 1.39,1.39 v 51.49 c -0.71,-0.62 -1.55,-1.06 -2.45,-1.31 z"
         id="path6" />
    </g>
    <g
       id="LWPOLYLINE-5"
       data-name="LWPOLYLINE">
      <path
         class="cls-3"
         d="m 505.46,272.34 c -1.82,0.08 -3.46,1.15 -4.27,2.78 v 2.78 c 0,0 5.57,11.13 5.57,11.13 1.86,3.41 2.82,7.24 2.78,11.13 v 89.06 c 0.51,5.31 -3.11,10.13 -8.35,11.13 1.54,0 2.78,1.25 2.78,2.78 0,1.53 -1.25,2.78 -2.78,2.78 h -22.26 v 22.26 c 0,3.07 -2.49,5.57 -5.57,5.57 -3.08,0 -5.57,-2.49 -5.57,-5.57 v -38.96 h -22.26 c -1.54,0 -2.78,-1.25 -2.78,-2.78 0,-1.53 1.25,-2.78 2.78,-2.78 -4.65,-1.86 -7.87,-6.15 -8.35,-11.13 v -83.49 c -0.28,-3.91 0.7,-7.81 2.78,-11.13 l 4.17,-4.17 c -0.67,-0.91 -1.75,-1.43 -2.88,-1.39 -2.64,3.3 -7.26,4.26 -10.99,2.28 -0.66,1.18 -1.63,2.17 -2.79,2.86 -0.43,0.27 -0.93,0.42 -1.44,0.43 -1.51,0.02 -2.76,-1.2 -2.77,-2.71 0.87,-1.64 1.94,-3.17 3.18,-4.56 -0.08,-0.16 -0.15,-0.33 -0.22,-0.49 l -12.6,-31.2 c -1.99,-3.44 -1.99,-7.69 0,-11.13 l 22.32,-38.71 c 1.99,-3.45 5.61,-5.65 9.59,-5.82 h 55.66 c 3.98,0.17 7.6,2.36 9.59,5.82 l 22.32,38.71 c 1.99,3.44 1.99,7.69 0,11.13 l -12.6,31.2 c -0.07,0.17 -0.14,0.33 -0.22,0.49 1.24,1.39 2.31,2.92 3.18,4.56 0,0.51 -0.15,1.01 -0.43,1.44 -0.81,1.28 -2.51,1.66 -3.78,0.85 -1.17,-0.69 -2.13,-1.68 -2.79,-2.86 -3.74,1.98 -8.35,1.02 -10.99,-2.28 z"
         id="path7" />
    </g>
    <g
       id="LWPOLYLINE-6"
       data-name="LWPOLYLINE">
      <path
         class="cls-3"
         d="m 503.64,268.24 c -0.24,-1.51 -0.09,-3.06 0.45,-4.49 l 10.54,-28.13 c 0.31,-0.71 0.47,-1.47 0.47,-2.25 0,-0.78 -0.16,-1.54 -0.47,-2.25 L 503.67,217.2 c -0.48,-0.6 -1.35,-0.71 -1.95,-0.23 -0.34,0.26 -0.53,0.67 -0.53,1.09 v 51.49 c 0.71,-0.62 1.55,-1.06 2.45,-1.31 z"
         id="path8" />
    </g>
    <g
       id="HATCH-3"
       data-name="HATCH">
      <path
         class="cls-6"
         d="m 167.59,552.61 h 479.3 c 16.29,0 29.5,-13.21 29.5,-29.5 V 43.82 c 0,-16.29 -13.21,-29.5 -29.5,-29.5 h -479.3 c -16.29,0 -29.5,13.21 -29.5,29.5 v 479.3 c 0,16.29 13.21,29.5 29.5,29.5 m 0,7.36 h 479.3 c 20.36,0 36.87,-16.51 36.87,-36.87 V 43.82 c 0,-20.36 -16.51,-36.87 -36.87,-36.87 h -479.3 c -20.36,0 -36.87,16.51 -36.87,36.87 v 479.3 c 0,20.36 16.51,36.87 36.87,36.87 z"
         id="path9" />
    </g>
    <g
       id="LWPOLYLINE-7"
       data-name="LWPOLYLINE">
      <rect
         class="cls-3"
         x="130.72"
         y="6.9499998"
         width="553.03003"
         height="553.03003"
         rx="36.869999"
         ry="36.869999"
         id="rect9" />
    </g>
    <g
       id="LWPOLYLINE-8"
       data-name="LWPOLYLINE">
      <rect
         class="cls-3"
         x="138.09"
         y="14.32"
         width="538.28998"
         height="538.28998"
         rx="29.5"
         ry="29.5"
         id="rect10" />
    </g>
  </g>
  <g
     id="sr_Circunferencia_roja"
     data-name="sr_Circunferencia roja"
     transform="translate(-130.22,-6.4499998)">
    <g
       id="CIRCLE-2"
       data-name="CIRCLE">
      <circle
         class="cls-4"
         cx="407.23999"
         cy="283.47"
         r="239.64999"
         id="circle23" />
    </g>
    <g
       id="CIRCLE-3"
       data-name="CIRCLE">
      <circle
         class="cls-4"
         cx="407.23999"
         cy="283.47"
         r="193.56"
         id="circle24" />
    </g>
    <g
       id="HATCH-4"
       data-name="HATCH">
      <path
         class="cls-5"
         d="m 600.8,283.47 c 0,-106.9 -86.66,-193.56 -193.56,-193.56 -106.9,0 -193.56,86.66 -193.56,193.56 0,106.9 86.66,193.56 193.56,193.56 106.9,0 193.56,-86.66 193.56,-193.56 m 46.08,0 c 0,-132.35 -107.29,-239.65 -239.65,-239.65 -132.36,0 -239.65,107.29 -239.65,239.65 0,132.36 107.29,239.65 239.65,239.65 132.35,0 239.65,-107.29 239.65,-239.65 z"
         id="path24" />
    </g>
  </g>
</svg>
