<?xml version="1.0" encoding="UTF-8" standalone="no"?>
<!-- Created with Inkscape (http://www.inkscape.org/) -->

<svg
   width="710mm"
   height="710mm"
   viewBox="0 0 710 710"
   version="1.1"
   id="svg44152"
   inkscape:version="1.2.1 (9c6d41e410, 2022-07-14)"
   sodipodi:docname="Mexico road sign SR10A1 (2023).svg"
   xmlns:inkscape="http://www.inkscape.org/namespaces/inkscape"
   xmlns:sodipodi="http://sodipodi.sourceforge.net/DTD/sodipodi-0.dtd"
   xmlns="http://www.w3.org/2000/svg"
   xmlns:svg="http://www.w3.org/2000/svg">
  <sodipodi:namedview
     id="namedview44154"
     pagecolor="#ffffff"
     bordercolor="#000000"
     borderopacity="0.25"
     inkscape:showpageshadow="2"
     inkscape:pageopacity="0.0"
     inkscape:pagecheckerboard="0"
     inkscape:deskcolor="#d1d1d1"
     inkscape:document-units="mm"
     showgrid="false"
     inkscape:zoom="0.76257015"
     inkscape:cx="1382.8236"
     inkscape:cy="1157.2706"
     inkscape:window-width="1920"
     inkscape:window-height="991"
     inkscape:window-x="-9"
     inkscape:window-y="-9"
     inkscape:window-maximized="1"
     inkscape:current-layer="layer1" />
  <defs
     id="defs44149" />
  <g
     inkscape:label="Livello 1"
     inkscape:groupmode="layer"
     id="layer1"
     transform="translate(260.62619,255.42202)">
    <g
       id="g5176"
       transform="translate(168.12445,-12105.548)">
      <rect
         style="fill:#000000;stroke-width:3.68415;stroke-opacity:0.578462;paint-order:fill markers stroke"
         id="rect20798-0-5-8-2-5-6-1"
         width="710"
         height="710"
         x="-428.75064"
         y="-12560.126"
         ry="40"
         rx="40"
         transform="scale(1,-1)" />
      <rect
         style="fill:#ffffff;stroke-width:3.58037;stroke-opacity:0.578462;paint-order:fill markers stroke"
         id="rect20798-4-7-7-8-0-7-8-4"
         width="690"
         height="690"
         x="-418.7504"
         y="-12550.127"
         ry="30"
         rx="30"
         transform="scale(1,-1)" />
      <g
         id="g25102-9-5-6-0-7-5-3"
         transform="matrix(0,-1,-1,0,2941.7215,12560.125)">
        <circle
           style="fill:#be0018;stroke-width:6.548;stroke-opacity:0.578462;paint-order:fill markers stroke"
           id="path23624-7-9-1-5-3-2-7"
           cx="3015.4722"
           cy="-355"
           r="310"
           transform="rotate(90)" />
        <circle
           style="fill:#ffffff;stroke-width:5.28036;stroke-opacity:0.578462;paint-order:fill markers stroke"
           id="path23624-1-9-9-2-4-6-3-1"
           cx="355.00046"
           cy="3015.4727"
           r="250" />
      </g>
      <path
         id="path11397-7-6-3-8-2-1-5-6"
         style="fill:#000000;stroke-width:15.1395;stroke-linejoin:bevel;paint-order:fill markers stroke"
         d="m 36.558717,12081.738 -82.6879,-82.679 -28.7409,28.721 39.6017,34.559 h -21.4573 c -70.911797,0 -117.524597,60.571 -117.524597,114.513 v 21.469 h 38.8227 v -14.739 c 0,-35.232 26.9558,-82.495 83.749497,-82.495 h 16.4164 l -39.6017,34.559 28.741,28.721 z"
         sodipodi:nodetypes="ccccssccsscccc" />
      <path
         id="path7791-1-1-3"
         style="color:#000000;fill:#000000;stroke-width:10.9657;stroke-linecap:round;stroke-linejoin:bevel;paint-order:fill markers stroke"
         d="m -91.108183,12210.3 h -12.183097 c -6.0639,0 -11.3638,1.346 -15.3783,4.526 -4.0146,3.029 -6.4307,7.151 -8.2226,11.357 l -0.1682,0.337 -10.5326,29.865 c -0.5048,0.841 -0.8413,1.749 -0.9591,2.708 l -6.4037,18.155 c -4.1087,-1.01 -8.315,-1.514 -12.5348,-1.514 -30.4672,0 -55.16839,24.716 -55.17009,55.17 0,30.47 24.70119,55.17 55.17009,55.17 30.4689,0 55.1667,-24.7 55.165,-55.17 0,-20.813 -11.7272,-39.826 -30.2989,-49.214 l 3.3549,-9.49 57.057897,59.562 c 3.8984,4.273 6.0874,6.074 9.8159,7.1 3.7268,1.01 7.9566,1.178 9.3027,1.178 h 14.7911 c 4.4183,26.634 27.4302,46.135 54.4062,46.152 30.4689,0 55.1667,-24.7 55.165,-55.187 0,-30.471 -24.6995,-55.154 -55.165,-55.154 -5.8805,0 -11.7205001,1.01 -17.3014001,2.81 l -15.6222999,-25.406 v 0 c -1.0432,-1.682 -1.8744,-3.012 -2.6803,-4.206 l 5.5187,-14.554 h 12.7333999 c 3.6191,0 6.5484,-2.945 6.5501,-6.562 0,-3.617 -2.926,-6.562 -6.5501,-6.562 H -45.499883 c -3.6258,0 -6.5585,2.945 -6.5484,6.562 0,3.617 2.931,6.562 6.5484,6.562 h 17.4832 l -3.0673,8.11 h -1.447 -86.264797 l 3.996,-11.341 c 1.3123,-3.028 2.5843,-4.828 3.9993,-5.905 1.447,-1.178 3.3769,-1.901 7.4755,-1.901 h 12.189897 c 3.6242,0 6.5686,-2.911 6.572,-6.545 0,-3.635 -2.9461,-6.562 -6.572,-6.562 z m -32.280897,45.344 h 87.326497 l -25.778,68.059 c -0.2187,-0.169 -0.4375,-0.505 -0.673,-0.842 h -0.1683 l -61.741997,-64.474 z m 98.049297,8.716 12.2336,19.904 c -14.9021,9.288 -24.4808,25.154 -25.7948,42.669 h -10.149 z m -132.130597,24.598 c 2.729,0 5.4497,0.337 8.1283,0.842 l -13.8556,39.253 c -1.2115,3.432 0.572,7.184 4.0044,8.379 3.4205,1.346 7.1726,-0.673 8.3756,-4.004 l 13.7984,-39.119 c 13.3256,7.42 21.5902,21.469 21.602,36.713 0,23.218 -18.8292,42.063 -42.0531,42.063 -23.224,0 -42.05139,-18.845 -42.05139,-42.063 0,-23.219 18.82739,-42.047 42.05139,-42.047 z m 173.593097,0 c 23.2256,0 42.0531,18.828 42.0531,42.047 0,23.219 -18.8292,42.063 -42.0531,42.063 -19.7209001,0 -36.7784,-13.746 -41.0268,-33.011 h 46.4092 c 1.6657,0 3.5821,0.504 6.5349,-2.087 1.4807,-1.346 2.4548,-3.701 2.4818,-5.384 0,-1.682 -0.4038,-2.709 -0.7235,-3.516 -1.346,-3.197 -2.8031,-4.627 -4.5849,-7.555 l -19.2784001,-31.362 c 3.3314,-0.841 6.7537001,-1.346 10.1894001,-1.346 z m -22.3541001,6.478 19.4299001,31.581 h -38.9186 c 1.2619,-12.939 8.4631,-24.582 19.4886999,-31.514 z"
         inkscape:transform-center-x="-226.571"
         inkscape:transform-center-y="-515.81576"
         sodipodi:nodetypes="ccscccccccccccccccccccccccccccccccccccscccccccccccccccccccccccccccccccccccccccccccc" />
    </g>
  </g>
</svg>
