<?xml version="1.0" encoding="UTF-8" standalone="no"?>
<svg
   viewBox="0 0 554.03003 554.03003"
   version="1.1"
   id="svg26"
   sodipodi:docname="SR-12B1_30x30.svg"
   width="554.03003"
   height="554.03003"
   inkscape:version="1.5-dev (9bf5e73, 2025-04-11, custom)"
   xmlns:inkscape="http://www.inkscape.org/namespaces/inkscape"
   xmlns:sodipodi="http://sodipodi.sourceforge.net/DTD/sodipodi-0.dtd"
   xmlns="http://www.w3.org/2000/svg"
   xmlns:svg="http://www.w3.org/2000/svg">
  <sodipodi:namedview
     id="namedview26"
     pagecolor="#ffffff"
     bordercolor="#000000"
     borderopacity="0.25"
     inkscape:showpageshadow="2"
     inkscape:pageopacity="0.0"
     inkscape:pagecheckerboard="0"
     inkscape:deskcolor="#d1d1d1"
     showgrid="false"
     inkscape:zoom="0.70185058"
     inkscape:cx="288.52295"
     inkscape:cy="540.00098"
     inkscape:window-width="1920"
     inkscape:window-height="1032"
     inkscape:window-maximized="1"
     inkscape:current-layer="svg26" />
  <defs
     id="defs1">
    <style
       id="style1">
      .cls-1, .cls-2 {
        fill: #fff;
      }

      .cls-2, .cls-3 {
        stroke: #000;
      }

      .cls-2, .cls-3, .cls-4 {
        stroke-linecap: round;
        stroke-linejoin: round;
      }

      .cls-5 {
        fill: #bd2025;
      }

      .cls-5, .cls-6 {
        fill-rule: evenodd;
      }

      .cls-3, .cls-4 {
        fill: none;
      }

      .cls-4 {
        stroke: #bd2025;
      }
    </style>
  </defs>
  <g
     id="sr_Fondo_del_tablero"
     data-name="sr_Fondo del tablero"
     transform="translate(-130.22,-6.4499998)">
    <g
       id="HATCH">
      <rect
         class="cls-1"
         x="138.09"
         y="14.32"
         width="538.28998"
         height="538.28998"
         rx="29.5"
         ry="29.5"
         id="rect3" />
    </g>
  </g>
  <g
     id="sr_Pictograma_y_filete"
     data-name="sr_Pictograma y filete"
     transform="translate(-130.22,-6.4499998)">
    <g
       id="HATCH-2"
       data-name="HATCH">
      <path
         class="cls-6"
         d="m 435.32,324.04 h -71.29 v 3.67 l 50.23,52.5 21.06,-56.17 m -23.97,65.64 -51.49,-53.83 -3.38,9.58 c 18.6,8.74 28.47,29.36 23.61,49.33 -5.65,23.18 -29.02,37.4 -52.2,31.76 -23.18,-5.65 -37.4,-29.02 -31.76,-52.2 5.65,-23.18 29.02,-37.4 52.2,-31.76 l 14.65,-41.54 c 2.44,-6.91 8.97,-11.53 16.3,-11.53 h 10.68 c 2.39,0 4.32,1.93 4.32,4.32 0,2.39 -1.93,4.32 -4.32,4.32 h -10.68 c -3.66,0 -6.93,2.31 -8.15,5.77 l -4.06,11.51 h 71.49 l 3.24,-8.64 h -12.96 c -2.39,0 -4.32,-1.93 -4.32,-4.32 0,-2.39 1.93,-4.32 4.32,-4.32 h 30.24 c 2.39,0 4.32,1.93 4.32,4.32 0,2.39 -1.93,4.32 -4.32,4.32 h -8.05 l -5.04,13.45 14.97,23.96 c 2.88,-1.1 5.87,-1.89 8.93,-2.35 23.59,-3.58 45.62,12.64 49.2,36.24 3.58,23.59 -12.64,45.62 -36.24,49.2 -23.6,3.58 -45.62,-12.64 -49.2,-36.24 h -19.18 c -1.18,0 -2.31,-0.48 -3.12,-1.33 m -65.91,-38.95 -11.41,32.34 c -0.79,2.25 0.39,4.72 2.64,5.51 2.25,0.79 4.72,-0.39 5.51,-2.64 l 11.41,-32.34 c 14.12,7.07 21.65,22.81 18.3,38.23 -4.05,18.66 -22.45,30.5 -41.11,26.45 -18.66,-4.05 -30.5,-22.45 -26.45,-41.11 4.05,-18.66 22.45,-30.5 41.11,-26.45 m 96.43,31.63 h 32.78 l -16.87,-26.98 c -9.31,5.94 -15.22,15.96 -15.91,26.98 m 11.33,-34.31 -11.04,-17.66 -19.49,51.97 h 10.54 c 0.7,-14 8.15,-26.8 19.99,-34.31 m -10.79,42.95 h 40.03 c 2.39,0 4.32,-1.93 4.32,-4.32 0,-0.81 -0.23,-1.6 -0.66,-2.29 l -20.46,-32.73 c 1.39,-0.45 2.8,-0.82 4.24,-1.09 18.75,-3.58 36.85,8.72 40.43,27.47 3.58,18.75 -8.72,36.85 -27.47,40.43 -18.75,3.58 -36.85,-8.72 -40.43,-27.47 M 497.4,277.46 v -88.73 c 0,-11.07 -8.97,-20.04 -20.04,-20.04 h -103.1 l 31.87,-27.51 -23.27,-23.27 -65.81,65.81 65.81,65.81 23.27,-23.27 -31.87,-27.51 h 83.06 c 5.53,0 10.02,4.49 10.02,10.02 v 68.69 z"
         id="path17" />
    </g>
    <g
       id="LWPOLYLINE">
      <path
         class="cls-3"
         d="m 497.4,277.46 v -88.73 c 0,-11.07 -8.97,-20.04 -20.04,-20.04 h -103.1 l 31.87,-27.51 -23.27,-23.27 -65.81,65.81 65.81,65.81 23.27,-23.27 -31.87,-27.51 h 83.06 c 5.53,0 10.02,4.49 10.02,10.02 v 68.69 z"
         id="path18" />
    </g>
    <g
       id="LWPOLYLINE-2"
       data-name="LWPOLYLINE">
      <path
         class="cls-3"
         d="m 442.41,391.01 h 40.03 c 2.39,0 4.32,-1.93 4.32,-4.32 0,-0.81 -0.23,-1.6 -0.66,-2.29 l -20.46,-32.73 c 1.39,-0.45 2.8,-0.82 4.24,-1.09 18.75,-3.58 36.85,8.72 40.43,27.47 3.58,18.75 -8.72,36.85 -27.47,40.43 -18.75,3.58 -36.85,-8.72 -40.43,-27.47 z"
         id="path19" />
    </g>
    <g
       id="LWPOLYLINE-3"
       data-name="LWPOLYLINE">
      <path
         class="cls-3"
         d="m 453.2,348.06 -11.04,-17.66 -19.49,51.97 h 10.54 c 0.7,-14 8.15,-26.8 19.99,-34.31 z"
         id="path20" />
    </g>
    <g
       id="LWPOLYLINE-4"
       data-name="LWPOLYLINE">
      <path
         class="cls-3"
         d="m 441.87,382.37 h 32.78 l -16.87,-26.98 c -9.31,5.94 -15.22,15.96 -15.91,26.98 z"
         id="path21" />
    </g>
    <g
       id="LWPOLYLINE-5"
       data-name="LWPOLYLINE">
      <path
         class="cls-3"
         d="m 345.44,350.75 -11.41,32.34 c -0.79,2.25 0.39,4.72 2.64,5.51 2.25,0.79 4.72,-0.39 5.51,-2.64 l 11.41,-32.34 c 14.12,7.07 21.65,22.81 18.3,38.23 -4.05,18.66 -22.45,30.5 -41.11,26.45 -18.66,-4.05 -30.5,-22.45 -26.45,-41.11 4.05,-18.66 22.45,-30.5 41.11,-26.45 z"
         id="path22" />
    </g>
    <g
       id="LWPOLYLINE-6"
       data-name="LWPOLYLINE">
      <path
         class="cls-3"
         d="m 411.35,389.68 -51.49,-53.83 -3.38,9.58 c 18.6,8.74 28.47,29.36 23.61,49.33 -5.65,23.18 -29.02,37.4 -52.2,31.76 -23.18,-5.64 -37.4,-29.02 -31.76,-52.2 5.65,-23.18 29.02,-37.4 52.2,-31.76 l 14.65,-41.54 c 2.44,-6.91 8.97,-11.53 16.3,-11.53 h 10.68 c 2.39,0 4.32,1.93 4.32,4.32 0,2.39 -1.93,4.32 -4.32,4.32 h -10.68 c -3.66,0 -6.93,2.31 -8.15,5.77 l -4.06,11.51 h 71.49 l 3.24,-8.64 h -12.96 c -2.39,0 -4.32,-1.93 -4.32,-4.32 0,-2.39 1.93,-4.32 4.32,-4.32 h 30.24 c 2.39,0 4.32,1.93 4.32,4.32 0,2.39 -1.93,4.32 -4.32,4.32 h -8.05 l -5.04,13.45 14.97,23.96 c 2.88,-1.1 5.87,-1.89 8.93,-2.35 23.59,-3.58 45.62,12.64 49.2,36.24 3.58,23.59 -12.64,45.62 -36.24,49.2 -23.6,3.58 -45.62,-12.64 -49.2,-36.24 h -19.18 c -1.18,0 -2.31,-0.48 -3.12,-1.33 z"
         id="path23" />
    </g>
    <g
       id="LWPOLYLINE-7"
       data-name="LWPOLYLINE">
      <polygon
         class="cls-3"
         points="364.03,327.71 414.26,380.21 435.32,324.04 364.03,324.04 "
         id="polygon23" />
    </g>
    <g
       id="HATCH-3"
       data-name="HATCH">
      <path
         class="cls-6"
         d="m 167.59,552.61 h 479.3 c 16.29,0 29.5,-13.21 29.5,-29.5 V 43.82 c 0,-16.29 -13.21,-29.5 -29.5,-29.5 h -479.3 c -16.29,0 -29.5,13.21 -29.5,29.5 v 479.3 c 0,16.29 13.21,29.5 29.5,29.5 m 0,7.36 h 479.3 c 20.36,0 36.87,-16.51 36.87,-36.87 V 43.82 c 0,-20.36 -16.51,-36.87 -36.87,-36.87 h -479.3 c -20.36,0 -36.87,16.51 -36.87,36.87 v 479.3 c 0,20.36 16.51,36.87 36.87,36.87 z"
         id="path24" />
    </g>
    <g
       id="LWPOLYLINE-8"
       data-name="LWPOLYLINE">
      <rect
         class="cls-3"
         x="130.72"
         y="6.9499998"
         width="553.03003"
         height="553.03003"
         rx="36.869999"
         ry="36.869999"
         id="rect24" />
    </g>
    <g
       id="LWPOLYLINE-9"
       data-name="LWPOLYLINE">
      <rect
         class="cls-3"
         x="138.09"
         y="14.32"
         width="538.28998"
         height="538.28998"
         rx="29.5"
         ry="29.5"
         id="rect25" />
    </g>
  </g>
  <g
     id="sr_Circunferencia_roja"
     data-name="sr_Circunferencia roja"
     transform="translate(-130.22,-6.4499998)">
    <g
       id="CIRCLE">
      <circle
         class="cls-4"
         cx="407.23999"
         cy="283.47"
         r="239.64999"
         id="circle25" />
    </g>
    <g
       id="CIRCLE-2"
       data-name="CIRCLE">
      <circle
         class="cls-4"
         cx="407.23999"
         cy="283.47"
         r="193.56"
         id="circle26" />
    </g>
    <g
       id="HATCH-4"
       data-name="HATCH">
      <path
         class="cls-5"
         d="m 600.8,283.47 c 0,-106.9 -86.66,-193.56 -193.56,-193.56 -106.9,0 -193.56,86.66 -193.56,193.56 0,106.9 86.66,193.56 193.56,193.56 106.9,0 193.56,-86.66 193.56,-193.56 m 46.08,0 c 0,-132.35 -107.29,-239.65 -239.65,-239.65 -132.36,0 -239.65,107.29 -239.65,239.65 0,132.36 107.29,239.65 239.65,239.65 132.35,0 239.65,-107.29 239.65,-239.65 z"
         id="path26" />
    </g>
  </g>
</svg>
