<?xml version="1.0" encoding="UTF-8" standalone="no"?>
<svg
   viewBox="0 0 550.03003 550.03006"
   version="1.1"
   id="svg24"
   sodipodi:docname="SR-12B2_30x30.svg"
   width="550.03003"
   height="550.03003"
   inkscape:version="1.5-dev (9bf5e73, 2025-04-11, custom)"
   xmlns:inkscape="http://www.inkscape.org/namespaces/inkscape"
   xmlns:sodipodi="http://sodipodi.sourceforge.net/DTD/sodipodi-0.dtd"
   xmlns="http://www.w3.org/2000/svg"
   xmlns:svg="http://www.w3.org/2000/svg">
  <sodipodi:namedview
     id="namedview24"
     pagecolor="#ffffff"
     bordercolor="#000000"
     borderopacity="0.25"
     inkscape:showpageshadow="2"
     inkscape:pageopacity="0.0"
     inkscape:pagecheckerboard="0"
     inkscape:deskcolor="#d1d1d1"
     showgrid="false"
     inkscape:zoom="0.70204951"
     inkscape:cx="275.62159"
     inkscape:cy="532.72596"
     inkscape:window-width="1920"
     inkscape:window-height="1032"
     inkscape:window-maximized="1"
     inkscape:current-layer="svg24" />
  <defs
     id="defs1">
    <style
       id="style1">
      .cls-1, .cls-2 {
        fill: #fff;
      }

      .cls-2, .cls-3 {
        stroke: #000;
      }

      .cls-2, .cls-3, .cls-4 {
        stroke-linecap: round;
        stroke-linejoin: round;
      }

      .cls-5 {
        fill: #bd2025;
      }

      .cls-5, .cls-6 {
        fill-rule: evenodd;
      }

      .cls-3, .cls-4 {
        fill: none;
      }

      .cls-4 {
        stroke: #bd2025;
      }
    </style>
  </defs>
  <g
     id="sr_Fondo_del_tablero"
     data-name="sr_Fondo del tablero"
     transform="translate(-142.45,-14.02)">
    <g
       id="HATCH">
      <rect
         class="cls-1"
         x="150.27"
         y="21.84"
         width="534.39001"
         height="534.39001"
         rx="29.280001"
         ry="29.280001"
         id="rect3" />
    </g>
  </g>
  <g
     id="sr_Pictograma_y_filete"
     data-name="sr_Pictograma y filete"
     transform="translate(-142.45,-14.02)">
    <g
       id="CIRCLE">
      <circle
         class="cls-3"
         cx="450.62"
         cy="401.09"
         r="13.26"
         id="circle3" />
    </g>
    <g
       id="CIRCLE-2"
       data-name="CIRCLE">
      <circle
         class="cls-3"
         cx="384.31"
         cy="401.09"
         r="13.26"
         id="circle4" />
    </g>
    <g
       id="HATCH-2"
       data-name="HATCH">
      <path
         class="cls-6"
         d="m 506.98,283.06 v -88.08 c 0,-10.99 -8.91,-19.89 -19.89,-19.89 H 384.74 l 31.64,-27.31 -23.1,-23.1 -65.33,65.33 65.33,65.33 23.1,-23.1 -31.64,-27.31 h 82.46 c 5.49,0 9.95,4.45 9.95,9.95 v 68.19 h 29.84 m -43.11,88.18 -3.32,-43.1 c 0,-3.66 -2.97,-6.63 -6.63,-6.63 h -33.15 v 49.73 h 43.1 m -3.31,72.94 h -19.89 c -1.83,0 -3.32,-1.48 -3.32,-3.32 v -16.58 c 0,0 -39.78,0 -39.78,0 v 16.58 c 0,1.83 -1.48,3.32 -3.32,3.32 h -19.89 c -1.83,0 -3.32,-1.48 -3.32,-3.32 v -16.58 h -9.95 c -3.66,0 -6.63,-2.97 -6.63,-6.63 l 3.32,-109.41 c 0,-7.32 5.94,-13.26 13.26,-13.26 h 92.83 c 7.32,0 13.26,5.94 13.26,13.26 l 3.32,109.41 v 0 c 0,3.66 -2.97,6.63 -6.63,6.63 h -9.95 c 0,0 0,16.58 0,16.58 0,1.83 -1.48,3.32 -3.32,3.32 m -89.51,-72.94 3.32,-43.1 c 0,-3.66 2.97,-6.63 6.63,-6.63 h 33.15 v 49.73 h -43.1 m 26.52,-69.62 h 39.78 v 9.95 h -39.78 v -9.95 m 0,99.46 c 0,-7.32 -5.94,-13.26 -13.26,-13.26 -7.32,0 -13.26,5.94 -13.26,13.26 0,7.32 5.94,13.26 13.26,13.26 7.32,0 13.26,-5.94 13.26,-13.26 m 66.31,0 c 0,-7.32 -5.94,-13.26 -13.26,-13.26 -7.32,0 -13.26,5.94 -13.26,13.26 0,7.32 5.94,13.26 13.26,13.26 7.32,0 13.26,-5.94 13.26,-13.26 z"
         id="path4" />
    </g>
    <g
       id="LWPOLYLINE">
      <rect
         class="cls-3"
         x="397.57001"
         y="301.63"
         width="39.779999"
         height="9.9499998"
         id="rect4" />
    </g>
    <g
       id="LWPOLYLINE-2"
       data-name="LWPOLYLINE">
      <path
         class="cls-3"
         d="m 371.05,371.25 3.32,-43.1 c 0,-3.66 2.97,-6.63 6.63,-6.63 h 33.15 v 49.73 z"
         id="path5" />
    </g>
    <g
       id="LWPOLYLINE-3"
       data-name="LWPOLYLINE">
      <path
         class="cls-3"
         d="m 460.57,444.19 h -19.89 c -1.83,0 -3.32,-1.48 -3.32,-3.32 v -16.58 c 0,0 -39.78,0 -39.78,0 v 16.58 c 0,1.83 -1.48,3.32 -3.32,3.32 h -19.89 c -1.83,0 -3.32,-1.48 -3.32,-3.32 v -16.58 h -9.95 c -3.66,0 -6.63,-2.97 -6.63,-6.63 l 3.32,-109.41 c 0,-7.32 5.94,-13.26 13.26,-13.26 h 92.83 c 7.32,0 13.26,5.94 13.26,13.26 l 3.32,109.41 v 0 c 0,3.66 -2.97,6.63 -6.63,6.63 h -9.95 c 0,0 0,16.58 0,16.58 0,1.83 -1.48,3.32 -3.32,3.32 z"
         id="path6" />
    </g>
    <g
       id="LWPOLYLINE-4"
       data-name="LWPOLYLINE">
      <path
         class="cls-3"
         d="m 463.88,371.25 -3.32,-43.1 c 0,-3.66 -2.97,-6.63 -6.63,-6.63 h -33.15 v 49.73 z"
         id="path7" />
    </g>
    <g
       id="LWPOLYLINE-5"
       data-name="LWPOLYLINE">
      <path
         class="cls-3"
         d="m 506.98,283.06 v -88.08 c 0,-10.99 -8.91,-19.89 -19.89,-19.89 H 384.74 l 31.64,-27.31 -23.1,-23.1 -65.33,65.33 65.33,65.33 23.1,-23.1 -31.64,-27.31 h 82.46 c 5.49,0 9.95,4.45 9.95,9.95 v 68.19 h 29.84 z"
         id="path8" />
    </g>
    <g
       id="HATCH-3"
       data-name="HATCH">
      <path
         class="cls-6"
         d="m 179.56,556.22 h 475.82 c 16.17,0 29.28,-13.11 29.28,-29.28 V 51.12 c 0,-16.17 -13.11,-29.28 -29.28,-29.28 H 179.56 c -16.17,0 -29.28,13.11 -29.28,29.28 v 475.82 c 0,16.17 13.11,29.28 29.28,29.28 m 0,7.32 h 475.82 c 20.21,0 36.6,-16.39 36.6,-36.6 V 51.12 c 0,-20.21 -16.39,-36.6 -36.6,-36.6 H 179.56 c -20.21,0 -36.6,16.39 -36.6,36.6 v 475.82 c 0,20.21 16.39,36.6 36.6,36.6 z"
         id="path9" />
    </g>
    <g
       id="LWPOLYLINE-6"
       data-name="LWPOLYLINE">
      <rect
         class="cls-3"
         x="142.95"
         y="14.52"
         width="549.03003"
         height="549.03003"
         rx="36.599998"
         ry="36.599998"
         id="rect9" />
    </g>
    <g
       id="LWPOLYLINE-7"
       data-name="LWPOLYLINE">
      <rect
         class="cls-3"
         x="150.27"
         y="21.84"
         width="534.39001"
         height="534.39001"
         rx="29.280001"
         ry="29.280001"
         id="rect10" />
    </g>
  </g>
  <g
     id="sr_Circunferencia_roja"
     data-name="sr_Circunferencia roja"
     transform="translate(-142.45,-14.02)">
    <g
       id="CIRCLE-3"
       data-name="CIRCLE">
      <circle
         class="cls-4"
         cx="417.47"
         cy="289.03"
         r="237.91"
         id="circle23" />
    </g>
    <g
       id="CIRCLE-4"
       data-name="CIRCLE">
      <circle
         class="cls-4"
         cx="417.47"
         cy="289.03"
         r="192.16"
         id="circle24" />
    </g>
    <g
       id="HATCH-4"
       data-name="HATCH">
      <path
         class="cls-5"
         d="M 609.63,289.03 C 609.63,182.9 523.6,96.87 417.47,96.87 c -106.13,0 -192.16,86.03 -192.16,192.16 0,106.13 86.03,192.16 192.16,192.16 106.13,0 192.16,-86.03 192.16,-192.16 m 45.75,0 c 0,-131.4 -106.52,-237.91 -237.91,-237.91 -131.39,0 -237.91,106.52 -237.91,237.91 0,131.39 106.52,237.91 237.91,237.91 131.39,0 237.91,-106.52 237.91,-237.91 z"
         id="path24" />
    </g>
  </g>
</svg>
