<?xml version="1.0" encoding="UTF-8" standalone="no"?>
<svg
   viewBox="0 0 550.03003 550.03006"
   version="1.1"
   id="svg75"
   width="550.03003"
   height="550.03003"
   xmlns="http://www.w3.org/2000/svg"
   xmlns:svg="http://www.w3.org/2000/svg">
  <defs
     id="defs4">
    <style
       id="style2">.cls-1,.cls-2{fill:#fff;}.cls-2,.cls-3{stroke:#000;}.cls-2,.cls-3,.cls-4{stroke-linecap:round;stroke-linejoin:round;}.cls-5{fill:#bd2025;}.cls-5,.cls-6{fill-rule:evenodd;}.cls-3,.cls-4{fill:none;}.cls-4{stroke:#bd2025;}</style>
  </defs>
  <g
     id="sr_x5F_Fondo_del_tablero"
     transform="translate(-142.99001,-14.02)">
    <g
       id="HATCH">
      <rect
         class="cls-1"
         x="150.81"
         y="21.84"
         width="534.39001"
         height="534.39001"
         rx="29.280001"
         ry="29.280001"
         id="rect12" />
    </g>
  </g>
  <g
     id="sr_x5F_Pictograma_y_filete"
     transform="translate(-142.99001,-14.02)">
    <g
       id="HATCH-2">
      <path
         class="cls-6"
         d="m 456.09,191.21 80.72,115.27 5.07,-49.9 38.6,6.81 -19.25,109.18 -109.18,-19.25 6.81,-38.6 48.62,12.3 -80.72,-115.27 29.33,-20.54 m -76.17,0 -80.72,115.27 -5.07,-49.9 -38.6,6.81 19.25,109.18 109.18,-19.25 -6.81,-38.6 -48.62,12.3 80.72,-115.27 z"
         id="path46" />
    </g>
    <g
       id="LWPOLYLINE">
      <polygon
         class="cls-3"
         points="294.13,256.59 255.53,263.39 274.78,372.58 383.96,353.32 377.16,314.72 328.53,327.02 409.25,211.75 379.92,191.21 299.2,306.49 "
         id="polygon49" />
    </g>
    <g
       id="LWPOLYLINE-2">
      <polygon
         class="cls-3"
         points="541.88,256.59 580.48,263.39 561.23,372.58 452.05,353.32 458.85,314.72 507.48,327.02 426.76,211.75 456.09,191.21 536.81,306.49 "
         id="polygon52" />
    </g>
    <g
       id="HATCH-3">
      <path
         class="cls-6"
         d="m 180.09,556.22 h 475.82 c 16.17,0 29.28,-13.11 29.28,-29.28 V 51.12 c 0,-16.17 -13.11,-29.28 -29.28,-29.28 H 180.09 c -16.17,0 -29.28,13.11 -29.28,29.28 v 475.82 c 0,16.17 13.11,29.28 29.28,29.28 m 0,7.32 h 475.82 c 20.21,0 36.6,-16.39 36.6,-36.6 V 51.12 c 0,-20.21 -16.39,-36.6 -36.6,-36.6 H 180.09 c -20.21,0 -36.6,16.39 -36.6,36.6 v 475.82 c 0,20.21 16.39,36.6 36.6,36.6 z"
         id="path55" />
    </g>
    <g
       id="LWPOLYLINE-3">
      <rect
         class="cls-3"
         x="143.49001"
         y="14.52"
         width="549.03003"
         height="549.03003"
         rx="36.599998"
         ry="36.599998"
         id="rect58" />
    </g>
    <g
       id="LWPOLYLINE-4">
      <rect
         class="cls-3"
         x="150.81"
         y="21.84"
         width="534.39001"
         height="534.39001"
         rx="29.280001"
         ry="29.280001"
         id="rect61" />
    </g>
  </g>
  <g
     id="sr_x5F_Circunferencia_roja"
     transform="translate(-142.99001,-14.02)">
    <g
       id="CIRCLE">
      <circle
         class="cls-4"
         cx="418.01001"
         cy="289.03"
         r="237.91"
         id="circle65" />
    </g>
    <g
       id="CIRCLE-2">
      <circle
         class="cls-4"
         cx="418.01001"
         cy="289.03"
         r="192.16"
         id="circle68" />
    </g>
    <g
       id="HATCH-4">
      <path
         class="cls-5"
         d="m 610.17,289.03 c 0,-106.13 -86.03,-192.16 -192.16,-192.16 -106.13,0 -192.16,86.03 -192.16,192.16 0,106.13 86.03,192.16 192.16,192.16 106.13,0 192.16,-86.03 192.16,-192.16 m 45.75,0 C 655.92,157.63 549.4,51.12 418.01,51.12 286.62,51.12 180.1,157.64 180.1,289.03 c 0,131.39 106.52,237.91 237.91,237.91 131.39,0 237.91,-106.52 237.91,-237.91 z"
         id="path71" />
    </g>
  </g>
</svg>
