<?xml version="1.0" encoding="UTF-8" standalone="no"?>
<svg
   viewBox="0 0 550.03003 550.03006"
   version="1.1"
   id="svg10"
   sodipodi:docname="SR-14B3_30x30.svg"
   width="550.03003"
   height="550.03003"
   inkscape:version="1.4.2 (f4327f4, 2025-05-13)"
   xmlns:inkscape="http://www.inkscape.org/namespaces/inkscape"
   xmlns:sodipodi="http://sodipodi.sourceforge.net/DTD/sodipodi-0.dtd"
   xmlns="http://www.w3.org/2000/svg"
   xmlns:svg="http://www.w3.org/2000/svg">
  <sodipodi:namedview
     id="namedview10"
     pagecolor="#50505000"
     bordercolor="#ffffffff"
     borderopacity="1"
     inkscape:showpageshadow="0"
     inkscape:pageopacity="0"
     inkscape:pagecheckerboard="1"
     inkscape:deskcolor="#505050ff"
     inkscape:zoom="0.45249285"
     inkscape:cx="274.03748"
     inkscape:cy="533.71009"
     inkscape:window-width="1366"
     inkscape:window-height="697"
     inkscape:window-x="-8"
     inkscape:window-y="-8"
     inkscape:window-maximized="1"
     inkscape:current-layer="svg10" />
  <defs
     id="defs1">
    <style
       id="style1">
      .cls-1, .cls-2 {
        fill: #fff;
      }

      .cls-2, .cls-3 {
        stroke: #000;
      }

      .cls-2, .cls-3, .cls-4 {
        stroke-linecap: round;
        stroke-linejoin: round;
      }

      .cls-5 {
        fill: #bd2025;
      }

      .cls-5, .cls-6 {
        fill-rule: evenodd;
      }

      .cls-3, .cls-4 {
        fill: none;
      }

      .cls-4 {
        stroke: #bd2025;
      }

      .cls-7 {
        font-family: ArialMT, Arial;
        font-size: 155.09px;
      }
    </style>
  </defs>
  <g
     id="sr_Fondo_del_tablero"
     data-name="sr_Fondo del tablero"
     transform="translate(-142.99001,-14.02)">
    <g
       id="HATCH">
      <rect
         class="cls-1"
         x="150.81"
         y="21.84"
         width="534.39001"
         height="534.39001"
         rx="29.280001"
         ry="29.280001"
         id="rect3" />
    </g>
  </g>
  <g
     id="sr_Pictograma_y_filete"
     data-name="sr_Pictograma y filete"
     transform="translate(-142.99001,-14.02)">
    <g
       id="CIRCLE">
      <circle
         class="cls-3"
         cx="370.38"
         cy="258.04999"
         r="7.9200001"
         id="circle3" />
    </g>
    <g
       id="HATCH-2"
       data-name="HATCH">
      <path
         class="cls-6"
         d="m 489.62,157.74 77.58,77.58 -27.43,27.43 -32.43,-37.57 V 420.32 H 471.91 V 225.18 c 0,0 -32.43,37.57 -32.43,37.57 l -27.43,-27.43 77.58,-77.58 m -143.24,262.58 -59.68,-59.68 21.1,-21.1 24.95,28.9 v -79.41 h 27.26 v 79.41 c 0,0 24.95,-28.9 24.95,-28.9 l 21.1,21.1 -59.68,59.68 M 301.75,258.05 v -34.31 c 0,-1.46 -1.18,-2.64 -2.64,-2.64 h -15.84 c -1.09,0 -2.07,0.67 -2.46,1.69 l -5.46,14.15 -15.84,2.64 c -1.46,0 -2.64,1.18 -2.64,2.64 v 10.56 c 0,1.46 1.18,2.64 2.64,2.64 0.09,0 0.18,0 0.27,-0.01 1.26,-6.14 6.66,-10.54 12.93,-10.54 7.29,0 13.2,5.91 13.2,13.2 h 15.84 m 2.64,-0.02 h 52.79 c 0,-7.29 5.91,-13.2 13.2,-13.2 7.29,0 13.2,5.91 13.2,13.2 h 5.28 v -7.92 h 5.28 v -44.87 h -87.11 c -1.46,0 -2.64,1.18 -2.64,2.64 v 50.15 m 73.91,0 c 0,-4.37 -3.55,-7.92 -7.92,-7.92 -4.37,0 -7.92,3.55 -7.92,7.92 0,4.37 3.55,7.92 7.92,7.92 4.37,0 7.92,-3.55 7.92,-7.92 m -94.37,-18.56 c -0.22,0.06 -0.44,0.08 -0.66,0.08 -1.46,0 -2.64,-1.18 -2.64,-2.64 l 2.76,-8.72 c 0.35,-1.1 1.37,-1.84 2.52,-1.84 h 7.92 c 1.46,0 2.64,1.18 2.64,2.64 v 5.28 c 0,1.21 -0.82,2.27 -2,2.56 l -10.54,2.63 m -3.3,18.57 c 0,-4.37 -3.55,-7.92 -7.92,-7.92 -4.37,0 -7.92,3.55 -7.92,7.92 0,4.37 3.55,7.92 7.92,7.92 4.37,0 7.92,-3.55 7.92,-7.92 z"
         id="path3" />
    </g>
    <g
       id="LWPOLYLINE">
      <circle
         class="cls-3"
         cx="272.72"
         cy="258.04999"
         r="7.9200001"
         id="circle4" />
    </g>
    <g
       id="LWPOLYLINE-2"
       data-name="LWPOLYLINE">
      <path
         class="cls-3"
         d="m 283.93,239.49 c -0.22,0.06 -0.44,0.08 -0.66,0.08 -1.46,0 -2.64,-1.18 -2.64,-2.64 l 2.76,-8.72 c 0.35,-1.1 1.37,-1.84 2.52,-1.84 h 7.92 c 1.46,0 2.64,1.18 2.64,2.64 v 5.28 c 0,1.21 -0.82,2.27 -2,2.56 l -10.54,2.63 z"
         id="path4" />
    </g>
    <g
       id="LWPOLYLINE-3"
       data-name="LWPOLYLINE">
      <path
         class="cls-3"
         d="m 304.39,258.05 h 52.79 c 0,-7.29 5.91,-13.2 13.2,-13.2 7.29,0 13.2,5.91 13.2,13.2 h 5.28 v -7.92 h 5.28 v -44.87 h -87.11 c -1.46,0 -2.64,1.18 -2.64,2.64 z"
         id="path5" />
    </g>
    <g
       id="LWPOLYLINE-4"
       data-name="LWPOLYLINE">
      <path
         class="cls-3"
         d="m 301.75,258.05 v -34.31 c 0,-1.46 -1.18,-2.64 -2.64,-2.64 h -15.84 c -1.09,0 -2.07,0.67 -2.46,1.69 l -5.46,14.15 -15.84,2.64 c -1.46,0 -2.64,1.18 -2.64,2.64 v 10.56 c 0,1.46 1.18,2.64 2.64,2.64 0.09,0 0.18,0 0.27,-0.01 1.26,-6.14 6.66,-10.54 12.93,-10.54 7.29,0 13.2,5.91 13.2,13.2 h 15.84 z"
         id="path6" />
    </g>
    <g
       id="LWPOLYLINE-5"
       data-name="LWPOLYLINE">
      <polygon
         class="cls-3"
         points="307.82,339.54 332.77,368.44 332.77,289.03 360.02,289.03 360.02,368.44 384.97,339.54 406.07,360.64 346.39,420.32 286.72,360.64 "
         id="polygon6" />
    </g>
    <g
       id="LWPOLYLINE-6"
       data-name="LWPOLYLINE">
      <polygon
         class="cls-3"
         points="539.77,262.75 507.34,225.18 507.34,420.32 471.9,420.32 471.9,225.18 439.47,262.75 412.04,235.32 489.62,157.74 567.2,235.32 "
         id="polygon7" />
    </g>
    <g
       id="HATCH-3"
       data-name="HATCH">
      <path
         class="cls-6"
         d="m 180.09,556.22 h 475.82 c 16.17,0 29.28,-13.11 29.28,-29.28 V 51.12 c 0,-16.17 -13.11,-29.28 -29.28,-29.28 H 180.09 c -16.17,0 -29.28,13.11 -29.28,29.28 v 475.82 c 0,16.17 13.11,29.28 29.28,29.28 m 0,7.32 h 475.82 c 20.21,0 36.6,-16.39 36.6,-36.6 V 51.12 c 0,-20.21 -16.39,-36.6 -36.6,-36.6 H 180.09 c -20.21,0 -36.6,16.39 -36.6,36.6 v 475.82 c 0,20.21 16.39,36.6 36.6,36.6 z"
         id="path7" />
    </g>
    <g
       id="LWPOLYLINE-7"
       data-name="LWPOLYLINE">
      <rect
         class="cls-3"
         x="143.49001"
         y="14.52"
         width="549.03003"
         height="549.03003"
         rx="36.599998"
         ry="36.599998"
         id="rect7" />
    </g>
    <g
       id="LWPOLYLINE-8"
       data-name="LWPOLYLINE">
      <rect
         class="cls-3"
         x="150.81"
         y="21.84"
         width="534.39001"
         height="534.39001"
         rx="29.280001"
         ry="29.280001"
         id="rect8" />
    </g>
  </g>
  <g
     id="sr_Circunferencia_roja"
     data-name="sr_Circunferencia roja"
     transform="translate(-142.99001,-14.02)">
    <g
       id="CIRCLE-2"
       data-name="CIRCLE">
      <circle
         class="cls-4"
         cx="418.01001"
         cy="289.03"
         r="237.91"
         id="circle9" />
    </g>
    <g
       id="CIRCLE-3"
       data-name="CIRCLE">
      <circle
         class="cls-4"
         cx="418.01001"
         cy="289.03"
         r="192.16"
         id="circle10" />
    </g>
    <g
       id="HATCH-4"
       data-name="HATCH">
      <path
         class="cls-5"
         d="m 610.17,289.03 c 0,-106.13 -86.03,-192.16 -192.16,-192.16 -106.13,0 -192.16,86.03 -192.16,192.16 0,106.13 86.03,192.16 192.16,192.16 106.13,0 192.16,-86.03 192.16,-192.16 m 45.75,0 C 655.92,157.63 549.4,51.12 418.01,51.12 286.62,51.12 180.1,157.64 180.1,289.03 c 0,131.39 106.52,237.91 237.91,237.91 131.39,0 237.91,-106.52 237.91,-237.91 z"
         id="path10" />
    </g>
  </g>
</svg>
