<?xml version="1.0" encoding="UTF-8" standalone="no"?>
<!-- Created with Inkscape (http://www.inkscape.org/) -->

<svg
   width="710mm"
   height="710mm"
   viewBox="0 0 710 710"
   version="1.1"
   id="svg47630"
   inkscape:version="1.2.1 (9c6d41e410, 2022-07-14)"
   sodipodi:docname="Mexico road sign SR10A2 (2023).svg"
   xmlns:inkscape="http://www.inkscape.org/namespaces/inkscape"
   xmlns:sodipodi="http://sodipodi.sourceforge.net/DTD/sodipodi-0.dtd"
   xmlns="http://www.w3.org/2000/svg"
   xmlns:svg="http://www.w3.org/2000/svg">
  <sodipodi:namedview
     id="namedview47632"
     pagecolor="#ffffff"
     bordercolor="#000000"
     borderopacity="0.25"
     inkscape:showpageshadow="2"
     inkscape:pageopacity="0.0"
     inkscape:pagecheckerboard="0"
     inkscape:deskcolor="#d1d1d1"
     inkscape:document-units="mm"
     showgrid="false"
     inkscape:zoom="0.76257015"
     inkscape:cx="1363.1533"
     inkscape:cy="1252.9995"
     inkscape:window-width="1920"
     inkscape:window-height="991"
     inkscape:window-x="-9"
     inkscape:window-y="-9"
     inkscape:window-maximized="1"
     inkscape:current-layer="layer1" />
  <defs
     id="defs47627" />
  <g
     inkscape:label="Livello 1"
     inkscape:groupmode="layer"
     id="layer1"
     transform="translate(255.42173,230.09288)">
    <g
       id="g5254"
       transform="translate(-420.6776,-14442.213)">
      <rect
         style="fill:#000000;stroke-width:3.68415;stroke-opacity:0.578462;paint-order:fill markers stroke"
         id="rect20798-0-5-8-2-5-6-5"
         width="710"
         height="710"
         x="165.25587"
         y="-14922.12"
         ry="40"
         rx="40"
         transform="scale(1,-1)" />
      <rect
         style="fill:#ffffff;stroke-width:3.58037;stroke-opacity:0.578462;paint-order:fill markers stroke"
         id="rect20798-4-7-7-8-0-7-8-7"
         width="690"
         height="690"
         x="175.25612"
         y="-14912.121"
         ry="30"
         rx="30"
         transform="scale(1,-1)" />
      <g
         id="g25102-9-5-6-0-7-5-4"
         transform="matrix(0,-1,-1,0,3535.728,14922.12)">
        <circle
           style="fill:#be0018;stroke-width:6.548;stroke-opacity:0.578462;paint-order:fill markers stroke"
           id="path23624-7-9-1-5-3-2-0"
           cx="3015.4722"
           cy="-355"
           r="310"
           transform="rotate(90)" />
        <circle
           style="fill:#ffffff;stroke-width:5.28036;stroke-opacity:0.578462;paint-order:fill markers stroke"
           id="path23624-1-9-9-2-4-6-3-14"
           cx="355.00046"
           cy="3015.4727"
           r="250" />
      </g>
      <path
         id="path11397-7-6-3-8-2-1-5-6-7-8"
         style="fill:#000009;stroke-width:15.1395;stroke-linejoin:bevel;paint-order:fill markers stroke"
         d="m 630.56197,14443.72 -82.6879,-82.679 -28.7409,28.721 39.6017,34.559 h -21.4573 c -70.9118,0 -117.5246,60.571 -117.5246,114.513 v 21.469 h 38.8227 v -14.739 c 0,-35.233 26.9557,-82.495 83.7495,-82.495 h 16.4164 l -39.6017,34.559 28.741,28.721 z"
         sodipodi:nodetypes="ccccssccsscccc" />
      <g
         id="g5424-2-9-6"
         transform="matrix(8.6274799,0,0,8.6274735,-33670.974,-64688.3)">
        <path
           id="rect4971-1-2-00"
           style="fill:#000000;stroke-width:0.88092;stroke-linecap:round;stroke-linejoin:bevel;paint-order:fill markers stroke"
           d="m 3957.0747,9188.6609 c -1.4477,0 -2.2572,0.9023 -2.2572,2.2903 l -0.3834,14.704 c 0,0.4604 0.4546,0.7959 0.9818,0.7959 h 1.3209 v 2.6334 h 3.7837 v -2.6334 h 2.5285 2.528 v 2.6334 h 3.7838 v -2.6334 h 1.3214 c 0.5272,0 0.9818,-0.3355 0.9818,-0.7959 l -0.3834,-14.704 c 0,-1.388 -0.8095,-2.2903 -2.2573,-2.2903 z"
           sodipodi:nodetypes="cccscccccccccscccc" />
        <path
           id="rect5250-9-9-2"
           style="fill:#ffffff;stroke-width:1.13976;stroke-linecap:round;stroke-linejoin:bevel;paint-order:fill markers stroke"
           d="m 3960.3934,9189.8526 v 1.1606 l 5.3108,-5e-4 v -1.1606 z"
           sodipodi:nodetypes="ccccc" />
        <circle
           style="fill:#ffffff;stroke-width:1.22832;stroke-linecap:round;stroke-linejoin:bevel;paint-order:fill markers stroke"
           id="path5333-8-5-0"
           cx="3958.677"
           cy="9203.1719"
           r="1.7836332" />
        <path
           style="fill:#ffffff;stroke-width:1.196;stroke-linecap:round;stroke-linejoin:bevel;paint-order:fill markers stroke"
           d="m 3962.5259,9192.4703 v 6.5946 h -5.6325 l 0.3814,-5.4389 c 0.031,-0.6816 0.398,-1.1557 1.486,-1.1557 z"
           id="path5335-7-1-6"
           sodipodi:nodetypes="cccccc" />
        <ellipse
           style="fill:#ffffff;stroke-width:1.22833;stroke-linecap:round;stroke-linejoin:bevel;paint-order:fill markers stroke"
           id="path5333-9-85-9-2"
           cx="-3967.4209"
           cy="9203.1729"
           transform="scale(-1,1)"
           rx="1.783654"
           ry="1.7836332" />
        <path
           style="fill:#ffffff;stroke-width:1.19601;stroke-linecap:round;stroke-linejoin:bevel;paint-order:fill markers stroke"
           d="m 3963.5719,9192.4701 v 6.5946 h 5.6324 l -0.3813,-5.4389 c -0.031,-0.6816 -0.398,-1.1557 -1.486,-1.1557 z"
           id="path5335-2-5-5-1"
           sodipodi:nodetypes="cccccc" />
      </g>
    </g>
  </g>
</svg>
