<?xml version="1.0" encoding="UTF-8" standalone="no"?>
<svg
   version="1.1"
   viewBox="0 0 550.03003 550.03003"
   id="svg90"
   sodipodi:docname="SR-18A2_30x30.svg"
   width="550.03003"
   height="550.03003"
   inkscape:version="1.2.2 (b0a8486541, 2022-12-01)"
   xmlns:inkscape="http://www.inkscape.org/namespaces/inkscape"
   xmlns:sodipodi="http://sodipodi.sourceforge.net/DTD/sodipodi-0.dtd"
   xmlns="http://www.w3.org/2000/svg"
   xmlns:svg="http://www.w3.org/2000/svg">
  <sodipodi:namedview
     id="namedview92"
     pagecolor="#ffffff"
     bordercolor="#000000"
     borderopacity="0.25"
     inkscape:showpageshadow="2"
     inkscape:pageopacity="0.0"
     inkscape:pagecheckerboard="0"
     inkscape:deskcolor="#d1d1d1"
     showgrid="false"
     inkscape:zoom="0.7484375"
     inkscape:cx="275.90814"
     inkscape:cy="528.43424"
     inkscape:window-width="1577"
     inkscape:window-height="751"
     inkscape:window-x="50"
     inkscape:window-y="116"
     inkscape:window-maximized="0"
     inkscape:current-layer="svg90" />
  <defs
     id="defs4">
    <style
       id="style2">
      .cls-1, .cls-2 {
        fill: #fff;
      }

      .cls-2, .cls-3 {
        stroke: #000;
      }

      .cls-2, .cls-3, .cls-4 {
        stroke-linecap: round;
        stroke-linejoin: round;
      }

      .cls-5 {
        fill: #bd2025;
      }

      .cls-5, .cls-6 {
        fill-rule: evenodd;
      }

      .cls-3, .cls-4 {
        fill: none;
      }

      .cls-4 {
        stroke: #bd2025;
      }

      .cls-7 {
        font-family: ArialMT, Arial;
        font-size: 155.09px;
      }
    </style>
  </defs>
  <!-- Generator: Adobe Illustrator 28.6.0, SVG Export Plug-In . SVG Version: 1.2.0 Build 709)  -->
  <g
     id="sr_x5F_Fondo_del_tablero"
     transform="translate(-684.39001,-12.37)">
    <g
       id="HATCH">
      <rect
         class="cls-1"
         x="692.21002"
         y="20.190001"
         width="534.39001"
         height="534.39001"
         rx="29.280001"
         ry="29.280001"
         id="rect12" />
    </g>
  </g>
  <g
     id="sr_x5F_Pictograma_y_filete"
     transform="translate(-684.39001,-12.37)">
    <g
       id="HATCH-2"
       data-name="HATCH">
      <path
         class="cls-6"
         d="m 1031.01,281.42 h 35.81 v 14.92 h -35.81 v -14.92 m 80.57,2.98 v 5.97 h -26.85 v -11.94 h 20.89 c 3.3,0 5.97,2.67 5.97,5.97 m -125.33,0 v 5.97 c 0,0 26.85,0 26.85,0 v -11.94 h -20.89 c -3.3,0 -5.97,2.67 -5.97,5.97 m 128.31,32.83 v -5.97 H 983.27 v 5.97 h 131.29 m -110.37,-78.17 -3.01,30.43 h 95.48 l -3.01,-30.43 c -0.3,-3.05 -2.87,-5.38 -5.94,-5.38 h -77.58 c -3.07,0 -5.64,2.33 -5.94,5.38 m 89.49,108 h 8.95 c 3.3,0 5.97,-2.67 5.97,-5.97 v -17.9 c 0,0 5.97,0 5.97,0 3.3,0 5.97,-2.67 5.97,-5.97 v -35.81 c 0,-6.59 -5.34,-11.94 -11.94,-11.94 l -6.23,-32.64 c -1.34,-7.03 -7.49,-12.12 -14.65,-12.12 h -77.58 c -7.16,0 -13.31,5.09 -14.65,12.12 l -6.23,32.64 c -6.59,0 -11.94,5.34 -11.94,11.94 v 35.81 c 0,3.3 2.67,5.97 5.97,5.97 h 5.97 v 17.9 c 0,3.3 2.67,5.97 5.97,5.97 h 8.95 c 3.3,0 5.97,-2.67 5.97,-5.97 v -17.9 h 77.58 v 17.9 c 0,3.3 2.67,5.97 5.97,5.97 M 851.98,281.42 h 35.81 v 14.92 h -35.81 v -14.92 m 80.57,2.98 v 5.97 H 905.7 v -11.94 h 20.89 c 3.3,0 5.97,2.67 5.97,5.97 m -125.33,0 v 5.97 c 0,0 26.85,0 26.85,0 v -11.94 h -20.89 c -3.3,0 -5.97,2.67 -5.97,5.97 m 128.31,32.83 v -5.97 H 804.24 v 5.97 h 131.29 m -110.37,-78.17 -3.01,30.43 h 95.48 l -3.01,-30.43 c -0.3,-3.05 -2.87,-5.38 -5.94,-5.38 H 831.1 c -3.07,0 -5.64,2.33 -5.94,5.38 m 89.48,108 h 8.95 c 3.3,0 5.97,-2.67 5.97,-5.97 v -17.9 h 5.97 c 3.3,0 5.97,-2.67 5.97,-5.97 v -35.81 c 0,-6.59 -5.34,-11.94 -11.94,-11.94 l -6.23,-32.64 c -1.34,-7.03 -7.49,-12.12 -14.65,-12.12 H 831.1 c -7.16,0 -13.31,5.09 -14.65,12.12 l -6.23,32.64 c -6.59,0 -11.94,5.34 -11.94,11.94 v 35.81 c 0,3.3 2.67,5.97 5.97,5.97 h 5.97 c 0,0 0,17.9 0,17.9 0,3.3 2.67,5.97 5.97,5.97 h 8.95 c 3.3,0 5.97,-2.67 5.97,-5.97 v -17.9 h 77.58 v 17.9 c 0,3.3 2.67,5.97 5.97,5.97 z"
         id="path26" />
    </g>
    <g
       id="LWPOLYLINE">
      <path
         class="cls-3"
         d="m 914.64,347.06 h 8.95 c 3.3,0 5.97,-2.67 5.97,-5.97 v -17.9 h 5.97 c 3.3,0 5.97,-2.67 5.97,-5.97 v -35.81 c 0,-6.59 -5.34,-11.94 -11.94,-11.94 l -6.23,-32.64 c -1.34,-7.03 -7.49,-12.12 -14.65,-12.12 H 831.1 c -7.16,0 -13.31,5.09 -14.65,12.12 l -6.23,32.64 c -6.59,0 -11.94,5.34 -11.94,11.94 v 35.81 c 0,3.3 2.67,5.97 5.97,5.97 h 5.97 v 17.9 c 0,3.3 2.67,5.97 5.97,5.97 h 8.95 c 3.3,0 5.97,-2.67 5.97,-5.97 v -17.9 h 77.58 v 17.9 c 0,3.3 2.67,5.97 5.97,5.97 z"
         id="path29" />
    </g>
    <g
       id="LWPOLYLINE-2"
       data-name="LWPOLYLINE">
      <path
         class="cls-3"
         d="m 825.16,239.06 -3.01,30.43 h 95.48 l -3.01,-30.43 c -0.3,-3.05 -2.87,-5.38 -5.94,-5.38 H 831.1 c -3.07,0 -5.64,2.33 -5.94,5.38 z"
         id="path32" />
    </g>
    <g
       id="LWPOLYLINE-3"
       data-name="LWPOLYLINE">
      <rect
         class="cls-3"
         x="804.23999"
         y="311.26001"
         width="131.28999"
         height="5.9699998"
         id="rect35" />
    </g>
    <g
       id="LWPOLYLINE-4"
       data-name="LWPOLYLINE">
      <path
         class="cls-3"
         d="m 807.23,284.4 v 5.97 c 0,0 26.85,0 26.85,0 v -11.94 h -20.89 c -3.3,0 -5.97,2.67 -5.97,5.97 z"
         id="path38" />
    </g>
    <g
       id="LWPOLYLINE-5"
       data-name="LWPOLYLINE">
      <path
         class="cls-3"
         d="m 932.55,284.4 v 5.97 H 905.7 v -11.94 h 20.89 c 3.3,0 5.97,2.67 5.97,5.97 z"
         id="path41" />
    </g>
    <g
       id="LWPOLYLINE-6"
       data-name="LWPOLYLINE">
      <polyline
         class="cls-3"
         points="851.98 281.42 887.79 281.42 887.79 296.34 851.98 296.34 851.98 281.42"
         id="polyline44" />
    </g>
    <g
       id="LWPOLYLINE-7"
       data-name="LWPOLYLINE">
      <path
         class="cls-3"
         d="m 1093.68,347.06 h 8.95 c 3.3,0 5.97,-2.67 5.97,-5.97 v -17.9 h 5.97 c 3.3,0 5.97,-2.67 5.97,-5.97 v -35.81 c 0,-6.59 -5.34,-11.94 -11.94,-11.94 l -6.23,-32.64 c -1.34,-7.03 -7.49,-12.12 -14.65,-12.12 h -77.58 c -7.16,0 -13.31,5.09 -14.65,12.12 l -6.23,32.64 c -6.59,0 -11.94,5.34 -11.94,11.94 v 35.81 c 0,3.3 2.67,5.97 5.97,5.97 h 5.97 v 17.9 c 0,3.3 2.67,5.97 5.97,5.97 h 8.95 c 3.3,0 5.97,-2.67 5.97,-5.97 v -17.9 h 77.58 v 17.9 c 0,3.3 2.67,5.97 5.97,5.97 z"
         id="path47" />
    </g>
    <g
       id="LWPOLYLINE-8"
       data-name="LWPOLYLINE">
      <path
         class="cls-3"
         d="m 1004.19,239.06 -3.01,30.43 h 95.48 l -3.01,-30.43 c -0.3,-3.05 -2.87,-5.38 -5.94,-5.38 h -77.58 c -3.07,0 -5.64,2.33 -5.94,5.38 z"
         id="path50" />
    </g>
    <g
       id="LWPOLYLINE-9"
       data-name="LWPOLYLINE">
      <rect
         class="cls-3"
         x="983.27002"
         y="311.26001"
         width="131.28999"
         height="5.9699998"
         id="rect53" />
    </g>
    <g
       id="LWPOLYLINE-10"
       data-name="LWPOLYLINE">
      <path
         class="cls-3"
         d="m 986.26,284.4 v 5.97 c 0,0 26.85,0 26.85,0 v -11.94 h -20.89 c -3.3,0 -5.97,2.67 -5.97,5.97 z"
         id="path56" />
    </g>
    <g
       id="LWPOLYLINE-11"
       data-name="LWPOLYLINE">
      <path
         class="cls-3"
         d="m 1111.58,284.4 v 5.97 h -26.85 v -11.94 h 20.89 c 3.3,0 5.97,2.67 5.97,5.97 z"
         id="path59" />
    </g>
    <g
       id="LWPOLYLINE-12"
       data-name="LWPOLYLINE">
      <polyline
         class="cls-3"
         points="1031.01 281.42 1066.82 281.42 1066.82 296.34 1031.01 296.34 1031.01 281.42"
         id="polyline62" />
    </g>
    <g
       id="HATCH-3"
       data-name="HATCH">
      <path
         class="cls-6"
         d="m 721.49,554.58 h 475.82 c 16.17,0 29.28,-13.11 29.28,-29.28 V 49.48 c 0,-16.17 -13.11,-29.28 -29.28,-29.28 H 721.49 c -16.17,0 -29.28,13.11 -29.28,29.28 V 525.3 c 0,16.17 13.11,29.28 29.28,29.28 m 0,7.32 h 475.82 c 20.21,0 36.6,-16.39 36.6,-36.6 V 49.48 c 0,-20.21 -16.39,-36.6 -36.6,-36.6 H 721.49 c -20.21,0 -36.6,16.39 -36.6,36.6 V 525.3 c 0,20.21 16.39,36.6 36.6,36.6 z"
         id="path65" />
    </g>
    <g
       id="LWPOLYLINE-13"
       data-name="LWPOLYLINE">
      <rect
         class="cls-3"
         x="684.89001"
         y="12.87"
         width="549.03003"
         height="549.03003"
         rx="36.599998"
         ry="36.599998"
         id="rect68" />
    </g>
    <g
       id="LWPOLYLINE-14"
       data-name="LWPOLYLINE">
      <rect
         class="cls-3"
         x="692.21002"
         y="20.190001"
         width="534.39001"
         height="534.39001"
         rx="29.280001"
         ry="29.280001"
         id="rect71" />
    </g>
  </g>
  <g
     id="sr_x5F_Circunferencia_roja"
     transform="translate(-684.39001,-12.37)">
    <g
       id="HATCH-4"
       data-name="HATCH">
      <path
         class="cls-5"
         d="M 1078.14,438.47 808.32,168.65 c -65.58,83.44 -51.09,204.25 32.35,269.82 69.68,54.76 167.79,54.76 237.47,0 M 1110.49,406.12 840.67,136.3 c 69.68,-54.76 167.79,-54.76 237.47,0 83.44,65.58 97.93,186.38 32.35,269.82 m 86.82,-118.73 c 0,-131.4 -106.52,-237.91 -237.91,-237.91 -131.39,0 -237.91,106.52 -237.91,237.91 0,131.39 106.52,237.91 237.91,237.91 131.39,0 237.91,-106.52 237.91,-237.91 z"
         id="path75" />
    </g>
    <g
       id="LWPOLYLINE-15"
       data-name="LWPOLYLINE">
      <path
         class="cls-4"
         d="M 1110.49,406.12 840.67,136.3 c 69.68,-54.76 167.79,-54.76 237.47,0 83.44,65.58 97.93,186.38 32.35,269.82 z"
         id="path78" />
    </g>
    <g
       id="LWPOLYLINE-16"
       data-name="LWPOLYLINE">
      <path
         class="cls-4"
         d="M 1078.14,438.47 808.32,168.65 c -65.58,83.44 -51.09,204.25 32.35,269.82 69.68,54.76 167.79,54.76 237.47,0 z"
         id="path81" />
    </g>
    <g
       id="CIRCLE">
      <circle
         class="cls-4"
         cx="959.40002"
         cy="287.39001"
         r="237.91"
         id="circle84" />
    </g>
  </g>
</svg>
