<?xml version="1.0" encoding="UTF-8" standalone="no"?>
<!-- Created with Inkscape (http://www.inkscape.org/) -->

<svg
   width="710mm"
   height="710mm"
   viewBox="0 0 710 710"
   version="1.1"
   id="svg75305"
   inkscape:version="1.2.1 (9c6d41e410, 2022-07-14)"
   sodipodi:docname="Mexico road sign SR-13A3 (2023).svg"
   xmlns:inkscape="http://www.inkscape.org/namespaces/inkscape"
   xmlns:sodipodi="http://sodipodi.sourceforge.net/DTD/sodipodi-0.dtd"
   xmlns="http://www.w3.org/2000/svg"
   xmlns:svg="http://www.w3.org/2000/svg">
  <sodipodi:namedview
     id="namedview75307"
     pagecolor="#ffffff"
     bordercolor="#000000"
     borderopacity="0.25"
     inkscape:showpageshadow="2"
     inkscape:pageopacity="0.0"
     inkscape:pagecheckerboard="0"
     inkscape:deskcolor="#d1d1d1"
     inkscape:document-units="mm"
     showgrid="false"
     inkscape:zoom="0.76257015"
     inkscape:cx="1232.0178"
     inkscape:cy="1243.82"
     inkscape:window-width="1920"
     inkscape:window-height="991"
     inkscape:window-x="-9"
     inkscape:window-y="-9"
     inkscape:window-maximized="1"
     inkscape:current-layer="layer1" />
  <defs
     id="defs75302" />
  <g
     inkscape:label="Livello 1"
     inkscape:groupmode="layer"
     id="layer1"
     transform="translate(220.72551,232.52257)">
    <g
       id="g21493"
       transform="translate(2149.0699,-14383.838)">
      <rect
         style="fill:#000000;stroke-width:3.68415;stroke-opacity:0.578462;paint-order:fill markers stroke"
         id="rect20798-0-5-8-1-4-4-2-5"
         width="710"
         height="710"
         x="-2369.7954"
         y="-14861.315"
         ry="40"
         rx="40"
         transform="scale(1,-1)" />
      <rect
         style="fill:#ffffff;stroke-width:3.58037;stroke-opacity:0.578462;paint-order:fill markers stroke"
         id="rect20798-4-7-7-8-5-1-1-1-4"
         width="690"
         height="690"
         x="-2359.7952"
         y="-14851.315"
         ry="30"
         rx="30"
         transform="scale(1,-1)" />
      <g
         id="g25102-9-5-6-8-7-36-6-45"
         transform="matrix(0,-1,-1,0,1000.6767,14861.315)">
        <circle
           style="fill:#be0018;stroke-width:6.548;stroke-opacity:0.578462;paint-order:fill markers stroke"
           id="path23624-7-9-1-3-8-6-1-9"
           cx="3015.4722"
           cy="-355"
           r="310"
           transform="rotate(90)" />
        <circle
           style="fill:#ffffff;stroke-width:5.28036;stroke-opacity:0.578462;paint-order:fill markers stroke"
           id="path23624-1-9-9-2-9-9-3-4-7"
           cx="355.00046"
           cy="3015.4727"
           r="250" />
      </g>
      <circle
         style="fill:#ffffff;stroke-width:0.864673;stroke-linecap:round;stroke-linejoin:bevel;paint-order:fill markers stroke"
         id="path5333-6-3-0-2-96"
         cx="-2087.8257"
         cy="14165.165"
         r="1.2555839" />
      <circle
         style="fill:#ffffff;stroke-width:0.864673;stroke-linecap:round;stroke-linejoin:bevel;paint-order:fill markers stroke"
         id="path5333-6-9-74-1-1-17"
         cx="-2084.7002"
         cy="14165.165"
         r="1.2555839" />
      <circle
         style="fill:#ffffff;stroke-width:0.864673;stroke-linecap:round;stroke-linejoin:bevel;paint-order:fill markers stroke"
         id="path5333-6-1-0-3-7-44"
         cx="-2080.2551"
         cy="14165.165"
         r="1.2555839" />
      <circle
         style="fill:#ffffff;stroke-width:0.864673;stroke-linecap:round;stroke-linejoin:bevel;paint-order:fill markers stroke"
         id="path5333-6-9-7-8-4-28-1"
         cx="-2077.1296"
         cy="14165.165"
         r="1.2555839" />
      <path
         id="path11397-7-6-3-8-2-1-5-59-2-0-7-8-2-1-2"
         style="fill:#000000;stroke-width:16.995;stroke-linejoin:bevel;paint-order:fill markers stroke"
         d="m -2129.284,14418.28 -32.2492,32.237 44.4587,41.828 -103.1239,-3.785 v 45.075 l 103.1239,-3.769 -44.4587,41.795 32.2492,32.237 92.8278,-92.809 z"
         sodipodi:nodetypes="cccccccccc" />
      <g
         id="g12678-0-8-5-6"
         transform="matrix(9.0832977,0,0,9.083289,-20157.324,-84637.773)">
        <path
           id="path12519-9-3-9-1-4"
           style="fill:#000000;stroke-width:1.496;stroke-linejoin:bevel;stroke-opacity:0.738462;paint-order:fill markers stroke"
           d="m 2003.409,10906.998 c -1.883,0 -2.452,1.066 -2.8267,2.465 l -0.5711,4.426 c -0.7242,0 -1.7828,0.359 -1.7828,1.633 l -0.1297,5.742 c 0,0.417 0.421,0.72 0.7204,0.72 h 1.2216 v 2.607 c 0,0.888 0.9363,1.133 1.6536,1.133 0.7173,0 1.6532,-0.298 1.6532,-1.133 v -2.607 h 11.3104 v 2.607 c 0,0.835 0.9363,1.133 1.6536,1.133 0.7173,0 1.6532,-0.245 1.6532,-1.133 v -2.607 h 1.2221 c 0.2994,0 0.7199,-0.303 0.7199,-0.72 l -0.1292,-5.742 c 0,-1.274 -1.0587,-1.633 -1.7829,-1.633 l -0.571,-4.426 c -0.3747,-1.399 -0.9437,-2.465 -2.8267,-2.465 z m 0.2077,1.487 h 10.7725 c 0.8001,0 1.1974,0.294 1.4066,1.074 l 0.37,4.33 h -14.3263 l 0.3706,-4.33 c 0.2092,-0.78 0.6065,-1.074 1.4066,-1.074 z"
           sodipodi:nodetypes="cccccscsssccssscsccccccccccccc" />
        <path
           id="rect12550-7-9-9-9-1"
           style="fill:#ffffff;stroke-width:1.49594;stroke-linejoin:bevel;stroke-opacity:0.738462;paint-order:fill markers stroke"
           d="m -2006.354,10915.895 v 1.954 h -5.2979 v -1.954 z"
           transform="scale(-1,1)"
           sodipodi:nodetypes="ccccc" />
        <path
           id="rect12552-5-5-8-0-9"
           style="fill:#ffffff;stroke-width:1.39723;stroke-linejoin:bevel;stroke-opacity:0.738462;paint-order:fill markers stroke"
           d="m -1999.4108,10920.17 v 0.777 h -19.1843 v -0.777 z"
           transform="scale(-1,1)"
           sodipodi:nodetypes="ccccc" />
        <path
           id="rect12579-4-2-1-9-0"
           style="fill:#ffffff;stroke-width:1.19538;stroke-linejoin:bevel;stroke-opacity:0.738462;paint-order:fill markers stroke"
           d="m 2017.0739,10915.328 h -2.6688 v 1.59 h 3.8737 v -0.559 c 0,-0.483 -0.4518,-1.031 -1.2049,-1.031 z"
           sodipodi:nodetypes="cccccc" />
        <path
           id="rect12579-4-3-1-7-1-9"
           style="fill:#ffffff;stroke-width:1.19537;stroke-linejoin:bevel;stroke-opacity:0.738462;paint-order:fill markers stroke"
           d="m 2000.9317,10915.328 h 2.6688 v 1.59 h -3.8736 v -0.559 c 0,-0.483 0.4518,-1.031 1.2048,-1.031 z"
           sodipodi:nodetypes="cccccc" />
      </g>
    </g>
  </g>
</svg>
