<?xml version="1.0" encoding="UTF-8" standalone="no"?>
<!-- Created with Inkscape (http://www.inkscape.org/) -->

<svg
   width="710mm"
   height="710mm"
   viewBox="0 0 710 710"
   version="1.1"
   id="svg49691"
   inkscape:version="1.2.1 (9c6d41e410, 2022-07-14)"
   sodipodi:docname="Mexico road sign SR10A3 (2023).svg"
   xmlns:inkscape="http://www.inkscape.org/namespaces/inkscape"
   xmlns:sodipodi="http://sodipodi.sourceforge.net/DTD/sodipodi-0.dtd"
   xmlns="http://www.w3.org/2000/svg"
   xmlns:svg="http://www.w3.org/2000/svg">
  <sodipodi:namedview
     id="namedview49693"
     pagecolor="#ffffff"
     bordercolor="#000000"
     borderopacity="0.25"
     inkscape:showpageshadow="2"
     inkscape:pageopacity="0.0"
     inkscape:pagecheckerboard="0"
     inkscape:deskcolor="#d1d1d1"
     inkscape:document-units="mm"
     showgrid="false"
     inkscape:zoom="0.76257015"
     inkscape:cx="1374.9555"
     inkscape:cy="1155.9592"
     inkscape:window-width="1920"
     inkscape:window-height="991"
     inkscape:window-x="-9"
     inkscape:window-y="-9"
     inkscape:window-maximized="1"
     inkscape:current-layer="layer1" />
  <defs
     id="defs49688" />
  <g
     inkscape:label="Livello 1"
     inkscape:groupmode="layer"
     id="layer1"
     transform="translate(258.54436,255.76796)">
    <g
       id="g5190"
       transform="translate(-171.62,-13117.808)">
      <rect
         style="fill:#000000;stroke-width:3.68415;stroke-opacity:0.578462;paint-order:fill markers stroke"
         id="rect20798-0-5-8-2-5-6"
         width="710"
         height="710"
         x="-86.924362"
         y="-13572.04"
         ry="40"
         rx="40"
         transform="scale(1,-1)" />
      <rect
         style="fill:#ffffff;stroke-width:3.58037;stroke-opacity:0.578462;paint-order:fill markers stroke"
         id="rect20798-4-7-7-8-0-7-8"
         width="690"
         height="690"
         x="-76.924118"
         y="-13562.041"
         ry="30"
         rx="30"
         transform="scale(1,-1)" />
      <g
         id="g25102-9-5-6-0-7-5"
         transform="matrix(0,-1,-1,0,3283.5478,13572.04)">
        <circle
           style="fill:#be0018;stroke-width:6.548;stroke-opacity:0.578462;paint-order:fill markers stroke"
           id="path23624-7-9-1-5-3-2"
           cx="3015.4722"
           cy="-355"
           r="310"
           transform="rotate(90)" />
        <circle
           style="fill:#ffffff;stroke-width:5.28036;stroke-opacity:0.578462;paint-order:fill markers stroke"
           id="path23624-1-9-9-2-4-6-3"
           cx="355.00046"
           cy="3015.4727"
           r="250" />
      </g>
      <path
         id="path11397-7-6-3-8-2-1-5-6-7-4"
         style="fill:#000000;stroke-width:15.1395;stroke-linejoin:bevel;paint-order:fill markers stroke"
         d="m 378.38136,13093.651 -82.6878,-82.68 -28.741,28.721 39.6017,34.559 h -21.4573 c -70.9118,0 -117.5245,60.571 -117.5245,114.513 v 21.469 h 38.8226 v -14.739 c 0,-35.232 26.9558,-82.494 83.7495,-82.494 h 16.4164 l -39.6016,34.559 28.7409,28.721 z"
         sodipodi:nodetypes="ccccssccsscccc" />
      <g
         id="g25723-6"
         transform="matrix(13.425971,0,0,13.425971,-39675.803,-122312.72)">
        <ellipse
           style="fill:#000000;stroke-width:0.566424;stroke-linejoin:bevel;stroke-opacity:0.738462;paint-order:fill markers stroke"
           id="path22193-8-75"
           cx="2966.2378"
           cy="10103.941"
           rx="1.5145167"
           ry="1.5145" />
        <circle
           style="fill:#000000;stroke-width:0.566421;stroke-linejoin:bevel;stroke-opacity:0.738462;paint-order:fill markers stroke"
           id="path22193-8-7-7"
           cx="2983.0059"
           cy="10103.941"
           r="1.5145" />
        <path
           id="rect23817-43"
           style="fill:#000000;stroke-width:1.47832;stroke-linejoin:bevel;stroke-opacity:0.738462;paint-order:fill markers stroke"
           d="m 2971.5773,10094.847 v 9.153 h 9.2035 a 2.2281013,2.2281013 0 0 1 0,-0.07 2.2281013,2.2281013 0 0 1 2.2283,-2.229 2.2281013,2.2281013 0 0 1 2.2278,2.229 2.2281013,2.2281013 0 0 1 0,0.07 h 1.1689 v -1.32 h 0.8305 v -7.833 z" />
        <path
           id="rect23817-4-7"
           style="fill:#000000;stroke-width:0.878148;stroke-linejoin:bevel;stroke-opacity:0.738462;paint-order:fill markers stroke"
           d="m 2967.6488,10097.57 -1.0475,2.699 -2.7548,0.419 c -0.427,0.1 -0.3783,0.22 -0.3783,0.438 v 2.187 c 0,0.256 0.2136,0.416 0.5281,0.406 h 0.026 a 2.2281013,2.2281013 0 0 1 2.2158,-2.007 2.2281013,2.2281013 0 0 1 2.2278,2.229 2.2281013,2.2281013 0 0 1 0,0.06 h 2.8665 v -6.431 z" />
        <path
           style="fill:#ffffff;stroke-width:1.496;stroke-linejoin:bevel;stroke-opacity:0.738462;paint-order:fill markers stroke"
           d="m 2968.4086,10098.577 -0.6813,1.545 c -0.1773,0.331 0.091,0.755 0.4383,0.633 l 2.062,-0.594 10e-5,-1.584 z"
           id="path23906-7"
           sodipodi:nodetypes="cccccc" />
      </g>
    </g>
  </g>
</svg>
