<?xml version="1.0" encoding="UTF-8" standalone="no"?>
<!-- Created with Inkscape (http://www.inkscape.org/) -->

<svg
   width="710mm"
   height="710mm"
   viewBox="0 0 710 710"
   version="1.1"
   id="svg92496"
   inkscape:version="1.2.1 (9c6d41e410, 2022-07-14)"
   sodipodi:docname="Mexico road sign SR-22A4 (2023).svg"
   xmlns:inkscape="http://www.inkscape.org/namespaces/inkscape"
   xmlns:sodipodi="http://sodipodi.sourceforge.net/DTD/sodipodi-0.dtd"
   xmlns="http://www.w3.org/2000/svg"
   xmlns:svg="http://www.w3.org/2000/svg">
  <sodipodi:namedview
     id="namedview92498"
     pagecolor="#ffffff"
     bordercolor="#000000"
     borderopacity="0.25"
     inkscape:showpageshadow="2"
     inkscape:pageopacity="0.0"
     inkscape:pagecheckerboard="0"
     inkscape:deskcolor="#d1d1d1"
     inkscape:document-units="mm"
     showgrid="false"
     inkscape:zoom="0.76257015"
     inkscape:cx="1473.3071"
     inkscape:cy="1060.2303"
     inkscape:window-width="1920"
     inkscape:window-height="991"
     inkscape:window-x="-9"
     inkscape:window-y="-9"
     inkscape:window-maximized="1"
     inkscape:current-layer="layer1" />
  <defs
     id="defs92493" />
  <g
     inkscape:label="Livello 1"
     inkscape:groupmode="layer"
     id="layer1"
     transform="translate(284.56666,281.09755)">
    <g
       id="g51604"
       transform="translate(5607.1726,-18071.287)">
      <rect
         style="fill:#000000;stroke-width:3.68415;stroke-opacity:0.578462;paint-order:fill markers stroke"
         id="rect20798-3-0-5-3"
         width="710"
         height="710"
         x="-5891.7393"
         y="17790.189"
         ry="40"
         rx="40" />
      <rect
         style="fill:#ffffff;stroke-width:3.58037;stroke-opacity:0.578462;paint-order:fill markers stroke"
         id="rect20798-4-77-0-4-6"
         width="690"
         height="690"
         x="-5881.7393"
         y="17800.189"
         ry="30"
         rx="30" />
      <circle
         style="fill:#be0018;stroke-width:6.548;stroke-opacity:0.578462;paint-order:fill markers stroke"
         id="path23624-04-3-95-2"
         cx="5536.7397"
         cy="-18145.189"
         r="310"
         transform="scale(-1)" />
      <circle
         style="fill:#ffffff;stroke-width:5.28036;stroke-opacity:0.578462;paint-order:fill markers stroke"
         id="path23624-1-93-0-1-9"
         cx="18145.191"
         cy="5536.7402"
         r="250"
         transform="rotate(90)" />
      <path
         id="rect29600-7-1-29-9"
         style="fill:#000000;stroke-width:12.523;stroke-linejoin:bevel;stroke-opacity:0.738462;paint-order:fill markers stroke"
         d="m -5600.9748,17943.257 v 158.143 h 116.5077 v -29.125 h -84.5091 v -38.211 h 56.589 v -26.668 h -56.589 v -35.014 h 84.5091 v -29.125 z"
         sodipodi:nodetypes="ccccccccccccc" />
      <g
         id="g51593">
        <path
           id="path3303-9-1-2-6"
           style="fill:#000000;stroke-width:37.8426;stroke-linejoin:bevel;paint-order:fill markers stroke"
           d="m -5548.1836,18127.89 c -7.2198,0 -13.3174,1.346 -17.7021,5.25 -4.3729,3.92 -6.2422,8.362 -9.6073,14.183 l -28.7109,48.02 c -9.8497,-4.795 -20.6785,-7.268 -31.6487,-7.218 -14.5675,0 -28.7681,4.593 -40.7007,12.939 l 5.4951,7.857 c 10.415,-7.302 22.8322,-11.222 35.5539,-11.239 9.434,0 18.3734,2.12 26.3789,5.889 l -5.0678,8.48 a 52.152674,52.152674 0 0 0 -21.121,-4.509 52.152674,52.152674 0 0 0 -52.1504,52.142 52.152674,52.152674 0 0 0 52.1504,52.159 52.152674,52.152674 0 0 0 52.1522,-52.159 52.152674,52.152674 0 0 0 -18.2775,-39.591 l 5.0779,-8.48 c 13.9466,11.358 22.859,28.671 22.859,48.071 v 3.836 h 9.5737 v -3.836 c 0,-22.244 -10.3325,-42.956 -27.4843,-56.366 l 8.8081,-14.722 c 4.8457,1.346 7.913,2.457 9.9556,7.235 l 11.2764,39.035 c 7.6943,23.859 14.7811,34.29 32.5354,34.29 h 24.9975 2.714 12.4239 a 52.152675,52.152675 0 0 0 51.2738,42.687 52.152675,52.152675 0 0 0 52.1505,-52.159 52.152675,52.152675 0 0 0 -52.1505,-52.142 52.152675,52.152675 0 0 0 -27.7199,8.042 l -6.3634,-7.655 c 9.8479,-6.495 21.5955,-10.247 34.0833,-10.247 15.9993,0 31.3811,6.192 42.9251,17.263 4.9281,-0.673 7.5613,-9.507 2.5659,-13.965 0,0 -26.2074,-27.039 -65.2811,-27.039 -24.4389,0 -40.7108,12.72 -48.6995,12.72 h -4.2333 c -5.1705,-10.667 -14.9511,-19.13 -27.7721,-22.277 -8.1233,-1.009 -16.4384,-1.514 -23.7895,0.505 v 0 c -2.798,1.01 -5.5793,2.204 -8.3117,3.853 l -0.5553,-0.168 8.0863,-13.528 c 3.5805,-6.192 5.6113,-9.607 6.6343,-10.516 1.0263,-1.009 1.8474,-1.346 7.6606,-1.346 h 21.4407 a 7.5329623,7.5329623 0 0 0 7.531,-7.537 7.5329623,7.5329623 0 0 0 -7.531,-7.538 z m 65.1935,89.797 6.3651,7.656 a 52.152675,52.152675 0 0 0 -12.6158,28.755 h -9.826 l 0.9422,-6.899 c 2.3371,-11.357 7.7044,-21.452 15.1379,-29.512 z m 45.5616,2.978 a 39.019032,39.017927 0 0 1 39.0216,39.019 39.019032,39.017927 0 0 1 -39.0216,39.018 39.019032,39.017927 0 0 1 -37.8051,-29.546 h 23.1619 a 17.47826,17.480805 0 0 0 14.6516,8.009 17.47826,17.480805 0 0 0 17.485,-17.498 17.47826,17.480805 0 0 0 -17.485,-17.465 17.47826,17.480805 0 0 0 -4.9736,0.673 l -14.268,-17.162 a 39.019032,39.017927 0 0 1 19.2332,-5.115 z m -197.8857,0 a 39.019032,39.017928 0 0 1 14.3117,2.76 l -11.3723,19.013 a 17.478258,17.480805 0 0 0 -2.931,-0.169 17.478258,17.480805 0 0 0 -17.4749,17.482 17.478258,17.480805 0 0 0 17.4749,17.482 17.478258,17.480805 0 0 0 17.4867,-17.482 17.478258,17.480805 0 0 0 -2.2092,-8.497 l 11.729,-19.602 a 39.019032,39.017928 0 0 1 12.0084,28.099 39.019032,39.017928 0 0 1 -39.0233,39.035 39.019032,39.017928 0 0 1 -39.0215,-39.035 39.019032,39.017928 0 0 1 39.0215,-39.001 z m 167.2281,14.925 14.5102,17.448 a 17.47826,17.480805 0 0 0 -0.387,1.009 h -22.0329 a 39.019032,39.017927 0 0 1 7.913,-18.491 z" />
        <path
           style="fill:#000000;stroke-width:25.1709;stroke-linejoin:bevel;stroke-opacity:0.615385;paint-order:fill markers stroke"
           d="m -5617.2184,18150.554 v 36.074 c 0,0 18.6981,0.673 18.6981,-18.037 0,-18.66 -18.6981,-18.037 -18.6981,-18.037 z"
           id="path51161-1-3"
           sodipodi:nodetypes="cczc" />
      </g>
      <path
         style="fill:#beff18;stroke:#be0018;stroke-width:60;paint-order:fill markers stroke"
         d="m -5741.7394,17940.189 410,410"
         id="path25886-6-9-66-7"
         sodipodi:nodetypes="cc" />
    </g>
  </g>
</svg>
