<?xml version="1.0" encoding="UTF-8" standalone="no"?>
<!-- Created with Inkscape (http://www.inkscape.org/) -->

<svg
   width="710mm"
   height="710mm"
   viewBox="0 0 710 710"
   version="1.1"
   id="svg16505"
   inkscape:version="1.2.1 (9c6d41e410, 2022-07-14)"
   sodipodi:docname="Mexico road sign SR-26A1.svg"
   xmlns:inkscape="http://www.inkscape.org/namespaces/inkscape"
   xmlns:sodipodi="http://sodipodi.sourceforge.net/DTD/sodipodi-0.dtd"
   xmlns="http://www.w3.org/2000/svg"
   xmlns:svg="http://www.w3.org/2000/svg">
  <sodipodi:namedview
     id="namedview16507"
     pagecolor="#ffffff"
     bordercolor="#000000"
     borderopacity="0.25"
     inkscape:showpageshadow="2"
     inkscape:pageopacity="0.0"
     inkscape:pagecheckerboard="0"
     inkscape:deskcolor="#d1d1d1"
     inkscape:document-units="mm"
     showgrid="false"
     inkscape:zoom="0.76257015"
     inkscape:cx="1246.4427"
     inkscape:cy="1155.9592"
     inkscape:window-width="1920"
     inkscape:window-height="991"
     inkscape:window-x="-9"
     inkscape:window-y="-9"
     inkscape:window-maximized="1"
     inkscape:current-layer="layer1" />
  <defs
     id="defs16502" />
  <g
     inkscape:label="Livello 1"
     inkscape:groupmode="layer"
     id="layer1"
     transform="translate(224.5421,255.769)">
    <g
       id="g15742"
       transform="translate(1602.6963,-22339.644)">
      <rect
         style="fill:#000000;stroke-width:3.68415;stroke-opacity:0.578462;paint-order:fill markers stroke"
         id="rect20798-0-9-0-5"
         width="710"
         height="710"
         x="-1827.2384"
         y="22083.875"
         ry="40"
         rx="40" />
      <rect
         style="fill:#ffffff;stroke-width:3.58037;stroke-opacity:0.578462;paint-order:fill markers stroke"
         id="rect20798-4-8-3-8"
         width="690"
         height="690"
         x="-1817.2379"
         y="22093.875"
         ry="30"
         rx="30" />
      <circle
         style="fill:#be0018;stroke-width:6.548;stroke-opacity:0.578462;paint-order:fill markers stroke"
         id="path23624-0-6-2-0"
         cx="1472.2382"
         cy="-22438.877"
         r="310"
         transform="scale(-1)" />
      <circle
         style="fill:#ffffff;stroke-width:5.28036;stroke-opacity:0.578462;paint-order:fill markers stroke"
         id="path23624-1-4-2-4"
         cx="22438.877"
         cy="1472.2386"
         r="250"
         transform="rotate(90)" />
      <path
         id="path11397-7-6-3-8-2-1-5-59-2-0-7-8-2-1-2-9-8-52-6-7"
         style="fill:#000000;stroke-width:18.0573;stroke-linejoin:bevel;paint-order:fill markers stroke"
         d="m -1569.7382,22325.972 34.6264,34.626 43.4191,-50.132 -5.0565,113.227 h 48.8039 l -4.8366,-113.227 43.6395,50.132 34.4042,-34.626 -97.5001,-97.5 z"
         sodipodi:nodetypes="cccccccccc" />
      <path
         id="path7791-1-1-1-6-1-1-5-5"
         style="color:#000000;fill:#000000;stroke-width:10.8782;stroke-linecap:round;stroke-linejoin:bevel;paint-order:fill markers stroke"
         d="m -1490.9642,22447.047 h -12.0868 c -6.0167,0 -11.2747,1.514 -15.2558,4.475 -3.9825,2.995 -6.3783,7.101 -8.1557,11.257 l -0.1683,0.336 -10.4513,29.63 c -0.5165,0.841 -0.8396,1.733 -0.9523,2.725 l -6.3509,17.97 c -4.0763,-1.01 -8.2494,-1.514 -12.4354,-1.514 -30.2242,0 -54.7284,24.497 -54.7301,54.716 0,30.218 24.5027,54.716 54.7301,54.716 30.2239,0 54.7249,-24.498 54.7236,-54.716 0,-20.645 -11.6346,-39.523 -30.0561,-48.827 l 3.3272,-9.44 56.6026,59.108 c 3.8663,4.257 6.0393,6.024 9.7362,7.033 3.6986,1.01 7.8944,1.178 9.2293,1.178 h 14.6713 c 4.3832,26.399 27.2134,45.748 53.9714,45.765 30.2259,0 54.7255,-24.514 54.7255,-54.716 0,-30.252 -24.5014,-54.75 -54.7255,-54.75 -5.831,0 -11.6265,1.009 -17.1622,2.793 l -15.4978,-25.221 v 0 c -1.0331,-1.683 -1.8582,-2.962 -2.6589,-4.139 l 5.4757,-14.454 h 12.6311 c 3.5887,0 6.4977,-2.91 6.4977,-6.494 0,-3.601 -2.9026,-6.528 -6.4977,-6.545 h -43.898 c -3.5953,0 -6.5074,2.944 -6.4979,6.545 0,3.584 2.9077,6.494 6.4979,6.494 h 17.3414 l -3.0398,8.043 h -1.4201 -85.5743 l 3.965,-11.239 c 1.2922,-3.012 2.5621,-4.812 3.9682,-5.872 1.4369,-1.178 3.3497,-1.868 7.4148,-1.868 h 12.0914 c 3.5953,0 6.5172,-2.911 6.5204,-6.511 0,-3.567 -2.9236,-6.512 -6.5204,-6.512 z m -32.0242,44.991 h 86.6301 l -25.5716,67.487 c -0.2255,0 -0.4375,-0.337 -0.6613,-0.673 h -0.1682 l -61.2505,-63.971 z m 97.2653,8.631 12.1369,19.737 c -14.7844,9.22 -24.2865,24.952 -25.5893,42.316 h -10.0672 z m -131.0732,24.414 c 2.7072,0 5.4065,0.337 8.0604,0.841 l -13.743,38.968 c -1.1946,3.382 0.5805,7.117 3.973,8.295 3.3918,1.346 7.1144,-0.673 8.3075,-3.988 l 13.6897,-38.799 c 13.2169,7.37 21.4178,21.284 21.4289,36.41 0,23.051 -18.6779,41.727 -41.7165,41.744 -23.0403,0 -41.7168,-18.693 -41.7168,-41.744 0,-23.034 18.6765,-41.71 41.7168,-41.71 z m 172.2059,0 c 23.0384,0 41.7165,18.66 41.7165,41.694 0,23.05 -18.6781,41.71 -41.7165,41.71 -19.563,0 -36.4865,-13.646 -40.6999,-32.726 h 46.0401 c 1.6506,0 3.5532,0.505 6.4815,-2.036 1.4689,-1.346 2.436,-3.718 2.4619,-5.367 0,-1.682 -0.387,-2.709 -0.7252,-3.5 -1.3393,-3.146 -2.7801,-4.576 -4.5462,-7.487 l -19.1253,-31.127 c 3.3047,-0.841 6.6997,-1.346 10.1092,-1.346 z m -22.1768,6.411 19.2756,31.329 h -38.6077 c 1.2585,-12.855 8.3949,-24.414 19.3321,-31.262 z"
         inkscape:transform-center-x="-224.75636"
         inkscape:transform-center-y="-511.73916"
         sodipodi:nodetypes="ccscccccccccccccccccccccccccccccccccccscccccccccccccccccccccccccccccccccccccccccccc" />
      <path
         style="fill:#beff18;stroke:#be0018;stroke-width:60;paint-order:fill markers stroke"
         d="m -1677.2384,22233.875 410,410"
         id="path25886-3-6-4"
         sodipodi:nodetypes="cc" />
    </g>
  </g>
</svg>
