<?xml version="1.0" encoding="UTF-8" standalone="no"?>
<!-- Created with Inkscape (http://www.inkscape.org/) -->

<svg
   width="710mm"
   height="710mm"
   viewBox="0 0 710 710"
   version="1.1"
   id="svg84885"
   inkscape:version="1.2.1 (9c6d41e410, 2022-07-14)"
   sodipodi:docname="Mexico road sign SR-22A1 (2023).svg"
   xmlns:inkscape="http://www.inkscape.org/namespaces/inkscape"
   xmlns:sodipodi="http://sodipodi.sourceforge.net/DTD/sodipodi-0.dtd"
   xmlns="http://www.w3.org/2000/svg"
   xmlns:svg="http://www.w3.org/2000/svg">
  <sodipodi:namedview
     id="namedview84887"
     pagecolor="#ffffff"
     bordercolor="#000000"
     borderopacity="0.25"
     inkscape:showpageshadow="2"
     inkscape:pageopacity="0.0"
     inkscape:pagecheckerboard="0"
     inkscape:deskcolor="#d1d1d1"
     inkscape:document-units="mm"
     showgrid="false"
     inkscape:zoom="0.76257015"
     inkscape:cx="1471.9957"
     inkscape:cy="1127.1094"
     inkscape:window-width="1920"
     inkscape:window-height="991"
     inkscape:window-x="-9"
     inkscape:window-y="-9"
     inkscape:window-maximized="1"
     inkscape:current-layer="layer1" />
  <defs
     id="defs84882" />
  <g
     inkscape:label="Livello 1"
     inkscape:groupmode="layer"
     id="layer1"
     transform="translate(284.21958,263.40206)">
    <g
       id="g47358"
       transform="translate(4365.7189,-18967.988)">
      <rect
         style="fill:#000000;stroke-width:3.68415;stroke-opacity:0.578462;paint-order:fill markers stroke"
         id="rect20798-3-0-5"
         width="710"
         height="710"
         x="-4649.9385"
         y="18704.586"
         ry="40"
         rx="40" />
      <rect
         style="fill:#ffffff;stroke-width:3.58037;stroke-opacity:0.578462;paint-order:fill markers stroke"
         id="rect20798-4-77-0-4"
         width="690"
         height="690"
         x="-4639.9385"
         y="18714.586"
         ry="30"
         rx="30" />
      <g
         id="g25102-4-8-1"
         transform="rotate(90,-9992.026,8712.5597)">
        <circle
           style="fill:#be0018;stroke-width:6.548;stroke-opacity:0.578462;paint-order:fill markers stroke"
           id="path23624-04-3-95"
           cx="3015.4722"
           cy="-355"
           r="310"
           transform="rotate(90)" />
        <circle
           style="fill:#ffffff;stroke-width:5.28036;stroke-opacity:0.578462;paint-order:fill markers stroke"
           id="path23624-1-93-0-1"
           cx="355.00046"
           cy="3015.4727"
           r="250" />
      </g>
      <path
         id="path7791-1-1-1-6-1"
         style="color:#000000;fill:#000000;stroke-width:11.3376;stroke-linecap:round;stroke-linejoin:bevel;paint-order:fill markers stroke"
         d="m -4320.021,19043.356 h -12.5973 c -6.2708,0 -11.7508,1.514 -15.9,4.661 -4.1508,3.129 -6.6477,7.403 -8.5002,11.744 l -0.1683,0.336 -10.8928,30.875 c -0.5384,0.841 -0.8749,1.817 -0.9927,2.827 l -6.6191,18.743 c -4.2484,-1.009 -8.5978,-1.514 -12.9606,-1.514 -31.5006,0 -57.0399,25.541 -57.0416,57.038 0,31.497 25.5376,57.038 57.0416,57.038 31.5006,0 57.0365,-25.541 57.0349,-57.038 0,-21.52 -12.1261,-41.189 -31.3256,-50.88 l 3.4677,-9.843 58.9933,61.598 c 4.0297,4.425 6.2944,6.276 10.1475,7.353 3.8547,1.009 8.2276,1.177 9.6191,1.177 h 15.2909 c 4.5681,27.51 28.3627,47.684 56.2508,47.701 31.5023,0 57.0366,-25.541 57.0366,-57.039 0,-31.514 -25.536,-57.055 -57.0366,-57.055 -6.0773,0 -12.1176,1.01 -17.8871,2.911 l -16.1524,-26.264 v 0 c -1.0768,-1.7 -1.9366,-3.113 -2.7712,-4.325 l 5.7072,-15.075 h 13.1643 c 3.7403,0 6.7722,-3.029 6.7722,-6.764 0,-3.752 -3.0252,-6.797 -6.7722,-6.814 h -45.7518 c -3.747,0 -6.7823,3.062 -6.7722,6.814 0,3.735 3.0302,6.764 6.7722,6.764 h 18.0739 l -3.1682,8.379 h -1.4807 -89.1883 l 4.1324,-11.711 c 1.346,-3.129 2.6702,-5.014 4.1357,-6.107 1.4974,-1.178 3.4912,-1.952 7.7279,-1.952 h 12.6022 c 3.7471,0 6.7925,-3.029 6.7958,-6.781 0,-3.735 -3.0471,-6.78 -6.7958,-6.78 z m -33.3767,46.876 h 90.2887 l -26.6515,70.347 c -0.2355,-0.169 -0.4543,-0.505 -0.6898,-0.673 h -0.1683 l -63.8374,-66.646 z m 101.3733,9.001 12.6494,20.578 c -15.4088,9.607 -25.3122,25.995 -26.67,44.116 h -10.4924 z m -136.6091,25.44 c 2.8216,0 5.6348,0.337 8.4009,0.841 l -14.3235,40.6 c -1.2451,3.534 0.6057,7.42 4.1408,8.649 3.535,1.346 7.4149,-0.673 8.6583,-4.139 l 14.268,-40.449 c 13.775,7.673 22.3223,22.193 22.3341,37.958 0,24.01 -19.467,43.477 -43.4786,43.494 -24.0133,0 -43.4786,-19.484 -43.4786,-43.494 0,-24.01 19.4653,-43.477 43.4786,-43.477 z m 179.4787,0 c 24.0115,0 43.4786,19.467 43.4786,43.477 0,24.01 -19.4671,43.46 -43.4786,43.46 -20.3891,0 -38.0272,-14.2 -42.4187,-34.105 h 47.9845 c 1.7212,0 3.7033,0.505 6.7554,-2.137 1.5311,-1.346 2.539,-3.853 2.5659,-5.586 0,-1.733 -0.4038,-2.81 -0.7571,-3.634 -1.3966,-3.298 -2.8974,-4.778 -4.7381,-7.807 l -19.9331,-32.44 c 3.4442,-0.841 6.9826,-1.346 10.5361,-1.346 z m -23.1132,6.697 20.0896,32.658 h -40.238 c 1.3124,-13.393 8.7492,-25.44 20.1484,-32.591 z"
         inkscape:transform-center-x="-234.2557"
         inkscape:transform-center-y="-533.31568"
         sodipodi:nodetypes="ccscccccccccccccccccccccccccccccccccccscccccccccccccccccccccccccccccccccccccccccccc" />
      <path
         id="rect29600-7-1-29"
         style="fill:#000000;stroke-width:12.523;stroke-linejoin:bevel;stroke-opacity:0.738462;paint-order:fill markers stroke"
         d="m -4359.1738,18857.653 v 158.143 h 116.5077 v -29.125 h -84.5091 v -38.211 h 56.589 v -26.668 h -56.589 v -35.014 h 84.5091 v -29.125 z"
         sodipodi:nodetypes="ccccccccccccc" />
      <path
         style="fill:#beff18;stroke:#be0018;stroke-width:60;paint-order:fill markers stroke"
         d="m -4499.9384,18854.585 410,410"
         id="path25886-6-9-66"
         sodipodi:nodetypes="cc" />
    </g>
  </g>
</svg>
