<?xml version="1.0" encoding="UTF-8" standalone="no"?>
<!-- Created with Inkscape (http://www.inkscape.org/) -->

<svg
   width="710mm"
   height="710mm"
   viewBox="0 0 710 710"
   version="1.1"
   id="svg20611"
   inkscape:version="1.2.1 (9c6d41e410, 2022-07-14)"
   sodipodi:docname="Mexico road sign SR-32A.svg"
   xmlns:inkscape="http://www.inkscape.org/namespaces/inkscape"
   xmlns:sodipodi="http://sodipodi.sourceforge.net/DTD/sodipodi-0.dtd"
   xmlns="http://www.w3.org/2000/svg"
   xmlns:svg="http://www.w3.org/2000/svg">
  <sodipodi:namedview
     id="namedview20613"
     pagecolor="#ffffff"
     bordercolor="#000000"
     borderopacity="0.25"
     inkscape:showpageshadow="2"
     inkscape:pageopacity="0.0"
     inkscape:pagecheckerboard="0"
     inkscape:deskcolor="#d1d1d1"
     inkscape:document-units="mm"
     showgrid="false"
     inkscape:zoom="0.76257015"
     inkscape:cx="1228.0837"
     inkscape:cy="1216.2816"
     inkscape:window-width="1920"
     inkscape:window-height="991"
     inkscape:window-x="-9"
     inkscape:window-y="-9"
     inkscape:window-maximized="1"
     inkscape:current-layer="layer1" />
  <defs
     id="defs20608" />
  <g
     inkscape:label="Livello 1"
     inkscape:groupmode="layer"
     id="layer1"
     transform="translate(219.68458,239.80798)">
    <g
       id="g28388"
       transform="translate(-57.535287,-22304.974)">
      <rect
         style="fill:#000000;stroke-width:3.68415;stroke-opacity:0.578462;paint-order:fill markers stroke"
         id="rect20798-0-9-0-0"
         width="710"
         height="710"
         x="-162.14929"
         y="22065.166"
         ry="40"
         rx="40" />
      <rect
         style="fill:#ffffff;stroke-width:3.58037;stroke-opacity:0.578462;paint-order:fill markers stroke"
         id="rect20798-4-8-3-45"
         width="690"
         height="690"
         x="-152.1488"
         y="22075.166"
         ry="30"
         rx="30" />
      <g
         id="g25102-4-2-3-5"
         transform="rotate(90,-9428.4216,12636.745)">
        <circle
           style="fill:#be0018;stroke-width:6.548;stroke-opacity:0.578462;paint-order:fill markers stroke"
           id="path23624-0-6-2-1"
           cx="3015.4722"
           cy="-355"
           r="310"
           transform="rotate(90)" />
        <circle
           style="fill:#ffffff;stroke-width:5.28036;stroke-opacity:0.578462;paint-order:fill markers stroke"
           id="path23624-1-4-2-72"
           cx="355.00046"
           cy="3015.4727"
           r="250" />
      </g>
      <path
         id="path7791-1-1-1-6-1-1-9-4"
         style="color:#000000;fill:#000000;stroke-width:11.3169;stroke-linecap:round;stroke-linejoin:bevel;paint-order:fill markers stroke"
         d="m 171.02513,22227.622 h -12.5745 c -6.2594,0 -11.7294,1.514 -15.8709,4.644 -4.1433,3.129 -6.6357,7.386 -8.4848,11.727 l -0.1682,0.505 -10.873,30.824 c -0.5384,0.841 -0.8732,1.817 -0.991,2.827 l -6.607,18.693 c -4.2407,-1.01 -8.5822,-1.514 -12.9369,-1.514 -31.443198,0 -56.935998,25.49 -56.937598,56.92 0,31.447 25.491,56.937 56.937598,56.937 31.4432,0 56.9324,-25.49 56.9309,-56.937 0,-21.486 -12.1042,-41.104 -31.2686,-50.779 l 3.4613,-9.826 58.8859,61.48 c 4.0221,4.408 6.2828,6.276 10.1289,7.336 3.8477,1.009 8.2127,1.178 9.6014,1.178 h 15.2631 c 4.5598,27.459 28.311,47.582 56.1483,47.616 31.4449,0 56.9326,-25.491 56.9326,-56.938 0,-31.463 -25.4895,-56.954 -56.9326,-56.954 -6.0662,0 -12.0954,1.01 -17.8545,2.911 l -16.1229,-26.214 v 0 c -1.0752,-1.699 -1.9331,-3.113 -2.7661,-4.324 l 5.6967,-15.042 h 13.1404 c 3.7335,0 6.7597,-3.012 6.7597,-6.747 0,-3.752 -3.0196,-6.781 -6.7597,-6.814 h -45.6685 c -3.7401,0 -6.7699,3.062 -6.7598,6.814 0,3.735 3.0247,6.747 6.7598,6.747 h 18.0411 l -3.1625,8.362 h -1.4773 -89.0258 l 4.125,-11.677 c 1.3426,-3.129 2.6653,-5.014 4.1281,-6.107 1.4941,-1.178 3.4849,-1.952 7.7138,-1.952 h 12.5792 c 3.7403,0 6.7801,-3.029 6.7835,-6.764 0,-3.735 -3.0416,-6.78 -6.7835,-6.78 z m -33.3159,46.792 h 90.124 l -26.6029,70.195 c -0.2339,0 -0.4543,-0.336 -0.6882,-0.673 h -0.1682 l -63.721,-66.511 z m 101.1884,8.968 12.6263,20.543 c -15.3807,9.591 -25.2661,25.945 -26.6214,44.033 h -10.4732 z m -136.36,25.389 c 2.8164,0 5.6246,0.505 8.3857,0.841 l -14.297498,40.516 c -1.2434,3.55 0.6041,7.403 4.133198,8.648 3.5286,1.346 7.4014,-0.673 8.6426,-4.139 l 14.242,-40.364 c 13.7498,7.656 22.2816,22.142 22.2934,37.891 0,23.959 -19.4315,43.393 -43.3994,43.393 -23.969698,0 -43.399198,-19.434 -43.399198,-43.393 0,-23.976 19.4295,-43.41 43.399198,-43.41 z m 179.1514,0 c 23.9677,0 43.3992,19.434 43.3992,43.41 0,23.959 -19.4315,43.376 -43.3992,43.376 -20.3518,0 -37.9578,-14.167 -42.3414,-34.038 h 47.897 c 1.7181,0 3.6966,0.505 6.743,-2.137 1.5277,-1.346 2.5344,-3.836 2.5613,-5.569 0,-1.733 -0.4038,-2.793 -0.7554,-3.634 -1.3932,-3.298 -2.8922,-4.762 -4.7293,-7.791 l -19.8968,-32.389 c 3.4378,-0.841 6.9698,-1.346 10.5168,-1.346 z m -23.0712,6.714 20.0531,32.59 h -40.1647 c 1.3107,-13.376 8.7333,-25.406 20.1116,-32.54 z"
         inkscape:transform-center-x="-233.82803"
         inkscape:transform-center-y="-532.26029"
         sodipodi:nodetypes="ccscccccccccccccccccccccccccccccccccccscccccccccccccccccccccccccccccccccccccccccccc" />
      <g
         id="g51197-6-0-9-1-2-7"
         transform="matrix(15.566291,0,0,15.566291,51137.427,-255548.66)">
        <path
           id="path3303-9-1-2-6-6-9-1-9"
           style="fill:#000000;stroke-width:2.24913;stroke-linejoin:bevel;paint-order:fill markers stroke"
           d="m -3273.5222,17858.071 c -0.4291,0 -0.7915,0.08 -1.0521,0.312 -0.2599,0.233 -0.371,0.497 -0.571,0.843 l -1.7064,2.854 c -0.5854,-0.285 -1.229,-0.432 -1.881,-0.429 -0.8658,0 -1.7098,0.273 -2.419,0.769 l 0.3266,0.467 c 0.619,-0.434 1.357,-0.667 2.1131,-0.668 0.5607,0 1.092,0.126 1.5678,0.35 l -0.3012,0.504 a 3.0996319,3.0996319 0 0 0 -1.2553,-0.268 3.0996319,3.0996319 0 0 0 -3.0995,3.099 3.0996319,3.0996319 0 0 0 3.0995,3.1 3.0996319,3.0996319 0 0 0 3.0996,-3.1 3.0996319,3.0996319 0 0 0 -1.0863,-2.353 l 0.3018,-0.504 c 0.8289,0.675 1.3586,1.704 1.3586,2.857 v 0.228 h 0.569 v -0.228 c -10e-5,-1.322 -0.6141,-2.553 -1.6335,-3.35 l 0.5235,-0.875 c 0.288,0.08 0.4703,0.146 0.5917,0.43 l 0.6702,2.32 c 0.4573,1.418 0.8785,2.038 1.9337,2.038 h 1.4857 0.1613 0.7384 a 3.099632,3.099632 0 0 0 3.0474,2.537 3.099632,3.099632 0 0 0 3.0995,-3.1 3.099632,3.099632 0 0 0 -3.0995,-3.099 3.099632,3.099632 0 0 0 -1.6475,0.478 l -0.3782,-0.455 c 0.5853,-0.386 1.2835,-0.609 2.0257,-0.609 0.9509,0 1.8651,0.368 2.5512,1.026 0.2929,-0.04 0.4494,-0.565 0.1525,-0.83 0,0 -1.5576,-1.607 -3.8799,-1.607 -1.4525,0 -2.4196,0.756 -2.8944,0.756 h -0.2516 c -0.3073,-0.634 -0.8886,-1.137 -1.6506,-1.324 -0.4828,-0.06 -0.977,-0.09 -1.4139,0.03 v 0 c -0.1663,0.06 -0.3316,0.131 -0.494,0.229 l -0.033,-0.01 0.4806,-0.804 c 0.2128,-0.368 0.3335,-0.571 0.3943,-0.625 0.061,-0.06 0.1098,-0.08 0.4553,-0.08 h 1.2743 a 0.44771262,0.44771262 0 0 0 0.4476,-0.448 0.44771262,0.44771262 0 0 0 -0.4476,-0.448 z m 3.8747,5.337 0.3783,0.455 a 3.099632,3.099632 0 0 0 -0.7498,1.709 h -0.584 l 0.056,-0.41 c 0.1389,-0.675 0.4579,-1.275 0.8997,-1.754 z m 2.7079,0.177 a 2.3190496,2.3189839 0 0 1 2.3192,2.319 2.3190496,2.3189839 0 0 1 -2.3192,2.319 2.3190496,2.3189839 0 0 1 -2.2469,-1.756 h 1.3766 a 1.0387995,1.0389508 0 0 0 0.8708,0.476 1.0387995,1.0389508 0 0 0 1.0392,-1.04 1.0387995,1.0389508 0 0 0 -1.0392,-1.038 1.0387995,1.0389508 0 0 0 -0.2956,0.04 l -0.848,-1.02 a 2.3190496,2.3189839 0 0 1 1.1431,-0.304 z m -11.7611,0 a 2.3190496,2.318984 0 0 1 0.8506,0.164 l -0.6759,1.13 a 1.0387994,1.0389508 0 0 0 -0.1742,-0.01 1.0387994,1.0389508 0 0 0 -1.0386,1.039 1.0387994,1.0389508 0 0 0 1.0386,1.039 1.0387994,1.0389508 0 0 0 1.0393,-1.039 1.0387994,1.0389508 0 0 0 -0.1313,-0.505 l 0.6971,-1.165 a 2.3190496,2.318984 0 0 1 0.7137,1.67 2.3190496,2.318984 0 0 1 -2.3193,2.32 2.3190496,2.318984 0 0 1 -2.3192,-2.32 2.3190496,2.318984 0 0 1 2.3192,-2.318 z m 9.939,0.887 0.8624,1.037 a 1.0387995,1.0389508 0 0 0 -0.023,0.06 h -1.3095 a 2.3190496,2.3189839 0 0 1 0.4703,-1.099 z" />
        <path
           style="fill:#000000;stroke-width:1.496;stroke-linejoin:bevel;stroke-opacity:0.615385;paint-order:fill markers stroke"
           d="m -3277.6252,17859.418 v 2.144 c 0,0 1.1113,0.04 1.1113,-1.072 0,-1.109 -1.1113,-1.072 -1.1113,-1.072 z"
           id="path51161-1-3-7-2-5-1"
           sodipodi:nodetypes="cczc" />
      </g>
      <path
         style="fill:#beff18;stroke:#be0018;stroke-width:60;paint-order:fill markers stroke"
         d="m -12.14928,22215.166 410,410"
         id="path25886-3-6-0"
         sodipodi:nodetypes="cc" />
    </g>
  </g>
</svg>
