<?xml version="1.0" encoding="UTF-8" standalone="no"?>
<!-- Created with Inkscape (http://www.inkscape.org/) -->

<svg
   width="710mm"
   height="710mm"
   viewBox="0 0 710 710"
   version="1.1"
   id="svg23380"
   inkscape:version="1.2.1 (9c6d41e410, 2022-07-14)"
   sodipodi:docname="Mexico road sign SR-32A1.svg"
   xmlns:inkscape="http://www.inkscape.org/namespaces/inkscape"
   xmlns:sodipodi="http://sodipodi.sourceforge.net/DTD/sodipodi-0.dtd"
   xmlns="http://www.w3.org/2000/svg"
   xmlns:svg="http://www.w3.org/2000/svg">
  <sodipodi:namedview
     id="namedview23382"
     pagecolor="#ffffff"
     bordercolor="#000000"
     borderopacity="0.25"
     inkscape:showpageshadow="2"
     inkscape:pageopacity="0.0"
     inkscape:pagecheckerboard="0"
     inkscape:deskcolor="#d1d1d1"
     inkscape:document-units="mm"
     showgrid="false"
     inkscape:zoom="0.76257015"
     inkscape:cx="1409.0507"
     inkscape:cy="1056.2963"
     inkscape:window-width="1920"
     inkscape:window-height="991"
     inkscape:window-x="-9"
     inkscape:window-y="-9"
     inkscape:window-maximized="1"
     inkscape:current-layer="layer1" />
  <defs
     id="defs23377" />
  <g
     inkscape:label="Livello 1"
     inkscape:groupmode="layer"
     id="layer1"
     transform="translate(267.56543,282.13798)">
    <g
       id="g28402"
       transform="translate(-947.31512,-22347.304)">
      <rect
         style="fill:#000000;stroke-width:3.68415;stroke-opacity:0.578462;paint-order:fill markers stroke"
         id="rect20798-0-9-0-9"
         width="710"
         height="710"
         x="679.74969"
         y="22065.166"
         ry="40"
         rx="40" />
      <rect
         style="fill:#ffffff;stroke-width:3.58037;stroke-opacity:0.578462;paint-order:fill markers stroke"
         id="rect20798-4-8-3-46"
         width="690"
         height="690"
         x="689.75018"
         y="22075.166"
         ry="30"
         rx="30" />
      <g
         id="g25102-4-2-3-3"
         transform="rotate(90,-9007.4721,13057.694)">
        <circle
           style="fill:#be0018;stroke-width:6.548;stroke-opacity:0.578462;paint-order:fill markers stroke"
           id="path23624-0-6-2-03"
           cx="3015.4722"
           cy="-355"
           r="310"
           transform="rotate(90)" />
        <circle
           style="fill:#ffffff;stroke-width:5.28036;stroke-opacity:0.578462;paint-order:fill markers stroke"
           id="path23624-1-4-2-3"
           cx="355.00046"
           cy="3015.4727"
           r="250" />
      </g>
      <path
         id="rect8915-1"
         style="fill:#000000;stroke-width:46.7189;stroke-linejoin:round;stroke-opacity:0.615385;paint-order:fill markers stroke"
         d="m 861.93318,22392.603 c -6.98558,0 -12.61605,5.636 -12.61605,12.619 v 88.266 h 236.06347 v -73.948 h 22.5543 v -11.29 h -22.5543 v -3.028 c 0,-6.983 -5.6219,-12.619 -12.6075,-12.619 z" />
      <path
         style="fill:#000000;stroke-width:47.3971;stroke-linejoin:round;stroke-opacity:0.615385;paint-order:fill markers stroke"
         d="m 1179.1983,22338.795 19.0354,186.443 c 0,0 0.9523,12.316 -10.3372,12.922 -11.2905,0.673 -14.0608,-12.434 -14.0608,-12.434 l -11.5579,-91.396 c -0.5284,-4.711 -3.5342,-5.906 -5.4978,-1.969 l -31.657,61.211 -21.8472,-16.994 40.6109,-67.369 -0.5569,-16.068 -25.8299,28.149 c 0,0 -6.1344,6.31 -12.9455,-0.505 -6.8111,-6.797 1.8967,-14.806 1.8967,-14.806 l 33.7298,-35.132 -0.1009,-29.579 c 0,-5.552 5.7519,-15.378 18.0632,-16.051 12.3116,-0.673 19.7248,5.132 21.0551,13.578 z"
         id="path9233-9"
         sodipodi:nodetypes="cczcccccccczccczc" />
      <path
         style="fill:#beff18;stroke:#be0018;stroke-width:60;paint-order:fill markers stroke"
         d="m 829.74971,22215.166 409.99999,410"
         id="path25886-3-6-3"
         sodipodi:nodetypes="cc" />
      <ellipse
         style="fill:#ffffff;stroke-width:56.9317;stroke-linejoin:round;stroke-opacity:0.615385;paint-order:fill markers stroke"
         id="path9025-7-8"
         cx="964.49243"
         cy="22493.887"
         rx="44.126049"
         ry="44.124718" />
      <circle
         style="fill:#000000;stroke-width:51.043;stroke-linejoin:round;stroke-opacity:0.615385;paint-order:fill markers stroke"
         id="path9025-76"
         cx="964.47186"
         cy="22493.887"
         r="39.561287" />
      <ellipse
         style="fill:#ffffff;stroke-width:26.9207;stroke-linejoin:round;stroke-opacity:0.615385;paint-order:fill markers stroke"
         id="path9025-7-0-8"
         cx="964.47394"
         cy="22493.887"
         rx="20.863546"
         ry="20.866785" />
      <circle
         style="fill:#000000;stroke-width:47.3971;stroke-linejoin:round;stroke-opacity:0.615385;paint-order:fill markers stroke"
         id="path9177-5"
         cx="1149.6709"
         cy="22299.967"
         r="21.736969" />
    </g>
  </g>
</svg>
