<?xml version="1.0" encoding="UTF-8" standalone="no"?>
<!-- Created with Inkscape (http://www.inkscape.org/) -->

<svg
   width="710mm"
   height="710mm"
   viewBox="0 0 710 710"
   version="1.1"
   id="svg39621"
   inkscape:version="1.2.1 (9c6d41e410, 2022-07-14)"
   sodipodi:docname="Mexico road sign SR-32A5 (2023).svg"
   xmlns:inkscape="http://www.inkscape.org/namespaces/inkscape"
   xmlns:sodipodi="http://sodipodi.sourceforge.net/DTD/sodipodi-0.dtd"
   xmlns="http://www.w3.org/2000/svg"
   xmlns:svg="http://www.w3.org/2000/svg">
  <sodipodi:namedview
     id="namedview39623"
     pagecolor="#ffffff"
     bordercolor="#000000"
     borderopacity="0.25"
     inkscape:showpageshadow="2"
     inkscape:pageopacity="0.0"
     inkscape:pagecheckerboard="0"
     inkscape:deskcolor="#d1d1d1"
     inkscape:document-units="mm"
     showgrid="false"
     inkscape:zoom="0.19064254"
     inkscape:cx="1403.1496"
     inkscape:cy="1138.2559"
     inkscape:window-width="1920"
     inkscape:window-height="991"
     inkscape:window-x="-9"
     inkscape:window-y="-9"
     inkscape:window-maximized="1"
     inkscape:current-layer="layer1" />
  <defs
     id="defs39618" />
  <g
     inkscape:label="Livello 1"
     inkscape:groupmode="layer"
     id="layer1"
     transform="translate(264.78967,260.62666)">
    <g
       id="g27471"
       transform="translate(-2221.5708,-13620.571)">
      <rect
         style="fill:#000000;stroke-width:3.68415;stroke-opacity:0.578462;paint-order:fill markers stroke"
         id="rect20798-01-2"
         width="710"
         height="710"
         x="1956.7811"
         y="13359.944"
         ry="40"
         rx="40" />
      <rect
         style="fill:#ffffff;stroke-width:3.58037;stroke-opacity:0.578462;paint-order:fill markers stroke"
         id="rect20798-4-1-0"
         width="690"
         height="690"
         x="1966.7814"
         y="13369.944"
         ry="30"
         rx="30" />
      <g
         id="g25102-7-3"
         transform="rotate(90,-4016.3456,9343.5988)">
        <circle
           style="fill:#be0018;stroke-width:6.548;stroke-opacity:0.578462;paint-order:fill markers stroke"
           id="path23624-76-5"
           cx="3015.4722"
           cy="-355"
           r="310"
           transform="rotate(90)" />
        <circle
           style="fill:#ffffff;stroke-width:5.28036;stroke-opacity:0.578462;paint-order:fill markers stroke"
           id="path23624-1-8-6"
           cx="355.00046"
           cy="3015.4727"
           r="250" />
      </g>
      <g
         id="g25723-2"
         transform="matrix(16.825277,0,0,16.825277,-47757.652,-156227.47)">
        <ellipse
           style="fill:#000000;stroke-width:0.566424;stroke-linejoin:bevel;stroke-opacity:0.738462;paint-order:fill markers stroke"
           id="path22193-8-8"
           cx="2966.2378"
           cy="10103.941"
           rx="1.5145167"
           ry="1.5145" />
        <circle
           style="fill:#000000;stroke-width:0.566421;stroke-linejoin:bevel;stroke-opacity:0.738462;paint-order:fill markers stroke"
           id="path22193-8-7-8"
           cx="2983.0059"
           cy="10103.941"
           r="1.5145" />
        <path
           id="rect23817-5"
           style="fill:#000000;stroke-width:1.47832;stroke-linejoin:bevel;stroke-opacity:0.738462;paint-order:fill markers stroke"
           d="m 2971.5773,10094.847 v 9.153 h 9.2035 a 2.2281013,2.2281013 0 0 1 0,-0.07 2.2281013,2.2281013 0 0 1 2.2283,-2.229 2.2281013,2.2281013 0 0 1 2.2278,2.229 2.2281013,2.2281013 0 0 1 0,0.07 h 1.1689 v -1.32 h 0.8305 v -7.833 z" />
        <path
           id="rect23817-4-6"
           style="fill:#000000;stroke-width:0.878148;stroke-linejoin:bevel;stroke-opacity:0.738462;paint-order:fill markers stroke"
           d="m 2967.6488,10097.57 -1.0475,2.699 -2.7548,0.419 c -0.427,0.1 -0.3783,0.22 -0.3783,0.438 v 2.187 c 0,0.256 0.2136,0.416 0.5281,0.406 h 0.026 a 2.2281013,2.2281013 0 0 1 2.2158,-2.007 2.2281013,2.2281013 0 0 1 2.2278,2.229 2.2281013,2.2281013 0 0 1 0,0.06 h 2.8665 v -6.431 z" />
        <path
           style="fill:#ffffff;stroke-width:1.496;stroke-linejoin:bevel;stroke-opacity:0.738462;paint-order:fill markers stroke"
           d="m 2968.4086,10098.577 -0.6813,1.545 c -0.1773,0.331 0.091,0.755 0.4383,0.633 l 2.062,-0.594 v -1.114 c 0,-0.282 -0.1352,-0.47 -0.399,-0.47 z"
           id="path23906-2"
           sodipodi:nodetypes="ccccccc" />
      </g>
      <path
         style="fill:#beff18;stroke:#be0018;stroke-width:60;paint-order:fill markers stroke"
         d="m 2106.7811,13509.944 410,410"
         id="path25886-0-1"
         sodipodi:nodetypes="cc" />
    </g>
  </g>
</svg>
