<?xml version="1.0" encoding="UTF-8" standalone="no"?>
<!-- Created with Inkscape (http://www.inkscape.org/) -->

<svg
   width="710mm"
   height="710mm"
   viewBox="0 0 710 710"
   version="1.1"
   id="svg113247"
   inkscape:version="1.2.1 (9c6d41e410, 2022-07-14)"
   sodipodi:docname="Mexico road sign SR-32A6 (2023).svg"
   xmlns:inkscape="http://www.inkscape.org/namespaces/inkscape"
   xmlns:sodipodi="http://sodipodi.sourceforge.net/DTD/sodipodi-0.dtd"
   xmlns="http://www.w3.org/2000/svg"
   xmlns:svg="http://www.w3.org/2000/svg">
  <sodipodi:namedview
     id="namedview113249"
     pagecolor="#ffffff"
     bordercolor="#000000"
     borderopacity="0.25"
     inkscape:showpageshadow="2"
     inkscape:pageopacity="0.0"
     inkscape:pagecheckerboard="0"
     inkscape:deskcolor="#d1d1d1"
     inkscape:document-units="mm"
     showgrid="false"
     inkscape:zoom="0.76257015"
     inkscape:cx="1500.8455"
     inkscape:cy="1312.0104"
     inkscape:window-width="1920"
     inkscape:window-height="991"
     inkscape:window-x="-9"
     inkscape:window-y="-9"
     inkscape:window-maximized="1"
     inkscape:current-layer="layer1" />
  <defs
     id="defs113244" />
  <g
     inkscape:label="Livello 1"
     inkscape:groupmode="layer"
     id="layer1"
     transform="translate(291.85281,214.48)">
    <g
       id="g51615"
       transform="translate(4416.551,-17920.48)">
      <rect
         style="fill:#000000;stroke-width:3.68415;stroke-opacity:0.578462;paint-order:fill markers stroke"
         id="rect20798-0-9"
         width="710"
         height="710"
         x="-4708.4038"
         y="17706"
         ry="40"
         rx="40" />
      <rect
         style="fill:#ffffff;stroke-width:3.58037;stroke-opacity:0.578462;paint-order:fill markers stroke"
         id="rect20798-4-8"
         width="690"
         height="690"
         x="-4698.4033"
         y="17716"
         ry="30"
         rx="30" />
      <g
         id="g25102-4-2"
         transform="rotate(90,-9521.9657,8184.0341)">
        <circle
           style="fill:#be0018;stroke-width:6.548;stroke-opacity:0.578462;paint-order:fill markers stroke"
           id="path23624-0-6"
           cx="3015.4722"
           cy="-355"
           r="310"
           transform="rotate(90)" />
        <circle
           style="fill:#ffffff;stroke-width:5.28036;stroke-opacity:0.578462;paint-order:fill markers stroke"
           id="path23624-1-4"
           cx="355.00046"
           cy="3015.4727"
           r="250" />
      </g>
      <g
         id="g51197-6-0-9"
         transform="matrix(23.001431,0,0,23.001431,70932.278,-392841.81)">
        <path
           id="path3303-9-1-2-6-6"
           style="fill:#000000;stroke-width:2.24913;stroke-linejoin:bevel;paint-order:fill markers stroke"
           d="m -3273.5222,17858.071 c -0.4291,0 -0.7915,0.08 -1.0521,0.312 -0.2599,0.233 -0.371,0.497 -0.571,0.843 l -1.7064,2.854 c -0.5854,-0.285 -1.229,-0.432 -1.881,-0.429 -0.8658,0 -1.7098,0.273 -2.419,0.769 l 0.3266,0.467 c 0.619,-0.434 1.357,-0.667 2.1131,-0.668 0.5607,0 1.092,0.126 1.5678,0.35 l -0.3012,0.504 a 3.0996319,3.0996319 0 0 0 -1.2553,-0.268 3.0996319,3.0996319 0 0 0 -3.0995,3.099 3.0996319,3.0996319 0 0 0 3.0995,3.1 3.0996319,3.0996319 0 0 0 3.0996,-3.1 3.0996319,3.0996319 0 0 0 -1.0863,-2.353 l 0.3018,-0.504 c 0.8289,0.675 1.3586,1.704 1.3586,2.857 v 0.228 h 0.569 v -0.228 c -10e-5,-1.322 -0.6141,-2.553 -1.6335,-3.35 l 0.5235,-0.875 c 0.288,0.08 0.4703,0.146 0.5917,0.43 l 0.6702,2.32 c 0.4573,1.418 0.8785,2.038 1.9337,2.038 h 1.4857 0.1613 0.7384 a 3.099632,3.099632 0 0 0 3.0474,2.537 3.099632,3.099632 0 0 0 3.0995,-3.1 3.099632,3.099632 0 0 0 -3.0995,-3.099 3.099632,3.099632 0 0 0 -1.6475,0.478 l -0.3782,-0.455 c 0.5853,-0.386 1.2835,-0.609 2.0257,-0.609 0.9509,0 1.8651,0.368 2.5512,1.026 0.2929,-0.04 0.4494,-0.565 0.1525,-0.83 0,0 -1.5576,-1.607 -3.8799,-1.607 -1.4525,0 -2.4196,0.756 -2.8944,0.756 h -0.2516 c -0.3073,-0.634 -0.8886,-1.137 -1.6506,-1.324 -0.4828,-0.06 -0.977,-0.09 -1.4139,0.03 v 0 c -0.1663,0.06 -0.3316,0.131 -0.494,0.229 l -0.033,-0.01 0.4806,-0.804 c 0.2128,-0.368 0.3335,-0.571 0.3943,-0.625 0.061,-0.06 0.1098,-0.08 0.4553,-0.08 h 1.2743 a 0.44771262,0.44771262 0 0 0 0.4476,-0.448 0.44771262,0.44771262 0 0 0 -0.4476,-0.448 z m 3.8747,5.337 0.3783,0.455 a 3.099632,3.099632 0 0 0 -0.7498,1.709 h -0.584 l 0.056,-0.41 c 0.1389,-0.675 0.4579,-1.275 0.8997,-1.754 z m 2.7079,0.177 a 2.3190496,2.3189839 0 0 1 2.3192,2.319 2.3190496,2.3189839 0 0 1 -2.3192,2.319 2.3190496,2.3189839 0 0 1 -2.2469,-1.756 h 1.3766 a 1.0387995,1.0389508 0 0 0 0.8708,0.476 1.0387995,1.0389508 0 0 0 1.0392,-1.04 1.0387995,1.0389508 0 0 0 -1.0392,-1.038 1.0387995,1.0389508 0 0 0 -0.2956,0.04 l -0.848,-1.02 a 2.3190496,2.3189839 0 0 1 1.1431,-0.304 z m -11.7611,0 a 2.3190496,2.318984 0 0 1 0.8506,0.164 l -0.6759,1.13 a 1.0387994,1.0389508 0 0 0 -0.1742,-0.01 1.0387994,1.0389508 0 0 0 -1.0386,1.039 1.0387994,1.0389508 0 0 0 1.0386,1.039 1.0387994,1.0389508 0 0 0 1.0393,-1.039 1.0387994,1.0389508 0 0 0 -0.1313,-0.505 l 0.6971,-1.165 a 2.3190496,2.318984 0 0 1 0.7137,1.67 2.3190496,2.318984 0 0 1 -2.3193,2.32 2.3190496,2.318984 0 0 1 -2.3192,-2.32 2.3190496,2.318984 0 0 1 2.3192,-2.318 z m 9.939,0.887 0.8624,1.037 a 1.0387995,1.0389508 0 0 0 -0.023,0.06 h -1.3095 a 2.3190496,2.3189839 0 0 1 0.4703,-1.099 z" />
        <path
           style="fill:#000000;stroke-width:1.496;stroke-linejoin:bevel;stroke-opacity:0.615385;paint-order:fill markers stroke"
           d="m -3277.6252,17859.418 v 2.144 c 0,0 1.1113,0.04 1.1113,-1.072 0,-1.109 -1.1113,-1.072 -1.1113,-1.072 z"
           id="path51161-1-3-7"
           sodipodi:nodetypes="cczc" />
      </g>
      <path
         style="fill:#beff18;stroke:#be0018;stroke-width:60;paint-order:fill markers stroke"
         d="m -4558.4038,17856 410,410"
         id="path25886-3"
         sodipodi:nodetypes="cc" />
    </g>
  </g>
</svg>
