<?xml version="1.0" encoding="UTF-8" standalone="no"?>
<!-- Created with Inkscape (http://www.inkscape.org/) -->

<svg
   width="636.57935mm"
   height="564.69678mm"
   viewBox="0 0 636.57935 564.69678"
   version="1.1"
   id="svg36800"
   inkscape:version="1.2.1 (9c6d41e410, 2022-07-14)"
   sodipodi:docname="Mexico road sign SR-07C1 (2023).svg"
   xmlns:inkscape="http://www.inkscape.org/namespaces/inkscape"
   xmlns:sodipodi="http://sodipodi.sourceforge.net/DTD/sodipodi-0.dtd"
   xmlns="http://www.w3.org/2000/svg"
   xmlns:svg="http://www.w3.org/2000/svg">
  <sodipodi:namedview
     id="namedview36802"
     pagecolor="#ffffff"
     bordercolor="#000000"
     borderopacity="0.25"
     inkscape:showpageshadow="2"
     inkscape:pageopacity="0.0"
     inkscape:pagecheckerboard="0"
     inkscape:deskcolor="#d1d1d1"
     inkscape:document-units="mm"
     showgrid="false"
     inkscape:zoom="0.76257015"
     inkscape:cx="1291.6845"
     inkscape:cy="828.12054"
     inkscape:window-width="1920"
     inkscape:window-height="991"
     inkscape:window-x="-9"
     inkscape:window-y="-9"
     inkscape:window-maximized="1"
     inkscape:current-layer="layer1" />
  <defs
     id="defs36797" />
  <g
     inkscape:label="Livello 1"
     inkscape:groupmode="layer"
     id="layer1"
     transform="translate(236.75348,197.34258)">
    <g
       id="g10821"
       transform="translate(6985.3271,-6918.8684)">
      <g
         id="g21381-26"
         transform="translate(-5095.9672,-119.17058)">
        <path
           id="path18719-75"
           style="fill:#007150;stroke-width:1.37891;stroke-opacity:0.683077;paint-order:fill markers stroke"
           d="m -1807.824,6840.6964 v 5e-4 c -17.8253,0 -34.3014,9.4922 -43.246,24.9107 l -17.3204,29.9986 -233.7562,404.8828 -17.3199,29.9992 c -8.8805,15.4555 -8.8611,34.4699 0.05,49.9076 h -5e-4 c 8.9135,15.4366 25.3711,24.9605 43.1963,24.9974 h 34.6398 467.5141 34.6397 c 17.8252,-0.037 34.2828,-9.5608 43.1963,-24.9974 h -5e-4 c 8.9116,-15.4377 8.931,-34.4521 0.05,-49.9076 l -17.3203,-29.9992 -233.7543,-404.8833 -17.3198,-29.9987 c -8.9445,-15.4181 -25.4214,-24.9106 -43.2465,-24.9106 z"
           sodipodi:nodetypes="csccccssccccssccccsc" />
        <path
           style="fill:#ffffff;stroke-width:3;stroke-opacity:0.683077;paint-order:fill markers stroke"
           d="m -2041.4747,7335.393 h 467.302 l -233.652,-404.695 z"
           id="path20651-0"
           sodipodi:nodetypes="cccc" />
      </g>
      <path
         id="path7791-1-1-1-6-1-1-5-5-2-2-9-8"
         style="color:#000000;fill:#000000;stroke-width:9.8018;stroke-linecap:round;stroke-linejoin:bevel;paint-order:fill markers stroke"
         d="m -6930.7146,7039.4868 c -5.4207,0 -10.1586,1.4816 -13.7464,4.0033 -3.5878,2.6912 -5.749,6.4226 -7.3497,10.1769 l -16.2482,45.6775 c -3.6733,-0.9775 -7.4352,-1.4815 -11.2063,-1.4815 -27.233,0 -49.3127,22.0858 -49.3158,49.2867 0,27.2468 22.0782,49.3341 49.3158,49.3341 27.233,0 49.3097,-22.0873 49.3097,-49.3341 0,-18.6034 -10.4839,-35.5999 -27.0834,-43.9761 l 2.9982,-8.4967 51.002,53.2625 c 3.4855,3.8047 5.4405,5.4359 8.7732,6.3004 3.3328,0.9775 7.1115,1.2372 8.3151,1.2372 h 13.2194 c 3.9497,23.7888 24.5188,41.2054 48.6315,41.2298 27.2345,0 49.3096,-22.0858 49.3096,-49.3096 0,-27.2239 -22.0751,-49.3341 -49.3096,-49.3341 -5.2542,0 -10.4778,0.7484 -15.4662,2.2223 l -13.9617,-22.7273 v 0 c -0.9317,-1.4815 -1.6801,-2.6943 -2.398,-3.7558 l 4.935,-13.0178 h 11.3804 c 3.2334,0 5.8559,-2.6683 5.8559,-5.8559 0,-3.2365 -2.6148,-5.8789 -5.8559,-5.9049 h -39.5543 c -3.2381,0 -5.8621,2.6943 -5.8545,5.9049 0,3.2349 2.621,5.8559 5.8545,5.8559 h 15.6265 l -2.7401,7.2382 h -1.283 -77.1078 l 3.5756,-10.1295 c 1.1608,-2.6683 2.2971,-4.3225 3.574,-5.2862 1.283,-1.2372 3.0181,-1.729 6.6792,-1.729 h 10.8963 c 3.2411,0 5.8727,-2.5064 5.8758,-5.6941 0,-3.2365 -2.6347,-5.6955 -5.8758,-5.6955 z m -17.9635,40.5151 h 78.0564 l -23.042,60.8215 c -0.2444,0 -0.3818,-0.2444 -0.5956,-0.4888 h -0.2444 l -55.1885,-57.6613 z m 87.6406,7.8308 10.936,17.7374 c -13.3217,8.3272 -21.8827,22.5058 -23.0572,38.1201 h -9.0711 z m -118.104,21.9636 c 2.4438,0 4.8708,0.2444 7.2611,0.7484 l -12.3808,35.1311 c -1.0539,3.0624 0.5193,6.4241 3.5801,7.4597 3.0548,1.2372 6.4104,-0.4888 7.4841,-3.5573 l 12.3351,-35.0058 c 11.9104,6.6456 19.2999,19.1945 19.309,32.8324 0,20.7753 -16.8286,37.5993 -37.5886,37.5993 -20.76,0 -37.5886,-16.824 -37.5886,-37.5993 0,-20.7524 16.8286,-37.5764 37.5886,-37.5764 z m 155.1657,0 c 20.7585,0 37.5901,16.824 37.5901,37.5734 0,20.7768 -16.8316,37.5534 -37.5901,37.5534 -17.6259,0 -32.8752,-12.28 -36.6722,-29.4477 h 41.4849 c 1.4968,0 3.2014,0.2444 5.8392,-1.7305 1.3135,-1.2372 2.1978,-3.3113 2.2238,-4.8173 0,-1.4816 -0.336,-2.5187 -0.6415,-3.1388 -1.2066,-2.9875 -2.5033,-4.1254 -4.0964,-6.7433 l -17.2333,-28.0395 c 2.9768,-0.9775 6.0377,-1.2372 9.1092,-1.2372 z m -19.9826,5.7811 17.3677,28.235 h -34.7859 c 1.1303,-11.5591 7.5651,-21.985 17.4182,-28.1876 z"
         inkscape:transform-center-x="-202.52052"
         inkscape:transform-center-y="-461.2129"
         sodipodi:nodetypes="csccccccccccccccccccccccccccccccccscccccccccccccccccccccccccccccccccccccccccccc" />
    </g>
  </g>
</svg>
