<?xml version="1.0" encoding="UTF-8" standalone="no"?>
<!-- Created with Inkscape (http://www.inkscape.org/) -->

<svg
   width="636.57935mm"
   height="564.69678mm"
   viewBox="0 0 636.57935 564.69678"
   version="1.1"
   id="svg40845"
   inkscape:version="1.2.1 (9c6d41e410, 2022-07-14)"
   sodipodi:docname="Mexico road sign SR-07C3 (2023).svg"
   xmlns:inkscape="http://www.inkscape.org/namespaces/inkscape"
   xmlns:sodipodi="http://sodipodi.sourceforge.net/DTD/sodipodi-0.dtd"
   xmlns="http://www.w3.org/2000/svg"
   xmlns:svg="http://www.w3.org/2000/svg">
  <sodipodi:namedview
     id="namedview40847"
     pagecolor="#ffffff"
     bordercolor="#000000"
     borderopacity="0.25"
     inkscape:showpageshadow="2"
     inkscape:pageopacity="0.0"
     inkscape:pagecheckerboard="0"
     inkscape:deskcolor="#d1d1d1"
     inkscape:document-units="mm"
     showgrid="false"
     inkscape:zoom="0.26960926"
     inkscape:cx="1435.4106"
     inkscape:cy="758.5051"
     inkscape:window-width="1920"
     inkscape:window-height="991"
     inkscape:window-x="-9"
     inkscape:window-y="-9"
     inkscape:window-maximized="1"
     inkscape:current-layer="layer1" />
  <defs
     id="defs40842" />
  <g
     inkscape:label="Livello 1"
     inkscape:groupmode="layer"
     id="layer1"
     transform="translate(274.22538,216.42551)">
    <g
       id="g10844"
       transform="translate(4933.8611,-6937.9517)">
      <g
         id="g21381"
         transform="translate(-3081.9731,-119.17021)">
        <path
           id="path18719"
           style="fill:#007150;stroke-width:1.37891;stroke-opacity:0.683077;paint-order:fill markers stroke"
           d="m -1807.824,6840.6964 v 5e-4 c -17.8253,0 -34.3014,9.4922 -43.246,24.9107 l -17.3204,29.9986 -233.7562,404.8828 -17.3199,29.9992 c -8.8805,15.4555 -8.8611,34.4699 0.05,49.9076 h -5e-4 c 8.9135,15.4366 25.3711,24.9605 43.1963,24.9974 h 34.6398 467.5141 34.6397 c 17.8252,-0.037 34.2828,-9.5608 43.1963,-24.9974 h -5e-4 c 8.9116,-15.4377 8.931,-34.4521 0.05,-49.9076 l -17.3203,-29.9992 -233.7543,-404.8833 -17.3198,-29.9987 c -8.9445,-15.4181 -25.4214,-24.9106 -43.2465,-24.9106 z"
           sodipodi:nodetypes="csccccssccccssccccsc" />
        <path
           style="fill:#ffffff;stroke-width:3;stroke-opacity:0.683077;paint-order:fill markers stroke"
           d="m -2041.4747,7335.393 h 467.302 l -233.652,-404.695 z"
           id="path20651"
           sodipodi:nodetypes="cccc" />
      </g>
      <g
         id="g25723-1-3-9-4"
         transform="matrix(11.087806,0,0,11.087806,-37887.941,-104853.88)">
        <ellipse
           style="fill:#000000;stroke-width:0.566424;stroke-linejoin:bevel;stroke-opacity:0.738462;paint-order:fill markers stroke"
           id="path22193-8-5-1-5-8"
           cx="2966.2378"
           cy="10103.941"
           rx="1.5145167"
           ry="1.5145" />
        <circle
           style="fill:#000000;stroke-width:0.566421;stroke-linejoin:bevel;stroke-opacity:0.738462;paint-order:fill markers stroke"
           id="path22193-8-7-1-5-9-1"
           cx="2983.0059"
           cy="10103.941"
           r="1.5145" />
        <path
           id="rect23817-7-8-9-9"
           style="fill:#000000;stroke-width:1.47832;stroke-linejoin:bevel;stroke-opacity:0.738462;paint-order:fill markers stroke"
           d="m 2971.5773,10094.847 v 9.153 h 9.2035 a 2.2281013,2.2281013 0 0 1 0,-0.07 2.2281013,2.2281013 0 0 1 2.2283,-2.229 2.2281013,2.2281013 0 0 1 2.2278,2.229 2.2281013,2.2281013 0 0 1 0,0.07 h 1.1689 v -1.32 h 0.8305 v -7.833 z" />
        <path
           id="rect23817-4-9-8-6-2"
           style="fill:#000000;stroke-width:0.878148;stroke-linejoin:bevel;stroke-opacity:0.738462;paint-order:fill markers stroke"
           d="m 2967.6488,10097.57 -1.0475,2.699 -2.7548,0.419 c -0.427,0.1 -0.3783,0.22 -0.3783,0.438 v 2.187 c 0,0.256 0.2136,0.416 0.5281,0.406 h 0.026 a 2.2281013,2.2281013 0 0 1 2.2158,-2.007 2.2281013,2.2281013 0 0 1 2.2278,2.229 2.2281013,2.2281013 0 0 1 0,0.06 h 2.8665 v -6.431 z" />
        <path
           style="fill:#ffffff;stroke-width:1.496;stroke-linejoin:bevel;stroke-opacity:0.738462;paint-order:fill markers stroke"
           d="m 2968.4795,10098.506 c -0.1985,0 -0.3784,0.16 -0.4307,0.408 l -0.3625,1.196 c -0.1187,0.331 0.1906,0.749 0.5379,0.627 l 2.0034,-0.576 v -1.114 c 0,-0.282 -0.206,-0.541 -0.4698,-0.541 z"
           id="path23906-1-1-1-1"
           sodipodi:nodetypes="cccccccc" />
      </g>
    </g>
  </g>
</svg>
