<?xml version="1.0" encoding="UTF-8" standalone="no"?>
<svg
   viewBox="0 0 803.80999 268.60002"
   version="1.1"
   id="svg21"
   sodipodi:docname="SR-A_30x10.svg"
   width="803.81"
   height="268.60001"
   xmlns:inkscape="http://www.inkscape.org/namespaces/inkscape"
   xmlns:sodipodi="http://sodipodi.sourceforge.net/DTD/sodipodi-0.dtd"
   xmlns="http://www.w3.org/2000/svg"
   xmlns:svg="http://www.w3.org/2000/svg">
  <sodipodi:namedview
     id="namedview21"
     pagecolor="#50505000"
     bordercolor="#ffffffff"
     borderopacity="1"
     inkscape:showpageshadow="0"
     inkscape:pageopacity="0"
     inkscape:pagecheckerboard="1"
     inkscape:deskcolor="#505050ff"
     showgrid="false"
     inkscape:zoom="0.74596517"
     inkscape:cx="401.49328"
     inkscape:cy="503.37471"
     inkscape:window-width="1920"
     inkscape:window-height="1009"
     inkscape:window-maximized="1"
     inkscape:current-layer="svg21" />
  <defs
     id="defs1">
    <style
       id="style1">
      .cls-1, .cls-2 {
        fill: #fff;
      }

      .cls-2, .cls-3 {
        stroke: #000;
        stroke-linecap: round;
        stroke-linejoin: round;
      }

      .cls-3 {
        fill: none;
      }

      .cls-4 {
        fill-rule: evenodd;
      }
    </style>
  </defs>
  <g
     id="sr_Fondo_del_tablero"
     data-name="sr_Fondo del tablero"
     transform="translate(-15.889999,-38.139999)">
    <g
       id="HATCH">
      <rect
         class="cls-1"
         x="37.790001"
         y="60.049999"
         width="760"
         height="224.78999"
         rx="32.110001"
         ry="32.110001"
         id="rect3" />
    </g>
  </g>
  <g
     id="sr_Pictograma_y_filete"
     data-name="sr_Pictograma y filete"
     transform="translate(-15.889999,-38.139999)">
    <g
       id="g9">
      <path
         d="m 161.57,183.43 c -0.15,36.28 -14.97,45.36 -34.47,45.36 -19.5,0 -34.32,-8.77 -34.32,-45.36 v -64.71 h 23.89 l 0.15,68.64 c 0,14.36 2.12,20.86 10.58,20.86 8.46,0 10.58,-6.5 10.58,-21.17 l 0.15,-68.33 h 23.43 v 64.71 z"
         id="path3" />
      <path
         d="m 220.99,227.27 -21.32,-64.1 h -0.3 v 64.1 H 178.2 V 118.72 h 23.89 l 20.11,60.62 h 0.3 v -60.62 h 21.17 v 108.55 z"
         id="path4" />
      <path
         d="m 294.17,228.33 c -19.2,0 -37.04,-9.37 -37.04,-55.33 0,-41.42 16.78,-55.48 36.89,-55.48 20.11,0 35.98,14.06 35.98,55.48 0.3,45.66 -16.63,55.33 -35.83,55.33 z m -0.31,-91.77 c -9.52,0 -13.46,9.07 -13.46,36.89 0,25.55 3.93,36.13 13.46,36.13 9.53,0 12.7,-10.43 12.7,-36.59 0,-26.16 -3.17,-36.44 -12.7,-36.44 z"
         id="path5" />
      <path
         d="m 374.9,118.72 h 26.76 l 8.16,39.31 8.31,-39.31 h 25.7 l -23.13,60.02 v 48.53 h -22.68 v -48.83 l -23.13,-59.72 z"
         id="path6" />
      <path
         d="m 577.04,183.43 c -0.15,36.28 -14.97,45.36 -34.47,45.36 -19.5,0 -34.32,-8.77 -34.32,-45.36 v -64.71 h 23.89 l 0.15,68.64 c 0,14.36 2.12,20.86 10.58,20.86 8.46,0 10.58,-6.5 10.58,-21.17 l 0.15,-68.33 h 23.43 v 64.71 z"
         id="path7" />
      <path
         d="m 636.45,227.27 -21.32,-64.1 h -0.3 v 64.1 H 593.66 V 118.72 h 23.89 l 20.11,60.62 h 0.3 v -60.62 h 21.17 v 108.55 z"
         id="path8" />
      <path
         d="m 709.63,228.33 c -19.2,0 -37.04,-9.37 -37.04,-55.33 0,-41.42 16.78,-55.48 36.89,-55.48 20.11,0 35.98,14.06 35.98,55.48 0.3,45.66 -16.63,55.33 -35.83,55.33 z m -0.31,-91.77 c -9.52,0 -13.46,9.07 -13.46,36.89 0,25.55 3.93,36.13 13.46,36.13 9.53,0 12.7,-10.43 12.7,-36.59 0,-26.16 -3.17,-36.44 -12.7,-36.44 z"
         id="path9" />
    </g>
    <g
       id="HATCH-2"
       data-name="HATCH">
      <path
         class="cls-4"
         d="m 69.91,284.84 h 695.77 c 17.74,0 32.11,-14.38 32.11,-32.11 V 92.16 c 0,-17.74 -14.38,-32.11 -32.11,-32.11 H 69.91 C 52.17,60.05 37.8,74.43 37.8,92.16 v 160.56 c 0,17.74 14.38,32.11 32.11,32.11 m 0,21.42 h 695.77 c 29.56,0 53.52,-23.96 53.52,-53.52 V 92.16 C 819.2,62.6 795.24,38.64 765.68,38.64 H 69.91 c -29.56,0 -53.52,23.96 -53.52,53.52 v 160.56 c 0,29.56 23.96,53.52 53.52,53.52 z"
         id="path10" />
    </g>
    <g
       id="LWPOLYLINE">
      <rect
         class="cls-3"
         x="16.389999"
         y="38.639999"
         width="802.81"
         height="267.60001"
         rx="53.52"
         ry="53.52"
         id="rect10" />
    </g>
    <g
       id="LWPOLYLINE-2"
       data-name="LWPOLYLINE">
      <rect
         class="cls-3"
         x="37.790001"
         y="60.049999"
         width="760"
         height="224.78999"
         rx="32.110001"
         ry="32.110001"
         id="rect11" />
    </g>
  </g>
</svg>
