<?xml version="1.0" encoding="UTF-8" standalone="no"?>
<svg
   viewBox="0 0 739.61999 370.31"
   version="1.1"
   id="svg27"
   sodipodi:docname="SR-B_30x15.svg"
   width="739.62"
   height="370.31"
   inkscape:version="1.4.2 (f4327f4, 2025-05-13)"
   xmlns:inkscape="http://www.inkscape.org/namespaces/inkscape"
   xmlns:sodipodi="http://sodipodi.sourceforge.net/DTD/sodipodi-0.dtd"
   xmlns="http://www.w3.org/2000/svg"
   xmlns:svg="http://www.w3.org/2000/svg">
  <sodipodi:namedview
     id="namedview27"
     pagecolor="#50505000"
     bordercolor="#ffffffff"
     borderopacity="1"
     inkscape:showpageshadow="0"
     inkscape:pageopacity="0"
     inkscape:pagecheckerboard="1"
     inkscape:deskcolor="#505050ff"
     inkscape:zoom="0.75597843"
     inkscape:cx="371.70372"
     inkscape:cy="218.92159"
     inkscape:window-width="1366"
     inkscape:window-height="697"
     inkscape:window-x="-8"
     inkscape:window-y="-8"
     inkscape:window-maximized="1"
     inkscape:current-layer="sr_Pictograma_y_filete" />
  <defs
     id="defs1">
    <style
       id="style1">
      .cls-1, .cls-2 {
        fill: #fff;
      }

      .cls-2, .cls-3 {
        stroke: #000;
        stroke-linecap: round;
        stroke-linejoin: round;
      }

      .cls-3 {
        fill: none;
      }

      .cls-4 {
        fill-rule: evenodd;
      }
    </style>
  </defs>
  <g
     id="sr_Fondo_del_tablero"
     data-name="sr_Fondo del tablero"
     transform="translate(-48.009998,-16.620001)">
    <g
       id="HATCH">
      <rect
         class="cls-1"
         x="68.199997"
         y="36.810001"
         width="699.21997"
         height="329.92001"
         rx="29.540001"
         ry="29.540001"
         id="rect3" />
    </g>
  </g>
  <g
     id="sr_Pictograma_y_filete"
     data-name="sr_Pictograma y filete"
     transform="translate(-48.009998,-16.620001)">
    <g
       id="CIRCLE">
      <circle
         class="cls-3"
         cx="701.19"
         cy="112.86"
         r="15.46"
         id="circle3" />
    </g>
    <g
       id="MTEXT">
      <g
         id="g4">
        <path
           d="m 494.47,196.23 c 3.34,2.07 4.69,2.25 8.65,2.25 6.04,0 9.56,-5.14 9.56,-11.99 0,-5.68 -3.34,-10.19 -8.92,-10.19 -1.71,0 -4.51,0 -6.94,1.26 l -8.38,-4.33 4.78,-29.3 h 28.76 v 10.64 h -18.75 l -3.07,13.25 c 2.34,-1.62 6.22,-1.62 8.56,-1.62 7.75,0 16.95,4.69 16.95,19.38 0,8.74 -4.42,22.99 -23.26,22.99 -5.95,0 -10.01,-1.89 -13.52,-4.6 l 5.59,-7.75 z"
           id="path3" />
        <path
           d="m 552.53,142.14 c 13.52,0 19.65,10.82 19.65,33.54 0,22.72 -5.86,32.9 -19.65,32.9 -13.79,0 -19.65,-10.46 -19.65,-32.9 0,-22.44 6.22,-33.54 19.65,-33.54 z m 0.27,56.34 c 4.51,0 6.85,-6.31 6.85,-22.81 0,-16.5 -2.07,-23.44 -6.85,-23.44 -4.78,0 -6.85,6.94 -6.85,23.44 0,16.5 2.34,22.81 6.85,22.81 z"
           id="path4" />
      </g>
    </g>
    <g
       id="MTEXT-2"
       data-name="MTEXT">
      <path
         d="m 470.5,267.08 h -24.34 v -98.93 l -17.56,2.09 -3.83,-15.82 25.21,-10.78 h 20.52 v 123.45 z"
         id="path5" />
    </g>
    <g
       id="HATCH-2"
       data-name="HATCH">
      <path
         class="cls-4"
         d="m 97.75,366.73 h 640.13 c 16.32,0 29.54,-13.23 29.54,-29.54 V 66.36 c 0,-16.32 -13.23,-29.54 -29.54,-29.54 H 97.75 c -16.32,0 -29.54,13.23 -29.54,29.54 v 270.83 c 0,16.32 13.23,29.54 29.54,29.54 m 0,19.7 h 640.13 c 27.2,0 49.24,-22.05 49.24,-49.24 V 66.36 c 0,-27.2 -22.05,-49.24 -49.24,-49.24 H 97.75 c -27.2,0 -49.24,22.05 -49.24,49.24 v 270.83 c 0,27.2 22.05,49.24 49.24,49.24 z"
         id="path6" />
    </g>
    <g
       id="LWPOLYLINE">
      <rect
         class="cls-3"
         x="48.509998"
         y="17.120001"
         width="738.62"
         height="369.31"
         rx="49.240002"
         ry="49.240002"
         id="rect6" />
    </g>
    <g
       id="LWPOLYLINE-2"
       data-name="LWPOLYLINE">
      <rect
         class="cls-3"
         x="68.199997"
         y="36.810001"
         width="699.21997"
         height="329.92001"
         rx="29.540001"
         ry="29.540001"
         id="rect7" />
    </g>
    <g
       id="HATCH-3"
       data-name="HATCH">
      <path
         class="cls-4"
         d="m 650.64,201.77 -52.18,-41.75 v 83.5 l 52.18,-41.75 m 73.74,3.87 -3.87,-7.73 v -1.93 c 0.56,-1.11 1.66,-1.85 2.9,-1.93 0.75,1.16 1.74,2.14 2.9,2.9 0.82,0.65 1.85,0.99 2.9,0.97 1.12,-0.13 1.96,-1.1 1.93,-2.23 0.46,0.8 1.12,1.46 1.91,1.93 0.89,0.56 2.06,0.3 2.63,-0.59 0.19,-0.3 0.29,-0.64 0.3,-1 -0.78,-1.46 -1.78,-2.8 -2.97,-3.96 l 9.66,-21.22 c 1.38,-2.39 1.38,-5.34 0,-7.73 l -15.5,-26.89 c -1.38,-2.4 -3.89,-3.92 -6.66,-4.04 h -38.66 c -2.76,0.12 -5.28,1.64 -6.66,4.04 l -15.5,26.89 c -1.38,2.39 -1.38,5.34 0,7.73 l 9.66,21.22 c -1.19,1.16 -2.19,2.49 -2.97,3.96 0.01,1.05 0.87,1.89 1.93,1.88 0.35,0 0.7,-0.11 1,-0.3 0.79,-0.47 1.45,-1.14 1.91,-1.93 -0.03,1.13 0.81,2.09 1.93,2.23 1.05,0.03 2.08,-0.32 2.9,-0.97 1.16,-0.75 2.14,-1.74 2.9,-2.9 0.76,0 1.48,0.35 1.93,0.97 l -2.9,2.9 c -1.45,2.31 -2.13,5.01 -1.93,7.73 v 57.98 c 0.34,3.46 2.57,6.44 5.8,7.73 -1.07,0 -1.93,0.87 -1.93,1.93 0,1.06 0.87,1.93 1.93,1.93 h 15.46 v 27.06 c 0,2.13 1.73,3.87 3.87,3.87 2.14,0 3.87,-1.73 3.87,-3.87 v -15.46 h 15.46 c 1.07,0 1.93,-0.87 1.93,-1.93 0,-1.06 -0.87,-1.93 -1.93,-1.93 3.64,-0.69 6.15,-4.04 5.8,-7.73 v -61.85 c 0.03,-2.7 -0.64,-5.36 -1.93,-7.73 m -25.12,15.46 c -1.3,0.84 -2.03,2.32 -1.93,3.87 v 46.39 h -9.66 c 3.08,-1.47 5.25,-4.36 5.8,-7.73 V 211.6 c 0,-1.09 0.84,-2 1.93,-2.09 h 3.87 v 11.6 m 3.85,-11.61 c 2.8,1.79 4.86,4.54 5.8,7.73 v 58.01 c 0,3.57 2.36,6.72 5.8,7.71 h -9.66 c 0,0 0,-57.98 0,-57.98 0.1,-1.54 -0.64,-3.02 -1.93,-3.87 v -11.6 m -30.6,-40.96 7.4,19.7 c 0.48,0.91 0.48,1.99 0,2.9 0.72,0.15 1.38,0.49 1.93,0.97 v -35.76 c 0,-0.53 -0.43,-0.97 -0.97,-0.97 -0.3,0 -0.58,0.14 -0.76,0.37 l -7.61,9.67 c -0.22,0.49 -0.33,1.02 -0.33,1.56 0,0.54 0.11,1.07 0.33,1.56 m 44.13,-55.68 c 0,-8.54 -6.92,-15.46 -15.46,-15.46 -8.54,0 -15.46,6.92 -15.46,15.46 0,8.54 6.92,15.46 15.46,15.46 8.54,0 15.46,-6.92 15.46,-15.46 m -371.09,88.91 52.18,-41.75 v 83.5 l -52.18,-41.75 m -160.77,-7.64 h 61.09 v 25.46 h -61.09 v -25.46 m 137.47,5.1 v 10.18 h -45.82 v -20.36 h 35.64 c 5.62,0 10.18,4.56 10.18,10.18 m -213.83,0 v 10.18 c 0,0 45.82,0 45.82,0 v -20.36 h -35.64 c -5.62,0 -10.18,4.56 -10.18,10.18 m 218.92,56 V 245.05 H 103.33 v 10.18 H 327.34 M 139.02,121.85 133.88,173.77 H 296.8 l -5.14,-51.92 c -0.52,-5.21 -4.9,-9.18 -10.13,-9.18 H 149.16 c -5.24,0 -9.62,3.97 -10.13,9.18 m 152.68,184.29 h 15.27 c 5.62,0 10.18,-4.56 10.18,-10.18 v -30.55 h 10.18 c 5.62,0 10.18,-4.56 10.18,-10.18 v -61.09 c 0,-11.25 -9.12,-20.36 -20.36,-20.36 l -10.63,-55.69 c -2.29,-12 -12.79,-20.68 -25,-20.68 H 149.16 c -12.22,0 -22.71,8.68 -25,20.68 l -10.63,55.69 c -11.25,0 -20.36,9.12 -20.36,20.36 v 61.09 c 0,5.62 4.56,10.18 10.18,10.18 h 10.18 v 30.55 c 0,5.62 4.56,10.18 10.18,10.18 h 15.27 c 5.62,0 10.18,-4.56 10.18,-10.18 v -30.55 c 0,0 132.37,0 132.37,0 v 30.55 c 0,5.62 4.56,10.18 10.18,10.18 m 438.14,-137.6 -7.4,19.7 c -0.48,0.91 -0.48,1.99 0,2.9 -0.72,0.15 -1.38,0.49 -1.93,0.97 v -35.76 c 0,-0.3 0.14,-0.58 0.37,-0.76 0.42,-0.33 1.03,-0.26 1.36,0.16 l 7.61,9.67 c 0.22,0.49 0.33,1.02 0.33,1.56 0,0.54 -0.11,1.07 -0.33,1.56 m -0.01,0 c 0.22,-0.49 0.33,-1.02 0.33,-1.56 -0.11,1.07 0,0.54 0,0 m -0.33,1.56 -7.4,19.7 c 7.62,-20.19 7.73,-20.72 7.73,-21.26 0,-0.54 -0.11,-1.07 -0.33,-1.56 v 0 c -7.94,-10.08 -8.55,-10.16 -8.97,-9.83 -0.23,0.18 -0.37,0.46 -0.37,0.76 v 0 c 1.22,34.94 0.55,35.28 0,35.76 1.45,-2.96 1.45,-1.87 1.93,-0.97 l 7.4,-22.6 z"
         id="path7" />
    </g>
    <g
       id="LWPOLYLINE-3"
       data-name="LWPOLYLINE"
       style="fill:#ffffff">
      <path
         class="cls-3"
         d="m 729.85,168.54 -7.4,19.7 c -0.48,0.91 -0.48,1.99 0,2.9 -0.72,0.15 -1.38,0.49 -1.93,0.97 v -35.76 c 0,-0.3 0.14,-0.58 0.37,-0.76 0.42,-0.33 1.03,-0.26 1.36,0.16 l 7.61,9.67 c 0.22,0.49 0.33,1.02 0.33,1.56 0,0.54 -0.11,1.07 -0.33,1.56 0.22,-0.49 0.33,-1.02 0.33,-1.56"
         id="path8"
         style="fill:#ffffff" />
    </g>
    <g
       id="LWPOLYLINE-4"
       data-name="LWPOLYLINE">
      <path
         class="cls-3"
         d="m 672.53,168.54 7.4,19.7 c 0.48,0.91 0.48,1.99 0,2.9 0.72,0.15 1.38,0.49 1.93,0.97 v -35.76 c 0,-0.53 -0.43,-0.97 -0.97,-0.97 -0.3,0 -0.58,0.14 -0.76,0.37 l -7.61,9.67 c -0.22,0.49 -0.33,1.02 -0.33,1.56 0,0.54 0.11,1.07 0.33,1.56 z"
         id="path9" />
    </g>
    <g
       id="LWPOLYLINE-5"
       data-name="LWPOLYLINE">
      <path
         class="cls-3"
         d="m 703.12,209.5 c 2.8,1.79 4.86,4.54 5.8,7.73 v 58.01 c 0,3.57 2.36,6.72 5.8,7.71 h -9.66 v -57.98 c 0.1,-1.54 -0.64,-3.02 -1.93,-3.87 v -11.6 z"
         id="path10" />
    </g>
    <g
       id="LWPOLYLINE-6"
       data-name="LWPOLYLINE">
      <path
         class="cls-3"
         d="m 699.26,221.1 c -1.3,0.84 -2.03,2.32 -1.93,3.87 v 46.39 h -9.66 c 3.08,-1.47 5.25,-4.36 5.8,-7.73 V 211.6 c 0,-1.09 0.84,-2 1.93,-2.09 h 3.87 v 11.6 z"
         id="path11" />
    </g>
    <g
       id="LWPOLYLINE-7"
       data-name="LWPOLYLINE">
      <path
         class="cls-3"
         d="m 724.38,205.64 -3.87,-7.73 v -1.93 c 0.56,-1.11 1.66,-1.85 2.9,-1.93 0.75,1.16 1.74,2.14 2.9,2.9 0.82,0.65 1.85,0.99 2.9,0.97 1.12,-0.13 1.96,-1.1 1.93,-2.23 0.46,0.8 1.12,1.46 1.91,1.93 0.89,0.56 2.06,0.3 2.63,-0.59 0.19,-0.3 0.29,-0.64 0.3,-1 -0.78,-1.46 -1.78,-2.8 -2.97,-3.96 l 9.66,-21.22 c 1.38,-2.39 1.38,-5.34 0,-7.73 l -15.5,-26.89 c -1.38,-2.4 -3.89,-3.92 -6.66,-4.04 h -38.66 c -2.76,0.12 -5.28,1.64 -6.66,4.04 l -15.5,26.89 c -1.38,2.39 -1.38,5.34 0,7.73 l 9.66,21.22 c -1.19,1.16 -2.19,2.49 -2.97,3.96 0.01,1.05 0.87,1.89 1.93,1.88 0.35,0 0.7,-0.11 1,-0.3 0.79,-0.47 1.45,-1.14 1.91,-1.93 -0.03,1.13 0.81,2.09 1.93,2.23 1.05,0.03 2.08,-0.32 2.9,-0.97 1.16,-0.75 2.14,-1.74 2.9,-2.9 0.76,0 1.48,0.35 1.93,0.97 l -2.9,2.9 c -1.45,2.31 -2.13,5.01 -1.93,7.73 v 57.98 c 0.34,3.46 2.57,6.44 5.8,7.73 -1.07,0 -1.93,0.87 -1.93,1.93 0,1.06 0.87,1.93 1.93,1.93 h 15.46 v 27.06 c 0,2.13 1.73,3.87 3.87,3.87 2.14,0 3.87,-1.73 3.87,-3.87 v -15.46 h 15.46 c 1.07,0 1.93,-0.87 1.93,-1.93 0,-1.06 -0.87,-1.93 -1.93,-1.93 3.64,-0.69 6.15,-4.04 5.8,-7.73 v -61.85 c 0.03,-2.7 -0.64,-5.36 -1.93,-7.73 z"
         id="path12" />
    </g>
    <g
       id="LWPOLYLINE-8"
       data-name="LWPOLYLINE">
      <path
         class="cls-3"
         d="m 291.71,306.14 h 15.27 c 5.62,0 10.18,-4.56 10.18,-10.18 v -30.55 c 0,0 10.18,0 10.18,0 5.62,0 10.18,-4.56 10.18,-10.18 v -61.09 c 0,-11.25 -9.12,-20.36 -20.36,-20.36 l -10.63,-55.69 c -2.29,-12 -12.79,-20.68 -25,-20.68 H 149.16 c -12.22,0 -22.71,8.68 -25,20.68 l -10.63,55.69 c -11.25,0 -20.36,9.12 -20.36,20.36 v 61.09 c 0,5.62 4.56,10.18 10.18,10.18 h 10.18 v 30.55 c 0,5.62 4.56,10.18 10.18,10.18 h 15.27 c 5.62,0 10.18,-4.56 10.18,-10.18 v -30.55 h 132.37 v 30.55 c 0,5.62 4.56,10.18 10.18,10.18 z"
         id="path13" />
    </g>
    <g
       id="LWPOLYLINE-9"
       data-name="LWPOLYLINE">
      <path
         class="cls-3"
         d="m 139.02,121.85 -5.14,51.92 H 296.8 l -5.14,-51.92 c -0.52,-5.21 -4.9,-9.18 -10.13,-9.18 H 149.16 c -5.24,0 -9.62,3.97 -10.13,9.18 z"
         id="path14" />
    </g>
    <g
       id="LWPOLYLINE-10"
       data-name="LWPOLYLINE">
      <rect
         class="cls-3"
         x="103.33"
         y="245.05"
         width="224.00999"
         height="10.18"
         id="rect14" />
    </g>
    <g
       id="LWPOLYLINE-11"
       data-name="LWPOLYLINE">
      <path
         class="cls-3"
         d="m 108.43,199.23 v 10.18 c 0,0 45.82,0 45.82,0 v -20.36 h -35.64 c -5.62,0 -10.18,4.56 -10.18,10.18 z"
         id="path15" />
    </g>
    <g
       id="LWPOLYLINE-12"
       data-name="LWPOLYLINE">
      <path
         class="cls-3"
         d="m 322.26,199.23 v 10.18 h -45.82 v -20.36 h 35.64 c 5.62,0 10.18,4.56 10.18,10.18 z"
         id="path16" />
    </g>
    <g
       id="LWPOLYLINE-13"
       data-name="LWPOLYLINE">
      <polyline
         class="cls-3"
         points="184.79 194.13 245.89 194.13 245.89 219.59 184.79 219.59 184.79 194.13"
         id="polyline16" />
    </g>
    <g
       id="LWPOLYLINE-14"
       data-name="LWPOLYLINE">
      <polygon
         class="cls-3"
         points="598.45,243.52 650.64,201.77 598.45,160.02 "
         id="polygon16" />
    </g>
    <g
       id="LWPOLYLINE-15"
       data-name="LWPOLYLINE">
      <polygon
         class="cls-3"
         points="397.74,243.52 345.56,201.77 397.74,160.02 "
         id="polygon17" />
    </g>
  </g>
</svg>
