<?xml version="1.0" encoding="UTF-8" standalone="no"?>
<svg
   viewBox="0 0 739.61999 370.31"
   version="1.1"
   id="svg28"
   sodipodi:docname="SR-D1_30x15.svg"
   width="739.62"
   height="370.31"
   inkscape:version="1.4.2 (f4327f4, 2025-05-13)"
   xmlns:inkscape="http://www.inkscape.org/namespaces/inkscape"
   xmlns:sodipodi="http://sodipodi.sourceforge.net/DTD/sodipodi-0.dtd"
   xmlns="http://www.w3.org/2000/svg"
   xmlns:svg="http://www.w3.org/2000/svg">
  <sodipodi:namedview
     id="namedview28"
     pagecolor="#50505000"
     bordercolor="#ffffffff"
     borderopacity="1"
     inkscape:showpageshadow="0"
     inkscape:pageopacity="0"
     inkscape:pagecheckerboard="1"
     inkscape:deskcolor="#505050ff"
     inkscape:zoom="0.45000819"
     inkscape:cx="369.99327"
     inkscape:cy="534.43472"
     inkscape:window-width="1366"
     inkscape:window-height="697"
     inkscape:window-x="-8"
     inkscape:window-y="-8"
     inkscape:window-maximized="1"
     inkscape:current-layer="svg28" />
  <defs
     id="defs1">
    <style
       id="style1">
      .cls-1, .cls-2 {
        fill: #fff;
      }

      .cls-2, .cls-3 {
        stroke: #000;
        stroke-linecap: round;
        stroke-linejoin: round;
      }

      .cls-3 {
        fill: none;
      }

      .cls-4 {
        fill-rule: evenodd;
      }
    </style>
  </defs>
  <g
     id="sr_Fondo_del_tablero"
     data-name="sr_Fondo del tablero"
     transform="translate(-48.009998,-16.620001)">
    <g
       id="HATCH">
      <rect
         class="cls-1"
         x="68.199997"
         y="36.810001"
         width="699.21997"
         height="329.92001"
         rx="29.540001"
         ry="29.540001"
         id="rect3" />
    </g>
  </g>
  <g
     id="sr_Pictograma_y_filete"
     data-name="sr_Pictograma y filete"
     transform="translate(-48.009998,-16.620001)">
    <g
       id="CIRCLE">
      <circle
         class="cls-3"
         cx="329.5"
         cy="249.94"
         r="24.09"
         id="circle3" />
    </g>
    <g
       id="CIRCLE-2"
       data-name="CIRCLE">
      <circle
         class="cls-3"
         cx="329.5"
         cy="249.94"
         r="16.059999"
         id="circle4" />
    </g>
    <g
       id="CIRCLE-3"
       data-name="CIRCLE">
      <circle
         class="cls-3"
         cx="184.99001"
         cy="249.94"
         r="24.09"
         id="circle5" />
    </g>
    <g
       id="CIRCLE-4"
       data-name="CIRCLE">
      <circle
         class="cls-3"
         cx="184.99001"
         cy="249.94"
         r="16.059999"
         id="circle6" />
    </g>
    <g
       id="CIRCLE-5"
       data-name="CIRCLE">
      <circle
         class="cls-3"
         cx="512.71997"
         cy="237.22"
         r="8.0299997"
         id="circle7" />
    </g>
    <g
       id="CIRCLE-6"
       data-name="CIRCLE">
      <circle
         class="cls-3"
         cx="512.71997"
         cy="237.22"
         r="16.059999"
         id="circle8" />
    </g>
    <g
       id="CIRCLE-7"
       data-name="CIRCLE">
      <circle
         class="cls-3"
         cx="688.03003"
         cy="258.75"
         r="8.0299997"
         id="circle9" />
    </g>
    <g
       id="CIRCLE-8"
       data-name="CIRCLE">
      <circle
         class="cls-3"
         cx="688.03003"
         cy="258.75"
         r="16.059999"
         id="circle10" />
    </g>
    <g
       id="HATCH-2"
       data-name="HATCH">
      <path
         class="cls-4"
         d="m 97.75,366.73 h 640.13 c 16.32,0 29.54,-13.23 29.54,-29.54 V 66.36 c 0,-16.32 -13.23,-29.54 -29.54,-29.54 H 97.75 c -16.32,0 -29.54,13.23 -29.54,29.54 v 270.83 c 0,16.32 13.23,29.54 29.54,29.54 m 0,19.7 h 640.13 c 27.2,0 49.24,-22.05 49.24,-49.24 V 66.36 c 0,-27.2 -22.05,-49.24 -49.24,-49.24 H 97.75 c -27.2,0 -49.24,22.05 -49.24,49.24 v 270.83 c 0,27.2 22.05,49.24 49.24,49.24 z"
         id="path10" />
    </g>
    <g
       id="LWPOLYLINE">
      <rect
         class="cls-3"
         x="48.509998"
         y="17.120001"
         width="738.62"
         height="369.31"
         rx="49.240002"
         ry="49.240002"
         id="rect10" />
    </g>
    <g
       id="LWPOLYLINE-2"
       data-name="LWPOLYLINE">
      <rect
         class="cls-3"
         x="68.199997"
         y="36.810001"
         width="699.21997"
         height="329.92001"
         rx="29.540001"
         ry="29.540001"
         id="rect11" />
    </g>
    <g
       id="HATCH-3"
       data-name="HATCH">
      <path
         class="cls-4"
         d="m 704.08,258.75 c 0,-8.87 -7.19,-16.06 -16.06,-16.06 -8.87,0 -16.06,7.19 -16.06,16.06 0,8.87 7.19,16.06 16.06,16.06 8.87,0 16.06,-7.19 16.06,-16.06 m -8.03,0 c 0,-4.43 -3.59,-8.03 -8.03,-8.03 -4.44,0 -8.03,3.59 -8.03,8.03 0,4.44 3.59,8.03 8.03,8.03 4.44,0 8.03,-3.59 8.03,-8.03 M 528.77,237.22 c 0,-8.87 -7.19,-16.06 -16.06,-16.06 -8.87,0 -16.06,7.19 -16.06,16.06 0,8.87 7.19,16.06 16.06,16.06 8.87,0 16.06,-7.19 16.06,-16.06 m -8.03,0 c 0,-4.43 -3.59,-8.03 -8.03,-8.03 -4.44,0 -8.03,3.59 -8.03,8.03 0,4.44 3.59,8.03 8.03,8.03 4.44,0 8.03,-3.59 8.03,-8.03 m 50.15,-58.13 c 3.49,-4.26 8.91,-6.43 14.38,-5.76 l 39.84,4.89 -2.94,23.91 -63.75,-7.83 12.46,-15.21 m 94.08,4.03 -31.87,-3.91 -2.94,23.91 55.78,6.85 -8.41,-17.77 c -2.35,-4.97 -7.09,-8.4 -12.56,-9.07 m -463.91,66.81 c 0,-8.87 -7.19,-16.06 -16.06,-16.06 -8.87,0 -16.06,7.19 -16.06,16.06 0,8.87 7.19,16.06 16.06,16.06 8.87,0 16.06,-7.19 16.06,-16.06 m 8.02,0 c 0,-13.3 -10.78,-24.09 -24.09,-24.09 -13.31,0 -24.09,10.78 -24.09,24.09 0,13.31 10.78,24.09 24.09,24.09 13.31,0 24.09,-10.78 24.09,-24.09 m 136.49,0 c 0,-8.87 -7.19,-16.06 -16.06,-16.06 -8.87,0 -16.06,7.19 -16.06,16.06 0,8.87 7.19,16.06 16.06,16.06 8.87,0 16.06,-7.19 16.06,-16.06 m 8.03,0 c 0,-13.3 -10.78,-24.09 -24.09,-24.09 -13.31,0 -24.09,10.78 -24.09,24.09 0,13.31 10.78,24.09 24.09,24.09 13.31,0 24.09,-10.78 24.09,-24.09 m -227.13,-60.58 42.47,-19.7 h 12.04 c 2.22,0 4.01,-1.8 4.01,-4.01 v -24.09 c 0,-2.22 -1.8,-4.01 -4.01,-4.01 h -44.16 c -1.62,0 -3.08,0.97 -3.71,2.47 l -12.35,29.64 v 16.06 c 0,2.22 1.8,4.01 4.01,4.01 0.58,0 1.16,-0.13 1.69,-0.37 m -29.77,-3.65 v 56.2 c 0,4.43 3.59,8.03 8.03,8.03 h 48.17 c 0,-17.74 14.38,-32.11 32.11,-32.11 h 16.06 v -88.31 c 0,-4.43 -3.59,-8.03 -8.03,-8.03 h -64.23 c -3.24,0 -6.16,1.95 -7.41,4.94 l -24.7,59.29 m 369.28,40.14 h -8.01 c 0,0 -56.2,-104.37 -56.2,-104.37 h -24.09 l -88.31,72.26 h -80.28 v 34.96 c 5.17,5.87 8.03,13.42 8.03,21.24 h 80.28 c 0,-17.74 14.38,-32.11 32.11,-32.11 17.74,0 32.11,14.38 32.11,32.11 h 24.09 v -56.2 h -48.17 l 48.17,-56.2 h 8.03 c 0,0 56.2,104.37 56.2,104.37 h 32.11 v -8.46 l 6.77,0.83 c 1.62,-13.2 13.64,-22.59 26.84,-20.97 13.2,1.62 22.59,13.64 20.97,26.84 l 127.5,15.65 c 1.62,-13.2 13.64,-22.59 26.84,-20.97 13.2,1.62 22.59,13.64 20.97,26.84 l 15.94,1.96 c 4.4,0.54 8.41,-2.59 8.95,-6.99 l 1.96,-15.94 c 1.62,-13.2 -7.77,-25.22 -20.97,-26.84 l -15.94,-1.96 -19.29,-26.9 c -3.92,-5.47 -9.96,-9.05 -16.64,-9.87 l -79.69,-9.78 c -6.68,-0.82 -13.4,1.19 -18.53,5.55 l -25.23,21.43 -48.79,2.1 c -13.2,-1.62 -25.22,7.77 -26.84,20.97 l -0.98,7.97 c -0.1,0.82 -0.07,1.66 0.08,2.47 z"
         id="path11" />
    </g>
    <g
       id="LWPOLYLINE-3"
       data-name="LWPOLYLINE">
      <path
         class="cls-3"
         d="m 465.96,225.86 h -8.01 c 0,0 -56.2,-104.37 -56.2,-104.37 h -24.09 l -88.31,72.26 h -80.28 c 0,0 0,34.96 0,34.96 5.17,5.87 8.03,13.42 8.03,21.24 h 80.28 c 0,-17.74 14.38,-32.11 32.11,-32.11 17.73,0 32.11,14.38 32.11,32.11 h 24.09 v -56.2 h -48.17 l 48.17,-56.2 h 8.03 c 0,0 56.2,104.37 56.2,104.37 h 32.11 v -8.46 l 6.77,0.83 c 1.62,-13.2 13.64,-22.59 26.84,-20.97 13.2,1.62 22.59,13.64 20.97,26.84 l 127.5,15.65 c 1.62,-13.2 13.64,-22.59 26.84,-20.97 13.2,1.62 22.59,13.64 20.97,26.84 l 15.94,1.96 c 4.4,0.54 8.41,-2.59 8.95,-6.99 l 1.96,-15.94 c 1.62,-13.2 -7.77,-25.22 -20.97,-26.84 l -15.94,-1.96 -19.29,-26.9 c -3.92,-5.47 -9.96,-9.05 -16.64,-9.87 l -79.69,-9.78 c -6.68,-0.82 -13.4,1.19 -18.53,5.55 l -25.23,21.43 -48.79,2.1 c -13.2,-1.62 -25.22,7.77 -26.84,20.97 l -0.98,7.97 c -0.1,0.82 -0.07,1.66 0.08,2.47 z"
         id="path12" />
    </g>
    <g
       id="LWPOLYLINE-4"
       data-name="LWPOLYLINE">
      <path
         class="cls-3"
         d="m 96.68,185.71 v 56.2 c 0,4.43 3.59,8.03 8.03,8.03 h 48.17 c 0,-17.74 14.38,-32.11 32.11,-32.11 h 16.06 v -88.31 c 0,-4.43 -3.59,-8.03 -8.03,-8.03 h -64.23 c -3.24,0 -6.16,1.95 -7.41,4.94 l -24.7,59.29 z"
         id="path13" />
    </g>
    <g
       id="LWPOLYLINE-5"
       data-name="LWPOLYLINE">
      <path
         class="cls-3"
         d="m 126.46,189.36 42.47,-19.7 h 12.04 c 2.22,0 4.01,-1.8 4.01,-4.01 v -24.09 c 0,-2.22 -1.8,-4.01 -4.01,-4.01 h -44.16 c -1.62,0 -3.08,0.97 -3.71,2.47 l -12.35,29.64 v 16.06 c 0,2.22 1.8,4.01 4.01,4.01 0.58,0 1.16,-0.13 1.69,-0.37"
         id="path14" />
    </g>
    <g
       id="LWPOLYLINE-6"
       data-name="LWPOLYLINE">
      <path
         class="cls-3"
         d="m 664.96,183.12 -31.87,-3.91 -2.94,23.91 55.78,6.85 -8.41,-17.77 c -2.35,-4.97 -7.09,-8.4 -12.56,-9.07 z"
         id="path15" />
    </g>
    <g
       id="LWPOLYLINE-7"
       data-name="LWPOLYLINE">
      <path
         class="cls-3"
         d="m 570.89,179.09 c 3.49,-4.26 8.91,-6.43 14.38,-5.76 l 39.84,4.89 -2.94,23.91 -63.75,-7.83 12.46,-15.21 z"
         id="path16" />
    </g>
  </g>
</svg>
