<?xml version="1.0" encoding="UTF-8" standalone="no"?>
<!-- Created with Inkscape (http://www.inkscape.org/) -->

<svg
   width="710mm"
   height="710mm"
   viewBox="0 0 710 710"
   version="1.1"
   id="svg90438"
   inkscape:version="1.2.1 (9c6d41e410, 2022-07-14)"
   sodipodi:docname="Mexico road sign SR-22A3 (2023).svg"
   xmlns:inkscape="http://www.inkscape.org/namespaces/inkscape"
   xmlns:sodipodi="http://sodipodi.sourceforge.net/DTD/sodipodi-0.dtd"
   xmlns="http://www.w3.org/2000/svg"
   xmlns:svg="http://www.w3.org/2000/svg">
  <sodipodi:namedview
     id="namedview90440"
     pagecolor="#ffffff"
     bordercolor="#000000"
     borderopacity="0.25"
     inkscape:showpageshadow="2"
     inkscape:pageopacity="0.0"
     inkscape:pagecheckerboard="0"
     inkscape:deskcolor="#d1d1d1"
     inkscape:document-units="mm"
     showgrid="false"
     inkscape:zoom="0.76257015"
     inkscape:cx="1390.6917"
     inkscape:cy="1289.7174"
     inkscape:window-width="1920"
     inkscape:window-height="991"
     inkscape:window-x="-9"
     inkscape:window-y="-9"
     inkscape:window-maximized="1"
     inkscape:current-layer="layer1" />
  <defs
     id="defs90435" />
  <g
     inkscape:label="Livello 1"
     inkscape:groupmode="layer"
     id="layer1"
     transform="translate(262.70797,220.37845)">
    <g
       id="g47348"
       transform="translate(3620.9871,-19181.064)">
      <rect
         style="fill:#000000;stroke-width:3.68415;stroke-opacity:0.578462;paint-order:fill markers stroke"
         id="rect20798-3-0"
         width="710"
         height="710"
         x="-3883.6951"
         y="18960.686"
         ry="40"
         rx="40" />
      <rect
         style="fill:#ffffff;stroke-width:3.58037;stroke-opacity:0.578462;paint-order:fill markers stroke"
         id="rect20798-4-77-0"
         width="690"
         height="690"
         x="-3873.6948"
         y="18970.686"
         ry="30"
         rx="30" />
      <g
         id="g25102-4-8"
         transform="rotate(90,-9736.9541,9223.7313)">
        <circle
           style="fill:#be0018;stroke-width:6.548;stroke-opacity:0.578462;paint-order:fill markers stroke"
           id="path23624-04-3"
           cx="3015.4722"
           cy="-355"
           r="310"
           transform="rotate(90)" />
        <circle
           style="fill:#ffffff;stroke-width:5.28036;stroke-opacity:0.578462;paint-order:fill markers stroke"
           id="path23624-1-93-0"
           cx="355.00046"
           cy="3015.4727"
           r="250" />
      </g>
      <g
         id="g25723-4-3"
         transform="matrix(14.138504,0,0,14.138504,-45598.581,-123420.27)">
        <ellipse
           style="fill:#000000;stroke-width:0.566424;stroke-linejoin:bevel;stroke-opacity:0.738462;paint-order:fill markers stroke"
           id="path22193-8-6-2"
           cx="2966.2378"
           cy="10103.941"
           rx="1.5145167"
           ry="1.5145" />
        <circle
           style="fill:#000000;stroke-width:0.566421;stroke-linejoin:bevel;stroke-opacity:0.738462;paint-order:fill markers stroke"
           id="path22193-8-7-6-4"
           cx="2983.0059"
           cy="10103.941"
           r="1.5145" />
        <path
           id="rect23817-3-1"
           style="fill:#000000;stroke-width:1.47832;stroke-linejoin:bevel;stroke-opacity:0.738462;paint-order:fill markers stroke"
           d="m 2971.5773,10094.847 v 9.153 h 9.2035 a 2.2281013,2.2281013 0 0 1 0,-0.07 2.2281013,2.2281013 0 0 1 2.2283,-2.229 2.2281013,2.2281013 0 0 1 2.2278,2.229 2.2281013,2.2281013 0 0 1 0,0.07 h 1.1689 v -1.32 h 0.8305 v -7.833 z" />
        <path
           id="rect23817-4-1-8"
           style="fill:#000000;stroke-width:0.878148;stroke-linejoin:bevel;stroke-opacity:0.738462;paint-order:fill markers stroke"
           d="m 2967.6488,10097.57 -1.0475,2.699 -2.7548,0.419 c -0.427,0.1 -0.3783,0.22 -0.3783,0.438 v 2.187 c 0,0.256 0.2136,0.416 0.5281,0.406 h 0.026 a 2.2281013,2.2281013 0 0 1 2.2158,-2.007 2.2281013,2.2281013 0 0 1 2.2278,2.229 2.2281013,2.2281013 0 0 1 0,0.06 h 2.8665 v -6.431 z" />
        <path
           style="fill:#ffffff;stroke-width:1.496;stroke-linejoin:bevel;stroke-opacity:0.738462;paint-order:fill markers stroke"
           d="m 2968.4086,10098.577 -0.6813,1.545 c -0.1773,0.331 0.091,0.755 0.4383,0.633 l 2.062,-0.594 v -1.584 z"
           id="path23906-0-1"
           sodipodi:nodetypes="cccccc" />
      </g>
      <path
         id="rect29600-7-1-2-6"
         style="fill:#000000;stroke-width:12.523;stroke-linejoin:bevel;stroke-opacity:0.738462;paint-order:fill markers stroke"
         d="m -3592.9312,19113.724 v 158.142 h 116.5077 v -29.125 h -84.5091 v -38.21 h 56.589 v -26.669 h -56.589 v -35.013 h 84.5091 v -29.125 z"
         sodipodi:nodetypes="ccccccccccccc" />
      <path
         style="fill:#beff18;stroke:#be0018;stroke-width:60;paint-order:fill markers stroke"
         d="m -3733.6949,19110.685 410,410"
         id="path25886-6-9"
         sodipodi:nodetypes="cc" />
    </g>
  </g>
</svg>
